{
.appVersion = "3343";
.formatVersion = 3;
customParameters = (
{
name = panose;
value = (
0,
0,
0,
0,
0,
0,
0,
0,
0,
0
);
},
{
name = unicodeRanges;
value = (
0,
1,
2,
3,
4,
5,
6,
7,
9,
29,
31,
32,
33,
35,
36,
37,
38,
42,
45,
47,
60,
62
);
},
{
name = fsType;
value = (
);
},
{
name = glyphOrder;
value = (
.notdef,
CR,
space,
A,
Aacute,
Abreve,
uni01CD,
Acircumflex,
Adieresis,
Agrave,
Amacron,
Aogonek,
Aring,
Atilde,
AE,
AEacute,
B,
C,
Cacute,
Ccaron,
Ccedilla,
Cdotaccent,
D,
Dcaron,
Dcroat,
Eth,
E,
Eacute,
Ebreve,
Ecaron,
Ecircumflex,
Edieresis,
Edotaccent,
Egrave,
Emacron,
Eogonek,
uni018E,
uni1EBC,
uni018F,
F,
G,
Gbreve,
uni0122,
Gdotaccent,
H,
Hbar,
I,
IJ,
Iacute,
Ibreve,
Icircumflex,
Idieresis,
Idotaccent,
Igrave,
Imacron,
Iogonek,
Itilde,
J,
uni004A0301,
K,
uni0136,
L,
Lacute,
Lcaron,
uni013B,
Ldot,
Lslash,
M,
N,
Nacute,
Ncaron,
uni0145,
Ntilde,
Eng,
O,
Oacute,
Obreve,
Ocircumflex,
Odieresis,
Ograve,
Ohungarumlaut,
Omacron,
Oslash,
Otilde,
OE,
P,
Thorn,
Q,
R,
Racute,
Rcaron,
uni0156,
S,
Sacute,
Scaron,
Scedilla,
uni0218,
uni1E9E,
T,
Tcaron,
uni0162,
uni021A,
U,
Uacute,
Ubreve,
Ucircumflex,
Udieresis,
Ugrave,
Uhungarumlaut,
Umacron,
Uogonek,
Uring,
Utilde,
V,
W,
Wacute,
Wcircumflex,
Wdieresis,
Wgrave,
X,
Y,
Yacute,
Ycircumflex,
Ydieresis,
Ygrave,
uni1EF8,
Z,
Zacute,
Zcaron,
Zdotaccent,
uniA78B,
a,
aacute,
abreve,
uni01CE,
acircumflex,
adieresis,
agrave,
amacron,
aogonek,
aring,
atilde,
ae,
aeacute,
b,
c,
cacute,
ccaron,
ccedilla,
cdotaccent,
d,
dcaron,
dcroat,
eth,
e,
eacute,
ebreve,
ecaron,
ecircumflex,
edieresis,
edotaccent,
egrave,
emacron,
eogonek,
uni1EBD,
uni0259,
f,
g,
gbreve,
uni0123,
gdotaccent,
h,
hbar,
i,
dotlessi,
iacute,
ibreve,
icircumflex,
idieresis,
i.loclTRK,
igrave,
imacron,
iogonek,
itilde,
ij,
j,
uni0237,
uni006A0301,
k,
uni0137,
l,
lacute,
lcaron,
uni013C,
ldot,
lslash,
m,
n,
nacute,
ncaron,
uni0146,
ntilde,
eng,
o,
oacute,
obreve,
ocircumflex,
odieresis,
ograve,
ohungarumlaut,
omacron,
oslash,
otilde,
oe,
p,
thorn,
q,
r,
racute,
rcaron,

glyphs = (
{
glyphname = .notdef;
layers = (
{
layerId = m01;
shapes = (
{
closed = 1;
nodes = (
(465,0,l),
(465,700,l),
(64,700,l),
(64,0,l)
);
},
{
closed = 1;
nodes = (
(134,643,l),
(395,643,l),
(395,57,l),
(134,57,l)
);
}
);
userData = {
assembly = "NPUSHB[ ]	/* 38 values pushed */
0 0 0 2 3 0 2 103 4 1 3 1 1 3 87 4 1 3 3 1 95 0 1 3 1 79 4 4 4 7 4 7 18 17 16 5 6 25
CALL[ ]	/* CallFunction */";
};
width = 529;
}
);
note = .notdef;
},
{
glyphname = A;
kernLeft = A;
kernRight = A;
layers = (
{
anchors = (
{
name = bottom;
pos = (332,0);
},
{
name = ogonek;
pos = (634,0);
},
{
name = top;
pos = (332,700);
}
);
layerId = m01;
shapes = (
{
closed = 1;
nodes = (
(118,0,l),
(183,180,l),
(481,180,l),
(545,0,l),
(634,0,l),
(377,700,l),
(288,700,l),
(30,0,l)
);
},
{
closed = 1;
nodes = (
(332,594,l),
(456,248,l),
(208,248,l)
);
}
);
userData = {
assembly = "NPUSHB[ ]	/* 40 values pushed */
9 1 4 0 1 76 5 1 4 0 2 1 4 2 104 0 0 0 33 77 3 1 1 1 34 1 78 8 8 8 10 8 10 17 17 17 16 6 8 26
CALL[ ]	/* CallFunction */";
};
width = 664;
}
);
note = A;
unicode = 65;
},
{
glyphname = Aogonek;
kernLeft = A;
layers = (
{
anchors = (
{
name = bottom;
pos = (332,0);
},
{
name = ogonek;
pos = (634,0);
},
{
name = top;
pos = (332,700);
}
);
layerId = m01;
shapes = (
{
closed = 1;
nodes = (
(118,0,l),
(183,180,l),
(481,180,l),
(541,11,l),
(489,-15,o),
(444,-74,o),
(444,-108,qs),
(444,-155,o),
(512,-203,o),
(562,-203,qs),
(601,-203,o),
(637,-190,q),
(637,-134,l),
(603,-149,o),
(572,-149,qs),
(545,-149,o),
(512,-123,o),
(512,-100,qs),
(512,-59,o),
(576,-28,qs),
(634,0,l),
(377,700,l),
(288,700,l),
(30,0,l)
);
},
{
closed = 1;
nodes = (
(332,594,l),
(456,248,l),
(208,248,l)
);
}
);
userData = {
assembly = "NPUSHB[ ]	/* 23 values pushed */
25 1 5 0 19 1 4 3 10 1 1 4 11 1 2 1 4 76 2 1 4 1 75
MPPEM[ ]	/* MeasurePixelPerEm */
PUSHB[ ]	/* 1 value pushed */
29
LT[ ]	/* LessThan */
IF[ ]	/* If */
NPUSHB[ ]	/* 30 values pushed */
6 1 5 0 3 4 5 3 104 0 0 0 33 77 0 4 4 34 77 0 1 1 2 97 0 2 2 38 2 78
ELSE[ ]	/* Else */
NPUSHB[ ]	/* 27 values pushed */
6 1 5 0 3 4 5 3 104 0 1 0 2 1 2 101 0 0 0 33 77 0 4 4 34 4 78
EIF[ ]	/* EndIf */
NPUSHB[ ]	/* 14 values pushed */
24 24 24 26 24 26 17 22 35 38 16 7 8 27
CALL[ ]	/* CallFunction */";
};
width = 664;
}
);
note = Aogonek;
unicode = 260;
},
{
glyphname = AE;
kernLeft = AE;
layers = (
{
anchors = (
{
name = bottom;
pos = (456,0);
},
{
name = top;
pos = (526,700);
}
);
layerId = m01;
shapes = (
{
closed = 1;
nodes = (
(122,0,l),
(212,159,l),
(481,159,l),
(481,0,l),
(854,0,l),
(854,67,l),
(565,67,l),
(565,338,l),
(808,338,l),
(808,406,l),
(565,406,l),
(565,633,l),
(854,633,l),
(854,700,l),
(429,700,l),
(30,0,l)
);
},
{
closed = 1;
nodes = (
(481,631,l),
(481,226,l),
(250,226,l)
);
}
);
userData = {
assembly = "NPUSHB[ ]	/* 62 values pushed */
17 1 2 1 1 76 0 2 0 3 8 2 3 103 9 1 8 0 6 4 8 6 103 0 1 1 0 95 0 0 0 33 77 0 4 4 5 95 7 1 5 5 34 5 78 16 16 16 18 16 18 17 17 17 17 17 17 17 16 10 8 30
CALL[ ]	/* CallFunction */";
};
width = 911;
}
);
note = AE;
unicode = 198;
},
{
glyphname = B;
kernRight = B;
layers = (
{
layerId = m01;
shapes = (
{
closed = 1;
nodes = (
(338,0,ls),
(448,0,o),
(561,108,o),
(561,199,qs),
(561,263,o),
(489,355,o),
(421,377,q),
(468,391,o),
(529,473,o),
(529,529,qs),
(529,579,o),
(477,657,o),
(380,700,o),
(315,700,qs),
(74,700,l),
(74,0,l)
);
},
{
closed = 1;
nodes = (
(158,70,l),
(158,339,l),
(310,339,ls),
(386,339,o),
(476,272,o),
(476,204,qs),
(476,136,o),
(391,70,o),
(312,70,qs)
);
},
{
closed = 1;
nodes = (
(158,406,l),
(158,630,l),
(306,630,ls),
(373,630,o),
(444,571,o),
(444,518,qs),
(444,466,o),
(373,406,o),
(309,406,qs)
);
}
);
userData = {
assembly = "NPUSHB[ ]	/* 57 values pushed */
8 1 2 5 1 76 7 1 5 0 2 3 5 2 103 0 4 4 0 95 0 0 0 33 77 6 1 3 3 1 95 0 1 1 34 1 78 25 25 16 16 25 33 25 32 31 29 16 24 16 23 37 43 32 8 8 25
CALL[ ]	/* CallFunction */";
};
width = 602;
}
);
note = B;
unicode = 66;
},
{
glyphname = C;
kernLeft = C;
kernRight = C;
layers = (
{
anchors = (
{
name = bottom;
pos = (381,0);
},
{
name = top;
pos = (381,700);
}
);
layerId = m01;
shapes = (
{
closed = 1;
nodes = (
(500,-12,o),
(652,101,o),
(673,203,q),
(580,203,l),
(564,137,o),
(463,62,o),
(381,62,qs),
(302,62,o),
(190,136,o),
(133,266,o),
(133,350,qs),
(133,433,o),
(189,563,o),
(301,638,o),
(381,638,qs),
(463,638,o),
(564,561,o),
(580,494,q),
(673,494,l),
(652,597,o),
(500,712,o),
(381,712,qs),
(276,712,o),
(125,617,o),
(47,453,o),
(47,350,qs),
(47,246,o),
(126,82,o),
(277,-12,o),
(381,-12,qs)
);
}
);
userData = {
assembly = "NPUSHB[ ]	/* 51 values pushed */
0 1 2 4 2 1 4 128 0 4 3 2 4 3 126 0 2 2 0 97 0 0 0 39 77 0 3 3 5 97 6 1 5 5 40 5 78 0 0 0 29 0 28 18 38 34 18 38 7 8 27
CALL[ ]	/* CallFunction */";
};
width = 720;
}
);
note = C;
unicode = 67;
},
{
glyphname = Ccedilla;
kernLeft = C;
kernRight = C;
layers = (
{
anchors = (
{
name = bottom;
pos = (381,-259);
},
{
name = top;
pos = (381,700);
}
);
layerId = m01;
shapes = (
{
closed = 1;
nodes = (
(416,-259,ls),
(470,-259,o),
(537,-205,o),
(537,-159,qs),
(537,-112,o),
(467,-62,o),
(408,-63,q),
(408,-11,l),
(516,-5,o),
(653,107,o),
(673,203,q),
(580,203,l),
(564,137,o),
(463,62,o),
(381,62,qs),
(302,62,o),
(190,136,o),
(133,266,o),
(133,350,qs),
(133,433,o),
(189,563,o),
(301,638,o),
(381,638,qs),
(463,638,o),
(564,561,o),
(580,494,q),
(673,494,l),
(652,597,o),
(500,712,o),
(381,712,qs),
(276,712,o),
(125,617,o),
(47,453,o),
(47,350,qs),
(47,251,o),
(119,92,o),
(257,-4,o),
(352,-11,q),
(352,-113,l),
(401,-113,ls),
(469,-113,o),
(469,-158,qs),
(469,-206,o),
(401,-206,qs),
(309,-206,l),
(309,-259,l)
);
}
);
userData = {
assembly = "NPUSHB[ ]	/* 71 values pushed */
7 1 8 7 1 76 0 3 4 6 4 3 6 128 0 6 5 4 6 5 126 0 8 0 1 0 8 1 105 0 0 0 9 0 9 99 0 4 4 2 97 0 2 2 39 77 0 5 5 7 97 0 7 7 40 7 78 45 43 17 18 18 38 34 18 40 34 32 10 8 31
CALL[ ]	/* CallFunction */";
};
width = 720;
}
);
note = Ccedilla;
unicode = 199;
},
{
glyphname = D;
kernRight = D;
layers = (
{
anchors = (
{
name = bottom;
pos = (342,0);
},
{
name = top;
pos = (342,700);
}
);
layerId = m01;
shapes = (
{
closed = 1;
nodes = (
(289,0,ls),
(470,0,o),
(649,182,o),
(649,348,qs),
(649,517,o),
(470,700,o),
(289,700,qs),
(74,700,l),
(74,0,l)
);
},
{
closed = 1;
nodes = (
(158,70,l),
(158,630,l),
(287,630,ls),
(429,630,o),
(562,492,o),
(562,348,qs),
(562,210,o),
(432,70,o),
(287,70,qs)
);
}
);
userData = {
assembly = "NPUSHB[ ]	/* 34 values pushed */
0 2 2 0 95 0 0 0 33 77 4 1 3 3 1 95 0 1 1 34 1 78 9 9 9 17 9 16 37 36 32 5 8 25
CALL[ ]	/* CallFunction */";
};
width = 696;
}
);
note = D;
unicode = 68;
},
{
glyphname = Dcroat;
kernRight = D;
layers = (
{
layerId = m01;
shapes = (
{
closed = 1;
nodes = (
(310,0,ls),
(491,0,o),
(670,182,o),
(670,348,qs),
(670,517,o),
(491,700,o),
(310,700,qs),
(95,700,l),
(95,387,l),
(8,387,l),
(8,311,l),
(95,311,l),
(95,0,l)
);
},
{
closed = 1;
nodes = (
(179,70,l),
(179,311,l),
(381,311,l),
(381,387,l),
(179,387,l),
(179,630,l),
(309,630,ls),
(451,630,o),
(584,491,o),
(584,348,qs),
(584,215,o),
(459,70,o),
(309,70,qs)
);
}
);
userData = {
assembly = "NPUSHB[ ]	/* 48 values pushed */
5 1 1 6 1 0 7 1 0 103 0 4 4 2 95 0 2 2 33 77 8 1 7 7 3 95 0 3 3 34 3 78 13 13 13 25 13 24 17 17 37 36 33 17 16 9 8 29
CALL[ ]	/* CallFunction */";
};
width = 717;
}
);
note = Dcroat;
unicode = 272;
},
{
glyphname = Eth;
kernRight = D;
layers = (
{
layerId = m01;
shapes = (
{
closed = 1;
nodes = (
(310,0,ls),
(491,0,o),
(670,182,o),
(670,348,qs),
(670,517,o),
(491,700,o),
(310,700,qs),
(95,700,l),
(95,387,l),
(8,387,l),
(8,311,l),
(95,311,l),
(95,0,l)
);
},
{
closed = 1;
nodes = (
(179,70,l),
(179,311,l),
(381,311,l),
(381,387,l),
(179,387,l),
(179,630,l),
(309,630,ls),
(451,630,o),
(584,491,o),
(584,348,qs),
(584,215,o),
(459,70,o),
(309,70,qs)
);
}
);
userData = {
assembly = "NPUSHB[ ]	/* 48 values pushed */
5 1 1 6 1 0 7 1 0 103 0 4 4 2 95 0 2 2 33 77 8 1 7 7 3 95 0 3 3 34 3 78 13 13 13 25 13 24 17 17 37 36 33 17 16 9 8 29
CALL[ ]	/* CallFunction */";
};
width = 717;
}
);
note = Eth;
unicode = 208;
},
{
glyphname = E;
layers = (
{
anchors = (
{
name = bottom;
pos = (282,0);
},
{
name = ogonek;
pos = (507,0);
},
{
name = top;
pos = (282,700);
}
);
layerId = m01;
shapes = (
{
closed = 1;
nodes = (
(507,0,l),
(507,69,l),
(158,69,l),
(158,336,l),
(463,336,l),
(463,404,l),
(158,404,l),
(158,631,l),
(507,631,l),
(507,700,l),
(74,700,l),
(74,0,l)
);
}
);
userData = {
assembly = "NPUSHB[ ]	/* 38 values pushed */
0 2 0 3 4 2 3 103 0 1 1 0 95 0 0 0 33 77 0 4 4 5 95 0 5 5 34 5 78 17 17 17 17 17 16 6 8 28
CALL[ ]	/* CallFunction */";
};
width = 564;
}
);
note = E;
unicode = 69;
},
{
glyphname = Eogonek;
layers = (
{
anchors = (
{
name = bottom;
pos = (282,0);
},
{
name = ogonek;
pos = (507,0);
},
{
name = top;
pos = (282,700);
}
);
layerId = m01;
shapes = (
{
closed = 1;
nodes = (
(393,0,l),
(317,-45,o),
(317,-108,qs),
(317,-155,o),
(385,-203,o),
(435,-203,qs),
(474,-203,o),
(510,-190,q),
(510,-134,l),
(476,-149,o),
(445,-149,qs),
(418,-149,o),
(385,-123,o),
(385,-100,qs),
(385,-59,o),
(449,-28,qs),
(507,0,l),
(507,69,l),
(158,69,l),
(158,336,l),
(463,336,l),
(463,404,l),
(158,404,l),
(158,631,l),
(507,631,l),
(507,700,l),
(74,700,l),
(74,0,l)
);
}
);
userData = {
assembly = "NPUSHB[ ]	/* 15 values pushed */
18 1 5 7 19 1 6 5 2 76 10 1 7 1 75
MPPEM[ ]	/* MeasurePixelPerEm */
PUSHB[ ]	/* 1 value pushed */
29
LT[ ]	/* LessThan */
IF[ ]	/* If */
NPUSHB[ ]	/* 39 values pushed */
0 2 0 3 4 2 3 103 0 1 1 0 95 0 0 0 33 77 0 4 4 7 95 0 7 7 34 77 0 5 5 6 97 0 6 6 38 6 78
ELSE[ ]	/* Else */
NPUSHB[ ]	/* 36 values pushed */
0 2 0 3 4 2 3 103 0 5 0 6 5 6 101 0 1 1 0 95 0 0 0 33 77 0 4 4 7 95 0 7 7 34 7 78
EIF[ ]	/* EndIf */
NPUSHB[ ]	/* 11 values pushed */
20 35 38 17 17 17 17 16 8 8 30
CALL[ ]	/* CallFunction */";
};
width = 564;
}
);
note = Eogonek;
unicode = 280;
},
{
glyphname = uni018E;
layers = (
{
layerId = m01;
shapes = (
{
closed = 1;
nodes = (
(507,0,l),
(507,700,l),
(74,700,l),
(74,631,l),
(423,631,l),
(423,404,l),
(118,404,l),
(118,336,l),
(423,336,l),
(423,69,l),
(74,69,l),
(74,0,l)
);
}
);
userData = {
assembly = "NPUSHB[ ]	/* 38 values pushed */
0 2 0 1 0 2 1 103 0 3 3 4 95 0 4 4 33 77 0 0 0 5 95 0 5 5 34 5 78 17 17 17 17 17 16 6 8 28
CALL[ ]	/* CallFunction */";
};
width = 600;
}
);
note = uni018E;
unicode = (398,477);
},
{
glyphname = uni018F;
kernLeft = uni018F;
kernRight = D;
layers = (
{
layerId = m01;
shapes = (
{
closed = 1;
nodes = (
(473,-12,o),
(549,33,qs),
(625,79,o),
(708,240,o),
(708,346,qs),
(708,456,o),
(666,538,qs),
(624,621,o),
(473,712,o),
(375,712,qs),
(296,712,o),
(230,683,qs),
(164,654,o),
(73,549,o),
(52,479,q),
(147,479,l),
(170,553,o),
(293,636,o),
(375,636,qs),
(444,636,o),
(497,605,qs),
(552,573,o),
(615,455,o),
(618,375,q),
(50,375,l),
(47,344,o),
(47,316,qs),
(47,213,o),
(89,139,qs),
(130,66,o),
(277,-12,o),
(372,-12,qs)
);
},
{
closed = 1;
nodes = (
(300,64,o),
(246,94,qs),
(192,123,o),
(134,231,o),
(135,303,q),
(618,303,l),
(613,226,o),
(581,174,qs),
(548,121,o),
(439,64,o),
(372,64,qs)
);
}
);
userData = {
assembly = "NPUSHB[ ]	/* 60 values pushed */
0 2 1 0 1 2 0 128 0 0 0 5 6 0 5 103 0 1 1 3 97 0 3 3 39 77 8 1 6 6 4 97 7 1 4 4 40 4 78 32 32 0 0 32 42 32 41 37 36 0 31 0 30 36 18 36 22 9 8 26
CALL[ ]	/* CallFunction */";
};
width = 755;
}
);
note = uni018F;
unicode = 399;
},
{
glyphname = F;
kernRight = F;
layers = (
{
layerId = m01;
shapes = (
{
closed = 1;
nodes = (
(158,0,l),
(158,327,l),
(449,327,l),
(449,395,l),
(158,395,l),
(158,631,l),
(500,631,l),
(500,700,l),
(74,700,l),
(74,0,l)
);
}
);
userData = {
assembly = "NPUSHB[ ]	/* 32 values pushed */
0 2 0 3 4 2 3 103 0 1 1 0 95 0 0 0 33 77 0 4 4 34 4 78 17 17 17 17 16 5 8 27
CALL[ ]	/* CallFunction */";
};
width = 534;
}
);
note = F;
unicode = 70;
},
{
glyphname = G;
kernLeft = C;
kernRight = G;
layers = (
{
anchors = (
{
name = bottom;
pos = (379,0);
},
{
name = top;
pos = (379,700);
}
);
layerId = m01;
shapes = (
{
closed = 1;
nodes = (
(462,-12,o),
(574,51,o),
(614,115,q),
(621,0,l),
(698,0,l),
(698,374,l),
(360,374,l),
(360,308,l),
(612,308,l),
(604,191,o),
(487,63,o),
(378,63,qs),
(302,63,o),
(191,136,o),
(133,266,o),
(133,349,qs),
(133,431,o),
(191,560,o),
(306,635,o),
(387,635,qs),
(468,635,o),
(574,562,o),
(588,498,q),
(685,498,l),
(662,598,o),
(504,712,o),
(387,712,qs),
(282,712,o),
(128,618,o),
(47,453,o),
(47,349,qs),
(47,244,o),
(128,80,o),
(277,-12,o),
(375,-12,qs)
);
}
);
userData = {
assembly = "PUSHB[ ]	/* 6 values pushed */
31 1 3 4 1 76
MPPEM[ ]	/* MeasurePixelPerEm */
PUSHB[ ]	/* 1 value pushed */
21
LT[ ]	/* LessThan */
IF[ ]	/* If */
NPUSHB[ ]	/* 39 values pushed */
0 1 2 5 2 1 5 128 0 5 0 4 3 5 4 103 0 2 2 0 97 0 0 0 39 77 0 3 3 6 97 8 7 2 6 6 34 6 78
ELSE[ ]	/* Else */
NPUSHB[ ]	/* 43 values pushed */
0 1 2 5 2 1 5 128 0 5 0 4 3 5 4 103 0 2 2 0 97 0 0 0 39 77 0 6 6 34 77 0 3 3 7 97 8 1 7 7 40 7 78
EIF[ ]	/* EndIf */
NPUSHB[ ]	/* 16 values pushed */
0 0 0 34 0 33 17 17 18 38 34 18 38 9 8 29
CALL[ ]	/* CallFunction */";
};
width = 757;
}
);
note = G;
unicode = 71;
},
{
glyphname = H;
layers = (
{
layerId = m01;
shapes = (
{
closed = 1;
nodes = (
(158,0,l),
(158,336,l),
(521,336,l),
(521,0,l),
(605,0,l),
(605,700,l),
(521,700,l),
(521,405,l),
(158,405,l),
(158,700,l),
(74,700,l),
(74,0,l)
);
}
);
userData = {
assembly = "NPUSHB[ ]	/* 30 values pushed */
0 1 0 4 3 1 4 103 2 1 0 0 33 77 5 1 3 3 34 3 78 17 17 17 17 17 16 6 8 28
CALL[ ]	/* CallFunction */";
};
width = 679;
}
);
note = H;
unicode = 72;
},
{
glyphname = Hbar;
layers = (
{
layerId = m01;
shapes = (
{
closed = 1;
nodes = (
(158,0,l),
(158,336,l),
(521,336,l),
(521,0,l),
(605,0,l),
(605,513,l),
(655,513,l),
(655,582,l),
(605,582,l),
(605,700,l),
(521,700,l),
(521,582,l),
(158,582,l),
(158,700,l),
(74,700,l),
(74,582,l),
(24,582,l),
(24,513,l),
(74,513,l),
(74,0,l)
);
},
{
closed = 1;
nodes = (
(158,513,l),
(521,513,l),
(521,405,l),
(158,405,l)
);
}
);
userData = {
assembly = "NPUSHB[ ]	/* 56 values pushed */
5 3 2 1 10 6 2 0 11 1 0 103 12 1 11 0 8 7 11 8 103 4 1 2 2 33 77 9 1 7 7 34 7 78 20 20 20 23 20 23 22 21 19 18 17 17 17 17 17 17 17 17 16 13 8 31
CALL[ ]	/* CallFunction */";
};
width = 679;
}
);
note = Hbar;
unicode = 294;
},
{
glyphname = I;
layers = (
{
anchors = (
{
name = bottom;
pos = (116,0);
},
{
name = ogonek;
pos = (158,0);
},
{
name = top;
pos = (116,700);
}
);
layerId = m01;
shapes = (
{
closed = 1;
nodes = (
(158,0,l),
(158,700,l),
(74,700,l),
(74,0,l)
);
}
);
userData = {
assembly = "NPUSHB[ ]	/* 16 values pushed */
0 0 0 33 77 0 1 1 34 1 78 17 16 2 8 24
CALL[ ]	/* CallFunction */";
};
width = 232;
}
);
note = I;
unicode = 73;
},
{
glyphname = Iogonek;
layers = (
{
anchors = (
{
name = bottom;
pos = (116,0);
},
{
name = ogonek;
pos = (158,0);
},
{
name = top;
pos = (116,700);
}
);
layerId = m01;
shapes = (
{
closed = 1;
nodes = (
(125,-203,o),
(161,-190,q),
(161,-134,l),
(127,-149,o),
(96,-149,qs),
(69,-149,o),
(36,-123,o),
(36,-100,qs),
(36,-59,o),
(100,-28,qs),
(158,0,l),
(158,700,l),
(74,700,l),
(74,15,l),
(-32,-33,o),
(-32,-108,qs),
(-32,-155,o),
(36,-203,o),
(86,-203,qs)
);
}
);
userData = {
assembly = "NPUSHB[ ]	/* 12 values pushed */
15 7 4 3 1 0 16 1 2 1 2 76
MPPEM[ ]	/* MeasurePixelPerEm */
PUSHB[ ]	/* 1 value pushed */
29
LT[ ]	/* LessThan */
IF[ ]	/* If */
NPUSHB[ ]	/* 17 values pushed */
0 0 0 33 77 0 1 1 2 97 3 1 2 2 38 2 78
ELSE[ ]	/* Else */
NPUSHB[ ]	/* 14 values pushed */
0 1 3 1 2 1 2 101 0 0 0 33 0 78
EIF[ ]	/* EndIf */
NPUSHB[ ]	/* 11 values pushed */
0 0 0 18 0 17 38 21 4 8 24
CALL[ ]	/* CallFunction */";
};
width = 232;
}
);
note = Iogonek;
unicode = 302;
},
{
glyphname = J;
kernLeft = J;
kernRight = J;
layers = (
{
anchors = (
{
name = bottom;
pos = (250,0);
},
{
name = top;
pos = (384,700);
}
);
layerId = m01;
shapes = (
{
closed = 1;
nodes = (
(322,-12,o),
(425,92,o),
(425,185,qs),
(425,700,l),
(341,700,l),
(341,185,ls),
(341,63,o),
(229,63,qs),
(167,63,o),
(112,130,o),
(112,188,q),
(27,188,l),
(27,94,o),
(135,-12,o),
(230,-12,qs)
);
}
);
userData = {
assembly = "NPUSHB[ ]	/* 37 values pushed */
0 0 2 1 2 0 1 128 0 2 2 33 77 0 1 1 3 97 4 1 3 3 40 3 78 0 0 0 14 0 13 18 34 18 5 8 25
CALL[ ]	/* CallFunction */";
};
width = 499;
}
);
note = J;
unicode = 74;
},
{
glyphname = K;
kernRight = K;
layers = (
{
anchors = (
{
name = bottom;
pos = (288,0);
},
{
name = top;
pos = (288,700);
}
);
layerId = m01;
shapes = (
{
closed = 1;
nodes = (
(158,0,l),
(158,333,l),
(457,0,l),
(576,0,l),
(248,357,l),
(561,700,l),
(454,700,l),
(158,367,l),
(158,700,l),
(74,700,l),
(74,0,l)
);
}
);
userData = {
assembly = "NPUSHB[ ]	/* 28 values pushed */
8 5 2 3 2 0 1 76 1 1 0 0 33 77 3 1 2 2 34 2 78 18 18 18 16 4 8 26
CALL[ ]	/* CallFunction */";
};
width = 580;
}
);
note = K;
unicode = 75;
},
{
glyphname = L;
kernRight = L;
layers = (
{
anchors = (
{
name = bottom;
pos = (263,0);
},
{
name = top;
pos = (178,700);
},
{
name = topright;
pos = (261,700);
}
);
layerId = m01;
shapes = (
{
closed = 1;
nodes = (
(484,0,l),
(484,67,l),
(158,67,l),
(158,700,l),
(74,700,l),
(74,0,l)
);
}
);
userData = {
assembly = "NPUSHB[ ]	/* 22 values pushed */
0 0 0 33 77 0 1 1 2 96 0 2 2 34 2 78 17 17 16 3 8 25
CALL[ ]	/* CallFunction */";
};
width = 525;
}
);
note = L;
unicode = 76;
},
{
glyphname = Ldot;
kernRight = L;
layers = (
{
layerId = m01;
shapes = (
{
closed = 1;
nodes = (
(484,0,l),
(484,67,l),
(158,67,l),
(158,700,l),
(74,700,l),
(74,0,l)
);
},
{
closed = 1;
nodes = (
(381,293,o),
(414,326,o),
(414,350,qs),
(414,375,o),
(381,407,o),
(357,407,qs),
(332,407,o),
(299,375,o),
(299,350,qs),
(299,326,o),
(332,293,o),
(357,293,qs)
);
}
);
userData = {
assembly = "NPUSHB[ ]	/* 38 values pushed */
0 3 5 1 4 1 3 4 105 0 0 0 33 77 0 1 1 2 96 0 2 2 34 2 78 6 6 6 17 6 16 37 17 17 16 6 8 26
CALL[ ]	/* CallFunction */";
};
width = 525;
}
);
note = Ldot;
unicode = 319;
},
{
glyphname = Lslash;
kernRight = L;
layers = (
{
layerId = m01;
shapes = (
{
closed = 1;
nodes = (
(510,0,l),
(510,67,l),
(184,67,l),
(184,346,l),
(306,392,l),
(306,459,l),
(184,413,l),
(184,700,l),
(100,700,l),
(100,381,l),
(20,351,l),
(20,284,l),
(100,314,l),
(100,0,l)
);
}
);
userData = {
assembly = "NPUSHB[ ]	/* 35 values pushed */
9 8 7 6 3 2 1 0 8 1 0 1 76 0 0 0 33 77 0 1 1 2 96 0 2 2 34 2 78 17 21 20 3 8 25
CALL[ ]	/* CallFunction */";
};
width = 551;
}
);
note = Lslash;
unicode = 321;
},
{
glyphname = M;
layers = (
{
layerId = m01;
shapes = (
{
closed = 1;
nodes = (
(158,0,l),
(158,547,l),
(382,100,l),
(445,100,l),
(669,548,l),
(669,0,l),
(753,0,l),
(753,700,l),
(654,700,l),
(414,214,l),
(172,700,l),
(74,700,l),
(74,0,l)
);
}
);
userData = {
assembly = "NPUSHB[ ]	/* 37 values pushed */
10 7 2 3 3 0 1 76 0 3 0 2 0 3 2 128 1 1 0 0 33 77 4 1 2 2 34 2 78 18 18 17 18 16 5 8 27
CALL[ ]	/* CallFunction */";
};
width = 827;
}
);
note = M;
unicode = 77;
},
{
glyphname = N;
layers = (
{
anchors = (
{
name = bottom;
pos = (345,0);
},
{
name = top;
pos = (345,700);
}
);
layerId = m01;
shapes = (
{
closed = 1;
nodes = (
(158,0,l),
(158,561,l),
(531,0,l),
(615,0,l),
(615,700,l),
(531,700,l),
(531,139,l),
(158,700,l),
(74,700,l),
(74,0,l)
);
}
);
userData = {
assembly = "NPUSHB[ ]	/* 27 values pushed */
7 2 2 2 0 1 76 1 1 0 0 33 77 3 1 2 2 34 2 78 18 17 18 16 4 8 26
CALL[ ]	/* CallFunction */";
};
width = 689;
}
);
note = N;
unicode = 78;
},
{
glyphname = Eng;
layers = (
{
layerId = m01;
shapes = (
{
closed = 1;
nodes = (
(158,0,l),
(158,561,l),
(531,0,l),
(531,-80,ls),
(531,-116,o),
(498,-148,o),
(461,-148,qs),
(422,-148,l),
(422,-220,l),
(474,-220,ls),
(544,-220,o),
(615,-153,o),
(615,-82,qs),
(615,700,l),
(531,700,l),
(531,139,l),
(158,700,l),
(74,700,l),
(74,0,l)
);
}
);
userData = {
assembly = "NPUSHB[ ]	/* 42 values pushed */
16 2 2 4 0 1 76 15 1 4 1 75 1 1 0 0 33 77 0 4 4 34 77 0 3 3 2 97 0 2 2 38 2 78 21 33 35 18 16 5 8 27
CALL[ ]	/* CallFunction */";
};
width = 689;
}
);
note = Eng;
unicode = 330;
},
{
glyphname = O;
kernLeft = C;
kernRight = D;
layers = (
{
anchors = (
{
name = bottom;
pos = (392,0);
},
{
name = ogonek;
pos = (464,10);
},
{
name = top;
pos = (392,700);
},
{
name = topright;
pos = (764,700);
}
);
layerId = m01;
shapes = (
{
closed = 1;
nodes = (
(497,-12,o),
(653,80,o),
(737,245,o),
(737,350,qs),
(737,455,o),
(653,620,o),
(496,712,o),
(392,712,qs),
(287,712,o),
(131,618,o),
(47,453,o),
(47,350,qs),
(47,247,o),
(131,82,o),
(287,-12,o),
(392,-12,qs)
);
},
{
closed = 1;
nodes = (
(312,62,o),
(195,136,o),
(133,266,o),
(133,350,qs),
(133,434,o),
(195,564,o),
(312,637,o),
(392,637,qs),
(473,637,o),
(590,566,o),
(651,436,o),
(651,350,qs),
(651,265,o),
(589,135,o),
(472,62,o),
(392,62,qs)
);
}
);
userData = {
assembly = "NPUSHB[ ]	/* 41 values pushed */
0 2 2 0 97 0 0 0 39 77 5 1 3 3 1 97 4 1 1 1 40 1 78 16 16 0 0 16 31 16 30 24 22 0 15 0 14 38 6 8 23
CALL[ ]	/* CallFunction */";
};
width = 784;
}
);
note = O;
unicode = 79;
},
{
glyphname = Oslash;
kernLeft = Oslash;
kernRight = Oslash;
layers = (
{
layerId = m01;
shapes = (
{
closed = 1;
nodes = (
(497,-12,o),
(653,80,o),
(737,245,o),
(737,350,qs),
(737,423,o),
(695,548,o),
(655,596,q),
(747,700,l),
(658,700,l),
(607,643,l),
(564,676,o),
(455,712,o),
(392,712,qs),
(287,712,o),
(131,618,o),
(47,453,o),
(47,350,qs),
(47,276,o),
(90,150,o),
(130,102,q),
(39,0,l),
(129,0,l),
(179,56,l),
(266,-12,o),
(392,-12,qs)
);
},
{
closed = 1;
nodes = (
(296,62,o),
(231,115,q),
(601,534,l),
(651,461,o),
(651,350,qs),
(651,265,o),
(589,135,o),
(472,62,o),
(392,62,qs)
);
},
{
closed = 1;
nodes = (
(184,164,l),
(133,241,o),
(133,350,qs),
(133,434,o),
(195,564,o),
(312,637,o),
(392,637,qs),
(488,637,o),
(555,584,q)
);
}
);
userData = {
assembly = "MPPEM[ ]	/* MeasurePixelPerEm */
PUSHB[ ]	/* 1 value pushed */
21
LT[ ]	/* LessThan */
IF[ ]	/* If */
NPUSHB[ ]	/* 19 values pushed */
14 1 5 1 42 41 31 30 17 4 6 4 5 1 1 0 4 3 76
ELSE[ ]	/* Else */
NPUSHB[ ]	/* 19 values pushed */
14 1 5 2 42 41 31 30 17 4 6 4 5 1 1 0 4 3 76
EIF[ ]	/* EndIf */
MPPEM[ ]	/* MeasurePixelPerEm */
PUSHB[ ]	/* 1 value pushed */
21
LT[ ]	/* LessThan */
IF[ ]	/* If */
NPUSHB[ ]	/* 25 values pushed */
0 5 5 1 97 2 1 1 1 39 77 7 1 4 4 0 97 6 3 2 0 0 34 0 78
ELSE[ ]	/* Else */
NPUSHB[ ]	/* 33 values pushed */
0 2 2 33 77 0 5 5 1 97 0 1 1 39 77 0 0 0 34 77 7 1 4 4 3 97 6 1 3 3 40 3 78
EIF[ ]	/* EndIf */
NPUSHB[ ]	/* 20 values pushed */
25 25 0 0 36 34 25 33 25 32 0 24 0 23 19 39 18 8 8 25
CALL[ ]	/* CallFunction */";
};
width = 786;
}
);
note = Oslash;
unicode = 216;
},
{
glyphname = OE;
kernLeft = C;
layers = (
{
layerId = m01;
shapes = (
{
closed = 1;
nodes = (
(475,-12,o),
(614,58,o),
(659,124,q),
(659,0,l),
(1061,0,l),
(1061,69,l),
(743,69,l),
(743,336,l),
(1021,336,l),
(1021,404,l),
(743,404,l),
(743,631,l),
(1061,631,l),
(1061,700,l),
(659,700,l),
(659,575,l),
(614,641,o),
(475,712,o),
(393,712,qs),
(294,712,o),
(136,618,o),
(47,453,o),
(47,350,qs),
(47,249,o),
(135,83,o),
(293,-12,o),
(393,-12,qs)
);
},
{
closed = 1;
nodes = (
(328,62,o),
(208,127,o),
(133,258,o),
(133,350,qs),
(133,427,o),
(195,559,o),
(314,637,o),
(395,637,qs),
(468,637,o),
(587,569,o),
(657,439,o),
(657,350,qs),
(657,275,o),
(598,143,o),
(479,62,o),
(395,62,qs)
);
}
);
userData = {
assembly = "NPUSHB[ ]	/* 10 values pushed */
10 1 3 2 23 1 5 4 2 76
MPPEM[ ]	/* MeasurePixelPerEm */
PUSHB[ ]	/* 1 value pushed */
21
LT[ ]	/* LessThan */
IF[ ]	/* If */
NPUSHB[ ]	/* 35 values pushed */
0 3 0 4 5 3 4 103 8 1 2 2 0 97 1 1 0 0 39 77 11 9 2 5 5 6 97 10 7 2 6 6 34 6 78
ELSE[ ]	/* Else */
MPPEM[ ]	/* MeasurePixelPerEm */
PUSHB[ ]	/* 1 value pushed */
33
LT[ ]	/* LessThan */
IF[ ]	/* If */
NPUSHB[ ]	/* 56 values pushed */
0 3 0 4 5 3 4 103 8 1 2 2 0 97 0 0 0 39 77 8 1 2 2 1 95 0 1 1 33 77 11 9 2 5 5 6 95 0 6 6 34 77 11 9 2 5 5 7 97 10 1 7 7 40 7 78
ELSE[ ]	/* Else */
MPPEM[ ]	/* MeasurePixelPerEm */
PUSHB[ ]	/* 1 value pushed */
39
LT[ ]	/* LessThan */
IF[ ]	/* If */
NPUSHB[ ]	/* 53 values pushed */
0 3 0 4 5 3 4 103 8 1 2 2 0 97 0 0 0 39 77 8 1 2 2 1 95 0 1 1 33 77 0 5 5 6 95 0 6 6 34 77 11 1 9 9 7 97 10 1 7 7 40 7 78
ELSE[ ]	/* Else */
NPUSHB[ ]	/* 51 values pushed */
0 3 0 4 5 3 4 103 0 8 8 0 97 0 0 0 39 77 0 2 2 1 95 0 1 1 33 77 0 5 5 6 95 0 6 6 34 77 11 1 9 9 7 97 10 1 7 7 40 7 78
EIF[ ]	/* EndIf */
EIF[ ]	/* EndIf */
EIF[ ]	/* EndIf */
NPUSHB[ ]	/* 24 values pushed */
27 27 0 0 27 42 27 41 35 33 0 26 0 25 17 17 17 17 17 19 38 12 8 29
CALL[ ]	/* CallFunction */";
};
width = 1118;
}
);
note = OE;
unicode = 338;
},
{
glyphname = P;
kernRight = P;
layers = (
{
layerId = m01;
shapes = (
{
closed = 1;
nodes = (
(158,0,l),
(158,304,l),
(305,304,ls),
(414,304,o),
(543,403,o),
(543,502,qs),
(543,599,o),
(417,700,o),
(305,700,qs),
(74,700,l),
(74,0,l)
);
},
{
closed = 1;
nodes = (
(158,375,l),
(158,630,l),
(303,630,ls),
(385,630,o),
(457,567,o),
(457,502,qs),
(457,438,o),
(385,375,o),
(303,375,qs)
);
}
);
userData = {
assembly = "NPUSHB[ ]	/* 38 values pushed */
5 1 4 0 1 2 4 1 103 0 3 3 0 95 0 0 0 33 77 0 2 2 34 2 78 11 11 11 19 11 18 37 17 36 32 6 8 26
CALL[ ]	/* CallFunction */";
};
width = 579;
}
);
note = P;
unicode = 80;
},
{
glyphname = Thorn;
kernRight = Thorn;
layers = (
{
layerId = m01;
shapes = (
{
closed = 1;
nodes = (
(158,0,l),
(158,147,l),
(304,147,ls),
(388,147,o),
(440,174,qs),
(492,200,o),
(543,291,o),
(543,350,qs),
(543,409,o),
(518,455,qs),
(492,503,o),
(384,554,o),
(304,554,qs),
(158,554,l),
(158,700,l),
(74,700,l),
(74,0,l)
);
},
{
closed = 1;
nodes = (
(158,217,l),
(158,484,l),
(302,484,ls),
(383,484,o),
(457,416,o),
(457,350,qs),
(457,217,o),
(302,217,qs)
);
}
);
userData = {
assembly = "NPUSHB[ ]	/* 42 values pushed */
0 1 0 4 5 1 4 103 6 1 5 0 2 3 5 2 103 0 0 0 33 77 0 3 3 34 3 78 17 17 17 24 17 23 36 17 40 33 16 7 8 27
CALL[ ]	/* CallFunction */";
};
width = 579;
}
);
note = Thorn;
unicode = 222;
},
{
glyphname = Q;
kernLeft = C;
kernRight = Q;
layers = (
{
layerId = m01;
shapes = (
{
closed = 1;
nodes = (
(677,-11,l),
(727,41,l),
(658,106,l),
(697,154,o),
(737,278,o),
(737,350,qs),
(737,455,o),
(653,620,o),
(496,712,o),
(392,712,qs),
(287,712,o),
(131,618,o),
(47,453,o),
(47,350,qs),
(47,247,o),
(131,82,o),
(287,-12,o),
(392,-12,qs),
(518,-12,o),
(607,56,q)
);
},
{
closed = 1;
nodes = (
(133,434,o),
(195,564,o),
(312,637,o),
(392,637,qs),
(473,637,o),
(590,566,o),
(651,436,o),
(651,350,qs),
(651,236,o),
(601,162,q),
(494,267,l),
(443,215,l),
(552,110,l),
(489,62,o),
(392,62,qs),
(312,62,o),
(195,136,o),
(133,266,o),
(133,350,qs)
);
}
);
userData = {
assembly = "NPUSHB[ ]	/* 44 values pushed */
28 27 26 25 16 5 2 3 19 18 17 3 0 2 2 76 0 3 3 1 97 0 1 1 39 77 0 2 2 0 97 0 0 0 40 0 78 41 44 38 32 4 8 26
CALL[ ]	/* CallFunction */";
};
width = 789;
}
);
note = Q;
unicode = 81;
},
{
glyphname = R;
kernRight = R;
layers = (
{
anchors = (
{
name = bottom;
pos = (302,0);
},
{
name = top;
pos = (283,700);
}
);
layerId = m01;
shapes = (
{
closed = 1;
nodes = (
(158,0,l),
(158,310,l),
(274,310,l),
(454,0,l),
(558,0,l),
(357,326,l),
(515,354,o),
(515,505,qs),
(515,602,o),
(393,700,o),
(281,700,qs),
(74,700,l),
(74,0,l)
);
},
{
closed = 1;
nodes = (
(158,381,l),
(158,630,l),
(279,630,ls),
(361,630,o),
(429,570,o),
(429,505,qs),
(429,441,o),
(361,381,o),
(279,381,qs)
);
}
);
userData = {
assembly = "NPUSHB[ ]	/* 46 values pushed */
6 1 2 5 1 76 6 1 5 0 2 1 5 2 103 0 4 4 0 95 0 0 0 33 77 3 1 1 1 34 1 78 13 13 13 21 13 20 37 17 17 21 32 7 8 27
CALL[ ]	/* CallFunction */";
};
width = 593;
}
);
note = R;
unicode = 82;
},
{
glyphname = S;
kernLeft = S;
kernRight = S;
layers = (
{
anchors = (
{
name = bottom;
pos = (289,0);
},
{
name = top;
pos = (289,700);
}
);
layerId = m01;
shapes = (
{
closed = 1;
nodes = (
(362,-12,o),
(470,34,o),
(533,122,o),
(533,183,qs),
(533,243,o),
(486,320,o),
(400,369,o),
(329,393,qs),
(252,419,o),
(185,449,o),
(155,491,o),
(155,528,qs),
(155,582,o),
(229,642,o),
(285,640,qs),
(345,640,o),
(422,571,o),
(422,518,q),
(510,518,l),
(508,609,o),
(384,712,o),
(288,712,qs),
(226,712,o),
(124,667,o),
(67,580,o),
(68,520,qs),
(68,452,o),
(147,370,o),
(227,342,qs),
(278,325,ls),
(347,302,o),
(411,272,o),
(446,222,o),
(446,178,qs),
(446,122,o),
(363,59,o),
(297,59,qs),
(223,59,o),
(132,141,o),
(132,210,q),
(44,210,l),
(44,141,o),
(110,40,o),
(225,-12,o),
(297,-12,qs)
);
}
);
userData = {
assembly = "NPUSHB[ ]	/* 51 values pushed */
0 3 4 0 4 3 0 128 0 0 1 4 0 1 126 0 4 4 2 97 0 2 2 39 77 0 1 1 5 97 6 1 5 5 40 5 78 0 0 0 44 0 43 34 18 45 34 19 7 8 27
CALL[ ]	/* CallFunction */";
};
width = 578;
}
);
note = S;
unicode = 83;
},
{
glyphname = Scedilla;
kernLeft = S;
kernRight = S;
layers = (
{
anchors = (
{
name = bottom;
pos = (289,-259);
},
{
name = top;
pos = (289,700);
}
);
layerId = m01;
shapes = (
{
closed = 1;
nodes = (
(324,-259,ls),
(378,-259,o),
(445,-205,o),
(445,-159,qs),
(445,-112,o),
(375,-62,o),
(316,-63,q),
(316,-11,l),
(410,-6,o),
(533,96,o),
(533,183,qs),
(533,243,o),
(486,320,o),
(400,369,o),
(329,393,qs),
(252,419,o),
(185,449,o),
(155,491,o),
(155,528,qs),
(155,582,o),
(229,642,o),
(285,640,qs),
(345,640,o),
(422,571,o),
(422,518,q),
(510,518,l),
(508,609,o),
(384,712,o),
(288,712,qs),
(226,712,o),
(124,667,o),
(67,580,o),
(68,520,qs),
(68,452,o),
(147,370,o),
(227,342,qs),
(278,325,ls),
(347,302,o),
(411,272,o),
(446,222,o),
(446,178,qs),
(446,122,o),
(363,59,o),
(297,59,qs),
(223,59,o),
(132,141,o),
(132,210,q),
(44,210,l),
(44,116,o),
(163,0,o),
(260,-10,q),
(260,-113,l),
(309,-113,ls),
(377,-113,o),
(377,-158,qs),
(377,-206,o),
(309,-206,qs),
(217,-206,l),
(217,-259,l)
);
}
);
userData = {
assembly = "NPUSHB[ ]	/* 71 values pushed */
7 1 8 7 1 76 0 5 6 2 6 5 2 128 0 2 3 6 2 3 126 0 8 0 1 0 8 1 105 0 0 0 9 0 9 99 0 6 6 4 97 0 4 4 39 77 0 3 3 7 97 0 7 7 40 7 78 58 56 17 28 34 18 45 34 20 34 32 10 8 31
CALL[ ]	/* CallFunction */";
};
width = 578;
}
);
note = Scedilla;
unicode = 350;
},
{
glyphname = uni1E9E;
layers = (
{
layerId = m01;
shapes = (
{
closed = 1;
nodes = (
(522,-10,o),
(626,74,o),
(626,150,qs),
(626,212,o),
(557,283,o),
(489,307,qs),
(436,325,o),
(375,357,o),
(375,386,qs),
(375,405,o),
(399,428,o),
(425,445,qs),
(467,469,o),
(516,523,o),
(516,569,qs),
(516,645,o),
(393,732,o),
(302,732,qs),
(197,732,o),
(71,621,o),
(71,520,qs),
(71,0,l),
(154,0,l),
(154,512,ls),
(154,580,o),
(223,661,o),
(300,661,qs),
(358,661,o),
(432,612,o),
(432,562,qs),
(432,537,o),
(407,501,o),
(383,486,qs),
(340,458,ls),
(317,443,o),
(290,404,o),
(290,375,qs),
(290,326,o),
(369,270,o),
(438,246,qs),
(489,230,o),
(541,186,o),
(541,144,qs),
(541,101,o),
(486,56,o),
(440,56,qs),
(386,56,o),
(325,120,o),
(321,169,q),
(238,169,l),
(245,85,o),
(356,-10,o),
(441,-10,qs)
);
}
);
userData = {
assembly = "MPPEM[ ]	/* MeasurePixelPerEm */
PUSHB[ ]	/* 1 value pushed */
25
LT[ ]	/* LessThan */
IF[ ]	/* If */
NPUSHB[ ]	/* 31 values pushed */
0 0 2 1 2 0 1 128 0 2 2 4 97 0 4 4 41 77 0 1 1 3 97 6 5 2 3 3 34 3 78
ELSE[ ]	/* Else */
MPPEM[ ]	/* MeasurePixelPerEm */
PUSHB[ ]	/* 1 value pushed */
39
LT[ ]	/* LessThan */
IF[ ]	/* If */
NPUSHB[ ]	/* 35 values pushed */
0 0 2 1 2 0 1 128 0 2 2 4 97 0 4 4 41 77 0 3 3 34 77 0 1 1 5 97 6 1 5 5 40 5 78
ELSE[ ]	/* Else */
NPUSHB[ ]	/* 33 values pushed */
0 0 2 1 2 0 1 128 0 4 0 2 0 4 2 105 0 3 3 34 77 0 1 1 5 97 6 1 5 5 40 5 78
EIF[ ]	/* EndIf */
EIF[ ]	/* EndIf */
NPUSHB[ ]	/* 17 values pushed */
0 0 0 52 0 51 35 33 30 29 26 24 34 18 7 8 24
CALL[ ]	/* CallFunction */";
};
width = 664;
}
);
note = uni1E9E;
unicode = 7838;
},
{
glyphname = T;
kernLeft = T;
kernRight = T;
layers = (
{
anchors = (
{
name = bottom;
pos = (280,0);
},
{
name = top;
pos = (280,700);
}
);
layerId = m01;
shapes = (
{
closed = 1;
nodes = (
(322,0,l),
(322,631,l),
(531,631,l),
(531,700,l),
(29,700,l),
(29,631,l),
(238,631,l),
(238,0,l)
);
}
);
userData = {
assembly = "NPUSHB[ ]	/* 24 values pushed */
2 1 0 0 1 95 0 1 1 33 77 0 3 3 34 3 78 17 17 17 16 4 8 26
CALL[ ]	/* CallFunction */";
};
width = 560;
}
);
note = T;
unicode = 84;
},
{
glyphname = uni0162;
kernLeft = T;
kernRight = T;
layers = (
{
anchors = (
{
name = bottom;
pos = (280,-259);
},
{
name = top;
pos = (280,700);
}
);
layerId = m01;
shapes = (
{
closed = 1;
nodes = (
(251,0,l),
(251,-113,l),
(300,-113,ls),
(368,-113,o),
(368,-158,qs),
(368,-206,o),
(300,-206,qs),
(208,-206,l),
(208,-259,l),
(315,-259,ls),
(369,-259,o),
(436,-205,o),
(436,-159,qs),
(436,-112,o),
(366,-62,o),
(307,-63,q),
(307,0,l),
(322,0,l),
(322,631,l),
(531,631,l),
(531,700,l),
(29,700,l),
(29,631,l),
(238,631,l),
(238,0,l)
);
}
);
userData = {
assembly = "NPUSHB[ ]	/* 45 values pushed */
0 4 0 7 6 4 7 105 0 6 0 5 6 5 99 2 1 0 0 1 95 0 1 1 33 77 8 1 3 3 34 3 78 17 34 33 36 17 17 17 17 16 9 8 31
CALL[ ]	/* CallFunction */";
};
width = 560;
}
);
note = uni0162;
unicode = 354;
},
{
glyphname = U;
kernLeft = U;
kernRight = U;
layers = (
{
anchors = (
{
name = bottom;
pos = (328,0);
},
{
name = ogonek;
pos = (403,10);
},
{
name = top;
pos = (328,700);
},
{
name = topright;
pos = (636,700);
}
);
layerId = m01;
shapes = (
{
closed = 1;
nodes = (
(395,-12,o),
(512,40,o),
(588,161,o),
(588,258,qs),
(588,700,l),
(504,700,l),
(504,257,ls),
(504,159,o),
(411,63,o),
(329,63,qs),
(247,63,o),
(152,159,o),
(152,257,qs),
(152,700,l),
(68,700,l),
(68,258,ls),
(68,183,o),
(123,61,o),
(239,-12,o),
(327,-12,qs)
);
}
);
userData = {
assembly = "NPUSHB[ ]	/* 30 values pushed */
2 1 0 0 33 77 0 1 1 3 97 4 1 3 3 40 3 78 0 0 0 19 0 18 19 35 20 5 8 25
CALL[ ]	/* CallFunction */";
};
width = 656;
}
);
note = U;
unicode = 85;
},
{
glyphname = Uogonek;
kernLeft = U;
kernRight = U;
layers = (
{
anchors = (
{
name = bottom;
pos = (328,0);
},
{
name = ogonek;
pos = (403,10);
},
{
name = top;
pos = (328,700);
},
{
name = topright;
pos = (636,700);
}
);
layerId = m01;
shapes = (
{
closed = 1;
nodes = (
(370,-193,o),
(406,-180,q),
(406,-124,l),
(372,-139,o),
(341,-139,qs),
(314,-139,o),
(281,-113,o),
(281,-90,qs),
(281,-49,o),
(345,-18,qs),
(361,-10,l),
(458,-1,o),
(588,128,o),
(588,258,qs),
(588,700,l),
(504,700,l),
(504,257,ls),
(504,159,o),
(411,63,o),
(329,63,qs),
(247,63,o),
(152,159,o),
(152,257,qs),
(152,700,l),
(68,700,l),
(68,258,ls),
(68,157,o),
(166,12,o),
(264,-7,q),
(213,-46,o),
(213,-98,qs),
(213,-145,o),
(281,-193,o),
(331,-193,qs)
);
}
);
userData = {
assembly = "NPUSHB[ ]	/* 47 values pushed */
30 4 2 3 1 31 1 4 3 2 76 0 1 0 3 0 1 3 128 0 3 5 1 4 3 4 102 2 1 0 0 33 0 78 0 0 0 33 0 32 41 19 35 24 6 8 26
CALL[ ]	/* CallFunction */";
};
width = 656;
}
);
note = Uogonek;
unicode = 370;
},
{
glyphname = V;
kernLeft = V;
kernRight = V;
layers = (
{
layerId = m01;
shapes = (
{
closed = 1;
nodes = (
(383,0,l),
(646,700,l),
(557,700,l),
(334,89,l),
(113,700,l),
(22,700,l),
(285,0,l)
);
}
);
userData = {
assembly = "NPUSHB[ ]	/* 24 values pushed */
2 1 2 0 1 76 1 1 0 0 33 77 0 2 2 34 2 78 17 18 16 3 8 25
CALL[ ]	/* CallFunction */";
};
width = 668;
}
);
note = V;
unicode = 86;
},
{
glyphname = W;
kernLeft = W;
kernRight = W;
layers = (
{
anchors = (
{
name = bottom;
pos = (493,0);
},
{
name = top;
pos = (493,700);
}
);
layerId = m01;
shapes = (
{
closed = 1;
nodes = (
(491,586,l),
(658,0,l),
(755,0,l),
(950,700,l),
(860,700,l),
(707,97,l),
(542,700,l),
(445,700,l),
(275,102,l),
(124,700,l),
(34,700,l),
(224,0,l),
(320,0,l)
);
}
);
userData = {
assembly = "NPUSHB[ ]	/* 36 values pushed */
11 6 3 3 3 0 1 76 2 1 2 0 0 33 77 5 4 2 3 3 34 3 78 0 0 0 12 0 12 17 18 18 17 6 8 26
CALL[ ]	/* CallFunction */";
};
width = 985;
}
);
note = W;
unicode = 87;
},
{
glyphname = X;
kernLeft = X;
kernRight = X;
layers = (
{
layerId = m01;
shapes = (
{
closed = 1;
nodes = (
(127,0,l),
(297,300,l),
(477,0,l),
(571,0,l),
(346,377,l),
(537,700,l),
(442,700,l),
(301,451,l),
(152,700,l),
(58,700,l),
(252,376,l),
(31,0,l)
);
}
);
userData = {
assembly = "NPUSHB[ ]	/* 28 values pushed */
9 6 3 3 2 0 1 76 1 1 0 0 33 77 3 1 2 2 34 2 78 18 18 18 17 4 8 26
CALL[ ]	/* CallFunction */";
};
width = 602;
}
);
note = X;
unicode = 88;
},
{
glyphname = Y;
kernLeft = Y;
kernRight = Y;
layers = (
{
anchors = (
{
name = bottom;
pos = (290,0);
},
{
name = top;
pos = (290,700);
}
);
layerId = m01;
shapes = (
{
closed = 1;
nodes = (
(332,0,l),
(332,266,l),
(559,700,l),
(465,700,l),
(290,346,l),
(115,700,l),
(20,700,l),
(248,266,l),
(248,0,l)
);
}
);
userData = {
assembly = "NPUSHB[ ]	/* 26 values pushed */
6 3 0 3 2 0 1 76 1 1 0 0 33 77 0 2 2 34 2 78 18 18 17 3 8 25
CALL[ ]	/* CallFunction */";
};
width = 579;
}
);
note = Y;
unicode = 89;
},
{
glyphname = Z;
kernRight = Z;
layers = (
{
anchors = (
{
name = bottom;
pos = (268,0);
},
{
name = top;
pos = (268,700);
}
);
layerId = m01;
shapes = (
{
closed = 1;
nodes = (
(491,0,l),
(491,73,l),
(141,73,l),
(487,634,l),
(487,700,l),
(49,700,l),
(49,627,l),
(389,627,l),
(44,66,l),
(44,0,l)
);
}
);
userData = {
assembly = "NPUSHB[ ]	/* 38 values pushed */
5 1 0 1 0 1 3 2 2 76 0 0 0 1 95 0 1 1 33 77 0 2 2 3 95 0 3 3 34 3 78 17 18 17 17 4 8 26
CALL[ ]	/* CallFunction */";
};
width = 535;
}
);
note = Z;
unicode = 90;
},
{
glyphname = uniA78B;
layers = (
{
layerId = m01;
shapes = (
{
closed = 1;
nodes = (
(146,229,l),
(156,700,l),
(65,700,l),
(75,229,l)
);
}
);
userData = {
assembly = "NPUSHB[ ]	/* 16 values pushed */
0 1 1 0 95 0 0 0 33 1 78 17 16 2 8 24
CALL[ ]	/* CallFunction */";
};
width = 221;
}
);
note = uniA78B;
unicode = 42891;
},
{
glyphname = a;
kernLeft = a;
kernRight = a;
layers = (
{
anchors = (
{
name = bottom;
pos = (247,0);
},
{
name = ogonek;
pos = (539,0);
},
{
name = top;
pos = (275,496);
}
);
layerId = m01;
shapes = (
{
closed = 1;
nodes = (
(290,-12,o),
(379,41,o),
(404,84,q),
(408,0,l),
(484,0,l),
(484,305,ls),
(484,396,o),
(382,508,o),
(275,508,qs),
(221,508,o),
(126,468,o),
(64,393,o),
(60,341,q),
(146,341,l),
(155,388,o),
(224,437,o),
(275,437,qs),
(330,437,o),
(400,371,o),
(400,299,q),
(266,299,ls),
(172,299,o),
(50,222,o),
(50,141,qs),
(50,68,o),
(152,-12,o),
(232,-12,qs)
);
},
{
closed = 1;
nodes = (
(199,59,o),
(138,102,o),
(138,145,qs),
(138,193,o),
(213,234,o),
(273,234,qs),
(400,234,l),
(400,233,ls),
(400,189,o),
(364,109,o),
(294,59,o),
(247,59,qs)
);
}
);
userData = {
assembly = "PUSHB[ ]	/* 6 values pushed */
23 1 7 6 1 76
MPPEM[ ]	/* MeasurePixelPerEm */
PUSHB[ ]	/* 1 value pushed */
21
LT[ ]	/* LessThan */
IF[ ]	/* If */
NPUSHB[ ]	/* 40 values pushed */
0 2 1 0 1 2 0 128 0 0 0 6 7 0 6 103 0 1 1 3 97 0 3 3 42 77 9 1 7 7 4 97 8 5 2 4 4 34 4 78
ELSE[ ]	/* Else */
NPUSHB[ ]	/* 44 values pushed */
0 2 1 0 1 2 0 128 0 0 0 6 7 0 6 103 0 1 1 3 97 0 3 3 42 77 0 4 4 34 77 9 1 7 7 5 97 8 1 5 5 40 5 78
EIF[ ]	/* EndIf */
NPUSHB[ ]	/* 22 values pushed */
27 27 0 0 27 38 27 37 33 30 0 26 0 25 19 35 18 34 36 10 8 27
CALL[ ]	/* CallFunction */";
};
width = 543;
}
);
note = a;
unicode = 97;
},
{
glyphname = aogonek;
kernLeft = a;
kernRight = aacute;
layers = (
{
anchors = (
{
name = bottom;
pos = (247,0);
},
{
name = ogonek;
pos = (539,0);
},
{
name = top;
pos = (275,496);
}
);
layerId = m01;
shapes = (
{
closed = 1;
nodes = (
(290,-12,o),
(379,41,o),
(404,84,q),
(408,0,l),
(425,0,l),
(349,-45,o),
(349,-108,qs),
(349,-155,o),
(417,-203,o),
(467,-203,qs),
(506,-203,o),
(542,-190,q),
(542,-134,l),
(508,-149,o),
(477,-149,qs),
(450,-149,o),
(417,-123,o),
(417,-100,qs),
(417,-59,o),
(481,-28,qs),
(539,0,l),
(518,43,l),
(484,28,l),
(484,305,ls),
(484,396,o),
(382,508,o),
(275,508,qs),
(221,508,o),
(126,468,o),
(64,393,o),
(60,341,q),
(146,341,l),
(155,388,o),
(224,437,o),
(275,437,qs),
(330,437,o),
(400,371,o),
(400,299,q),
(266,299,ls),
(172,299,o),
(50,222,o),
(50,141,qs),
(50,68,o),
(152,-12,o),
(232,-12,qs)
);
},
{
closed = 1;
nodes = (
(199,59,o),
(138,102,o),
(138,145,qs),
(138,193,o),
(213,234,o),
(273,234,qs),
(400,234,l),
(400,233,ls),
(400,189,o),
(364,109,o),
(294,59,o),
(247,59,qs)
);
}
);
userData = {
assembly = "MPPEM[ ]	/* MeasurePixelPerEm */
PUSHB[ ]	/* 1 value pushed */
21
LT[ ]	/* LessThan */
IF[ ]	/* If */
NPUSHB[ ]	/* 24 values pushed */
41 1 9 8 22 21 2 6 9 31 1 4 6 32 1 5 4 4 76 23 1 6 1 75
ELSE[ ]	/* Else */
NPUSHB[ ]	/* 24 values pushed */
41 1 9 8 22 21 2 6 9 31 1 4 7 32 1 5 4 4 76 23 1 6 1 75
EIF[ ]	/* EndIf */
MPPEM[ ]	/* MeasurePixelPerEm */
PUSHB[ ]	/* 1 value pushed */
21
LT[ ]	/* LessThan */
IF[ ]	/* If */
NPUSHB[ ]	/* 50 values pushed */
0 2 1 0 1 2 0 128 0 0 0 8 9 0 8 103 0 1 1 3 97 0 3 3 42 77 11 1 9 9 6 97 10 7 2 6 6 34 77 0 4 4 5 97 0 5 5 38 5 78
ELSE[ ]	/* Else */
MPPEM[ ]	/* MeasurePixelPerEm */
PUSHB[ ]	/* 1 value pushed */
29
LT[ ]	/* LessThan */
IF[ ]	/* If */
NPUSHB[ ]	/* 54 values pushed */
0 2 1 0 1 2 0 128 0 0 0 8 9 0 8 103 0 1 1 3 97 0 3 3 42 77 0 6 6 34 77 11 1 9 9 7 97 10 1 7 7 40 77 0 4 4 5 97 0 5 5 38 5 78
ELSE[ ]	/* Else */
NPUSHB[ ]	/* 51 values pushed */
0 2 1 0 1 2 0 128 0 0 0 8 9 0 8 103 0 4 0 5 4 5 101 0 1 1 3 97 0 3 3 42 77 0 6 6 34 77 11 1 9 9 7 97 10 1 7 7 40 7 78
EIF[ ]	/* EndIf */
EIF[ ]	/* EndIf */
NPUSHB[ ]	/* 24 values pushed */
45 45 0 0 45 56 45 55 51 48 0 44 0 43 20 35 42 35 18 34 36 12 8 29
CALL[ ]	/* CallFunction */";
};
width = 543;
}
);
note = aogonek;
unicode = 261;
},
{
glyphname = ae;
kernLeft = a;
kernRight = ae;
layers = (
{
anchors = (
{
name = bottom;
pos = (457,0);
},
{
name = top;
pos = (457,496);
}
);
layerId = m01;
shapes = (
{
closed = 1;
nodes = (
(305,-12,o),
(405,52,o),
(436,106,q),
(467,51,o),
(575,-12,o),
(641,-12,qs),
(722,-12,o),
(837,77,o),
(859,148,q),
(776,148,l),
(739,59,o),
(640,59,qs),
(598,59,o),
(528,102,o),
(486,181,o),
(484,232,q),
(869,232,l),
(871,278,ls),
(871,341,o),
(814,446,o),
(710,508,o),
(642,508,qs),
(584,508,o),
(487,461,o),
(455,417,q),
(431,460,o),
(339,508,o),
(277,508,qs),
(227,508,o),
(136,470,o),
(74,394,o),
(68,341,q),
(155,341,l),
(163,387,o),
(230,437,o),
(277,437,qs),
(332,437,o),
(399,366,o),
(399,297,q),
(261,297,ls),
(163,297,o),
(50,216,o),
(50,141,qs),
(50,70,o),
(153,-12,o),
(237,-12,qs)
);
},
{
closed = 1;
nodes = (
(195,59,o),
(138,107,o),
(138,146,qs),
(138,232,o),
(269,232,qs),
(398,232,l),
(398,212,l),
(394,171,o),
(350,101,o),
(282,59,o),
(243,59,qs)
);
},
{
closed = 1;
nodes = (
(485,297,l),
(493,363,o),
(582,437,o),
(642,437,qs),
(702,437,o),
(784,361,o),
(788,297,q)
);
}
);
userData = {
assembly = "NPUSHB[ ]	/* 97 values pushed */
20 1 2 1 49 1 7 5 42 1 6 7 3 76 0 2 1 0 1 2 0 128 0 7 5 6 5 7 6 128 13 1 0 10 1 5 7 0 5 103 12 1 1 1 3 97 4 1 3 3 42 77 15 11 2 6 6 8 97 14 9 2 8 8 40 8 78 46 46 0 0 63 62 60 58 46 56 46 55 52 50 0 45 0 44 34 17 35 20 36 35 18 34 36 16 8 31
CALL[ ]	/* CallFunction */";
};
width = 913;
}
);
note = ae;
unicode = 230;
},
{
glyphname = b;
kernLeft = b;
kernRight = b;
layers = (
{
layerId = m01;
shapes = (
{
closed = 1;
nodes = (
(408,-12,o),
(519,55,o),
(580,173,o),
(580,247,qs),
(580,322,o),
(520,441,o),
(409,508,o),
(335,508,qs),
(271,508,o),
(180,455,o),
(153,414,q),
(153,700,l),
(69,700,l),
(69,0,l),
(145,0,l),
(153,83,l),
(178,38,o),
(273,-12,o),
(334,-12,qs)
);
},
{
closed = 1;
nodes = (
(274,61,o),
(197,110,o),
(155,195,o),
(155,248,qs),
(155,331,o),
(249,435,o),
(325,435,qs),
(403,435,o),
(495,329,o),
(495,248,qs),
(495,165,o),
(401,61,o),
(325,61,qs)
);
}
);
userData = {
assembly = "PUSHB[ ]	/* 7 values pushed */
7 2 2 5 4 1 76
MPPEM[ ]	/* MeasurePixelPerEm */
PUSHB[ ]	/* 1 value pushed */
21
LT[ ]	/* LessThan */
IF[ ]	/* If */
NPUSHB[ ]	/* 29 values pushed */
0 1 1 33 77 0 4 4 2 97 0 2 2 42 77 7 1 5 5 0 97 6 3 2 0 0 34 0 78
ELSE[ ]	/* Else */
NPUSHB[ ]	/* 33 values pushed */
0 1 1 33 77 0 4 4 2 97 0 2 2 42 77 0 0 0 34 77 7 1 5 5 3 97 6 1 3 3 40 3 78
EIF[ ]	/* EndIf */
NPUSHB[ ]	/* 20 values pushed */
19 19 0 0 19 31 19 30 25 23 0 18 0 17 35 17 19 8 8 25
CALL[ ]	/* CallFunction */";
};
width = 628;
}
);
note = b;
unicode = 98;
},
{
glyphname = c;
kernLeft = c;
kernRight = c;
layers = (
{
anchors = (
{
name = bottom;
pos = (296,0);
},
{
name = top;
pos = (293,496);
}
);
layerId = m01;
shapes = (
{
closed = 1;
nodes = (
(384,-12,o),
(507,81,o),
(522,157,q),
(436,157,l),
(426,111,o),
(349,59,o),
(296,59,qs),
(249,59,o),
(176,107,o),
(134,193,o),
(134,248,qs),
(134,299,o),
(172,385,o),
(245,436,o),
(296,436,qs),
(349,436,o),
(426,384,o),
(436,339,q),
(522,339,l),
(506,416,o),
(385,508,o),
(297,508,qs),
(225,508,o),
(111,442,o),
(48,324,o),
(48,248,qs),
(48,171,o),
(113,53,o),
(227,-12,o),
(297,-12,qs)
);
}
);
userData = {
assembly = "NPUSHB[ ]	/* 51 values pushed */
0 1 2 4 2 1 4 128 0 4 3 2 4 3 126 0 2 2 0 97 0 0 0 42 77 0 3 3 5 97 6 1 5 5 40 5 78 0 0 0 29 0 28 18 38 34 18 38 7 8 27
CALL[ ]	/* CallFunction */";
};
width = 570;
}
);
note = c;
unicode = 99;
},
{
glyphname = ccedilla;
layers = (
{
anchors = (
{
name = bottom;
pos = (296,-259);
},
{
name = top;
pos = (293,496);
}
);
layerId = m01;
shapes = (
{
closed = 1;
nodes = (
(329,-259,ls),
(383,-259,o),
(450,-205,o),
(450,-159,qs),
(450,-112,o),
(380,-62,o),
(321,-63,q),
(321,-11,l),
(399,-4,o),
(508,87,o),
(522,157,q),
(436,157,l),
(426,111,o),
(349,59,o),
(296,59,qs),
(249,59,o),
(176,107,o),
(134,193,o),
(134,248,qs),
(134,299,o),
(172,385,o),
(245,436,o),
(296,436,qs),
(349,436,o),
(426,384,o),
(436,339,q),
(522,339,l),
(506,416,o),
(385,508,o),
(297,508,qs),
(225,508,o),
(111,442,o),
(48,324,o),
(48,248,qs),
(48,177,o),
(104,65,o),
(203,-3,o),
(265,-10,q),
(265,-113,l),
(314,-113,ls),
(382,-113,o),
(382,-158,qs),
(382,-206,o),
(314,-206,qs),
(222,-206,l),
(222,-259,l)
);
}
);
userData = {
assembly = "PUSHB[ ]	/* 7 values pushed */
37 7 2 7 5 1 76
MPPEM[ ]	/* MeasurePixelPerEm */
PUSHB[ ]	/* 1 value pushed */
11
LT[ ]	/* LessThan */
IF[ ]	/* If */
NPUSHB[ ]	/* 47 values pushed */
0 3 4 6 4 3 6 128 0 6 5 4 6 5 126 0 5 7 7 5 112 0 7 0 1 0 7 1 106 0 0 0 8 0 8 99 0 4 4 2 97 0 2 2 42 4 78
ELSE[ ]	/* Else */
NPUSHB[ ]	/* 48 values pushed */
0 3 4 6 4 3 6 128 0 6 5 4 6 5 126 0 5 7 4 5 7 126 0 7 0 1 0 7 1 106 0 0 0 8 0 8 99 0 4 4 2 97 0 2 2 42 4 78
EIF[ ]	/* EndIf */
NPUSHB[ ]	/* 12 values pushed */
36 20 18 38 34 18 40 34 32 9 8 31
CALL[ ]	/* CallFunction */";
};
width = 570;
}
);
note = ccedilla;
unicode = 231;
},
{
glyphname = d;
kernLeft = c;
layers = (
{
anchors = (
{
name = bottom;
pos = (314,0);
},
{
name = top;
pos = (314,992);
},
{
name = topright;
pos = (608,992);
}
);
layerId = m01;
shapes = (
{
closed = 1;
nodes = (
(357,-12,o),
(449,41,o),
(476,82,q),
(484,0,l),
(560,0,l),
(560,700,l),
(476,700,l),
(476,413,l),
(450,458,o),
(355,508,o),
(295,508,qs),
(219,508,o),
(107,440,o),
(48,322,o),
(48,249,qs),
(48,176,o),
(108,57,o),
(220,-12,o),
(294,-12,qs)
);
},
{
closed = 1;
nodes = (
(257,61,o),
(179,106,o),
(134,191,o),
(134,248,qs),
(134,304,o),
(178,389,o),
(255,435,o),
(303,435,qs),
(382,435,o),
(473,330,o),
(473,248,qs),
(473,167,o),
(383,61,o),
(303,61,qs)
);
}
);
userData = {
assembly = "PUSHB[ ]	/* 7 values pushed */
15 10 2 5 4 1 76
MPPEM[ ]	/* MeasurePixelPerEm */
PUSHB[ ]	/* 1 value pushed */
21
LT[ ]	/* LessThan */
IF[ ]	/* If */
NPUSHB[ ]	/* 29 values pushed */
0 1 1 33 77 0 4 4 0 97 0 0 0 42 77 7 1 5 5 2 97 6 3 2 2 2 34 2 78
ELSE[ ]	/* Else */
NPUSHB[ ]	/* 33 values pushed */
0 1 1 33 77 0 4 4 0 97 0 0 0 42 77 0 2 2 34 77 7 1 5 5 3 97 6 1 3 3 40 3 78
EIF[ ]	/* EndIf */
NPUSHB[ ]	/* 20 values pushed */
19 19 0 0 19 32 19 31 25 23 0 18 0 17 17 19 38 8 8 25
CALL[ ]	/* CallFunction */";
};
width = 628;
}
);
note = d;
unicode = 100;
},
{
glyphname = dcroat;
kernLeft = c;
layers = (
{
layerId = m01;
shapes = (
{
closed = 1;
nodes = (
(357,-12,o),
(449,41,o),
(476,82,q),
(484,0,l),
(560,0,l),
(560,571,l),
(607,571,l),
(607,634,l),
(560,634,l),
(560,700,l),
(476,700,l),
(476,634,l),
(305,634,l),
(305,571,l),
(476,571,l),
(476,413,l),
(450,458,o),
(355,508,o),
(295,508,qs),
(219,508,o),
(107,440,o),
(48,322,o),
(48,249,qs),
(48,176,o),
(108,57,o),
(220,-12,o),
(294,-12,qs)
);
},
{
closed = 1;
nodes = (
(134,304,o),
(178,389,o),
(255,435,o),
(303,435,qs),
(382,435,o),
(473,330,o),
(473,248,qs),
(473,167,o),
(383,61,o),
(303,61,qs),
(257,61,o),
(179,106,o),
(134,191,o),
(134,248,qs)
);
}
);
userData = {
assembly = "PUSHB[ ]	/* 7 values pushed */
23 10 2 8 9 1 76
MPPEM[ ]	/* MeasurePixelPerEm */
PUSHB[ ]	/* 1 value pushed */
21
LT[ ]	/* LessThan */
IF[ ]	/* If */
NPUSHB[ ]	/* 38 values pushed */
4 1 2 5 1 1 0 2 1 103 0 3 3 33 77 0 9 9 0 97 0 0 0 42 77 0 8 8 6 97 10 7 2 6 6 34 6 78
ELSE[ ]	/* Else */
NPUSHB[ ]	/* 42 values pushed */
4 1 2 5 1 1 0 2 1 103 0 3 3 33 77 0 9 9 0 97 0 0 0 42 77 0 6 6 34 77 0 8 8 7 97 10 1 7 7 40 7 78
EIF[ ]	/* EndIf */
NPUSHB[ ]	/* 20 values pushed */
0 0 37 35 31 29 0 26 0 25 17 17 17 17 17 19 38 11 8 29
CALL[ ]	/* CallFunction */";
};
width = 629;
}
);
note = dcroat;
unicode = 273;
},
{
glyphname = eth;
kernLeft = c;
layers = (
{
layerId = m01;
shapes = (
{
closed = 1;
nodes = (
(386,-12,o),
(447,24,qs),
(508,61,o),
(578,190,o),
(578,272,qs),
(578,468,o),
(449,619,q),
(539,651,l),
(539,708,l),
(408,663,l),
(387,684,o),
(367,700,q),
(283,700,l),
(320,669,o),
(347,641,q),
(252,608,l),
(252,551,l),
(386,598,l),
(451,518,o),
(483,429,q),
(451,469,o),
(357,507,o),
(305,507,qs),
(234,507,o),
(175,474,qs),
(116,440,o),
(48,321,o),
(48,247,qs),
(48,175,o),
(82,117,qs),
(117,57,o),
(235,-12,o),
(311,-12,qs)
);
},
{
closed = 1;
nodes = (
(266,59,o),
(184,105,o),
(134,191,o),
(134,248,qs),
(134,299,o),
(179,385,o),
(260,436,o),
(313,436,qs),
(359,436,o),
(442,391,o),
(492,305,o),
(492,248,qs),
(492,197,o),
(447,111,o),
(366,59,o),
(313,59,qs)
);
}
);
userData = {
assembly = "NPUSHB[ ]	/* 67 values pushed */
25 24 22 17 16 15 14 7 0 1 12 1 4 3 2 76 23 1 1 74 0 1 1 33 77 0 3 3 0 97 0 0 0 42 77 6 1 4 4 2 97 5 1 2 2 40 2 78 33 33 0 0 33 48 33 47 41 39 0 32 0 31 25 40 7 8 24
CALL[ ]	/* CallFunction */";
};
width = 626;
}
);
note = eth;
unicode = 240;
},
{
glyphname = e;
kernLeft = c;
kernRight = ae;
layers = (
{
anchors = (
{
name = bottom;
pos = (292,0);
},
{
name = ogonek;
pos = (397,10);
},
{
name = top;
pos = (289,496);
}
);
layerId = m01;
shapes = (
{
closed = 1;
nodes = (
(377,-12,o),
(492,76,o),
(513,148,q),
(430,148,l),
(414,106,o),
(343,59,o),
(292,59,qs),
(224,59,o),
(135,155,o),
(131,229,q),
(526,229,l),
(527,276,ls),
(527,341,o),
(468,447,o),
(362,508,o),
(294,508,qs),
(221,508,o),
(109,443,o),
(48,325,o),
(48,248,qs),
(48,170,o),
(112,52,o),
(223,-12,o),
(292,-12,qs)
);
},
{
closed = 1;
nodes = (
(132,294,l),
(139,361,o),
(229,437,o),
(292,437,qs),
(356,437,o),
(441,360,o),
(444,294,q)
);
}
);
userData = {
assembly = "NPUSHB[ ]	/* 55 values pushed */
0 3 1 2 1 3 2 128 0 6 0 1 3 6 1 103 0 5 5 0 97 0 0 0 42 77 0 2 2 4 97 7 1 4 4 40 4 78 0 0 30 29 27 25 0 23 0 22 18 34 20 38 8 8 26
CALL[ ]	/* CallFunction */";
};
width = 569;
}
);
note = e;
unicode = 101;
},
{
glyphname = eogonek;
kernLeft = c;
kernRight = ae;
layers = (
{
anchors = (
{
name = bottom;
pos = (292,0);
},
{
name = ogonek;
pos = (397,10);
},
{
name = top;
pos = (289,496);
}
);
layerId = m01;
shapes = (
{
closed = 1;
nodes = (
(132,294,l),
(139,361,o),
(229,437,o),
(292,437,qs),
(356,437,o),
(441,360,o),
(444,294,q)
);
},
{
closed = 1;
nodes = (
(364,-193,o),
(400,-180,q),
(400,-124,l),
(366,-139,o),
(335,-139,qs),
(308,-139,o),
(275,-113,o),
(275,-90,qs),
(275,-49,o),
(339,-18,qs),
(392,7,ls),
(437,27,o),
(499,100,o),
(513,148,q),
(430,148,l),
(414,106,o),
(343,59,o),
(292,59,qs),
(224,59,o),
(135,155,o),
(131,229,q),
(526,229,l),
(527,276,ls),
(527,341,o),
(468,447,o),
(362,508,o),
(294,508,qs),
(221,508,o),
(109,443,o),
(48,325,o),
(48,248,qs),
(48,177,o),
(101,67,o),
(195,-1,o),
(255,-9,q),
(207,-47,o),
(207,-98,qs),
(207,-145,o),
(275,-193,o),
(325,-193,qs)
);
}
);
userData = {
assembly = "NPUSHB[ ]	/* 69 values pushed */
43 11 2 6 4 44 1 7 6 2 76 0 5 3 4 3 5 4 128 0 4 6 3 4 6 126 0 1 0 3 5 1 3 103 0 6 8 1 7 6 7 102 0 0 0 2 97 0 2 2 42 0 78 7 7 7 46 7 45 40 18 34 20 44 18 33 9 8 29
CALL[ ]	/* CallFunction */";
};
width = 569;
}
);
note = eogonek;
unicode = 281;
},
{
glyphname = uni0259;
kernLeft = c;
kernRight = b;
layers = (
{
layerId = m01;
shapes = (
{
closed = 1;
nodes = (
(347,-12,o),
(459,54,o),
(521,172,o),
(521,248,qs),
(521,323,o),
(461,441,o),
(350,508,o),
(277,508,qs),
(192,508,o),
(77,420,o),
(56,348,q),
(139,348,l),
(155,390,o),
(226,437,o),
(277,437,qs),
(345,437,o),
(434,343,o),
(438,267,q),
(43,267,l),
(42,220,ls),
(42,155,o),
(101,49,o),
(207,-12,o),
(275,-12,qs)
);
},
{
closed = 1;
nodes = (
(213,59,o),
(128,136,o),
(125,202,q),
(437,202,l),
(430,135,o),
(340,59,o),
(277,59,qs)
);
}
);
userData = {
assembly = "NPUSHB[ ]	/* 60 values pushed */
0 2 1 0 1 2 0 128 0 0 0 5 6 0 5 103 0 1 1 3 97 0 3 3 42 77 8 1 6 6 4 97 7 1 4 4 40 4 78 24 24 0 0 24 30 24 29 27 26 0 23 0 22 34 18 34 20 9 8 26
CALL[ ]	/* CallFunction */";
};
width = 569;
}
);
note = uni0259;
unicode = 601;
},
{
glyphname = f;
kernLeft = f;
kernRight = f;
layers = (
{
layerId = m01;
shapes = (
{
closed = 1;
nodes = (
(180,0,l),
(180,425,l),
(302,425,l),
(302,496,l),
(180,496,l),
(180,560,ls),
(180,597,o),
(212,628,o),
(250,628,qs),
(287,628,l),
(287,700,l),
(237,700,ls),
(167,700,o),
(96,633,o),
(96,562,qs),
(96,496,l),
(21,496,l),
(21,425,l),
(96,425,l),
(96,0,l)
);
}
);
userData = {
assembly = "NPUSHB[ ]	/* 38 values pushed */
0 3 3 2 97 0 2 2 33 77 5 1 0 0 1 95 4 1 1 1 36 77 0 6 6 34 6 78 17 17 19 33 35 17 16 7 8 29
CALL[ ]	/* CallFunction */";
};
width = 333;
}
);
note = f;
unicode = 102;
},
{
glyphname = g;
kernLeft = g;
kernRight = g;
layers = (
{
anchors = (
{
name = bottom;
pos = (264,-310);
},
{
name = top;
pos = (254,496);
}
);
layerId = m01;
shapes = (
{
closed = 1;
nodes = (
(326,-232,o),
(428,-193,o),
(490,-116,o),
(490,-61,qs),
(490,89,o),
(299,89,qs),
(216,89,ls),
(132,89,o),
(132,139,qs),
(132,152,o),
(146,173,o),
(158,179,q),
(204,156,o),
(255,156,qs),
(340,156,o),
(452,249,o),
(452,332,qs),
(452,384,o),
(426,425,q),
(503,425,l),
(503,496,l),
(334,496,l),
(297,508,o),
(255,508,qs),
(168,508,o),
(58,413,o),
(58,332,qs),
(58,265,o),
(101,217,q),
(47,180,o),
(47,120,qs),
(47,94,o),
(76,51,o),
(101,37,q),
(32,6,o),
(32,-72,qs),
(32,-155,o),
(166,-232,o),
(266,-232,qs)
);
},
{
closed = 1;
nodes = (
(198,-162,o),
(114,-118,o),
(114,-71,qs),
(114,-29,o),
(169,15,o),
(219,15,qs),
(304,15,ls),
(408,15,o),
(408,-71,qs),
(408,-115,o),
(327,-162,o),
(264,-162,qs)
);
},
{
closed = 1;
nodes = (
(200,226,o),
(138,285,o),
(138,332,qs),
(138,378,o),
(201,438,o),
(253,438,qs),
(305,438,o),
(371,378,o),
(371,332,qs),
(371,286,o),
(305,226,o),
(253,226,qs)
);
}
);
userData = {
assembly = "NPUSHB[ ]	/* 11 values pushed */
26 9 2 3 9 4 1 6 4 2 76
MPPEM[ ]	/* MeasurePixelPerEm */
PUSHB[ ]	/* 1 value pushed */
19
LT[ ]	/* LessThan */
IF[ ]	/* If */
NPUSHB[ ]	/* 44 values pushed */
12 1 9 0 3 4 9 3 105 8 1 2 2 0 97 1 1 0 0 42 77 0 4 4 6 95 0 6 6 34 77 11 1 7 7 5 97 10 1 5 5 38 5 78
ELSE[ ]	/* Else */
MPPEM[ ]	/* MeasurePixelPerEm */
PUSHB[ ]	/* 1 value pushed */
21
LT[ ]	/* LessThan */
IF[ ]	/* If */
NPUSHB[ ]	/* 54 values pushed */
12 1 9 0 3 4 9 3 105 0 8 8 0 97 1 1 0 0 42 77 0 2 2 0 97 1 1 0 0 42 77 0 4 4 6 95 0 6 6 34 77 11 1 7 7 5 97 10 1 5 5 38 5 78
ELSE[ ]	/* Else */
MPPEM[ ]	/* MeasurePixelPerEm */
PUSHB[ ]	/* 1 value pushed */
33
LT[ ]	/* LessThan */
IF[ ]	/* If */
NPUSHB[ ]	/* 52 values pushed */
12 1 9 0 3 4 9 3 105 0 8 8 0 97 0 0 0 42 77 0 2 2 1 95 0 1 1 36 77 0 4 4 6 95 0 6 6 34 77 11 1 7 7 5 97 10 1 5 5 38 5 78
ELSE[ ]	/* Else */
MPPEM[ ]	/* MeasurePixelPerEm */
PUSHB[ ]	/* 1 value pushed */
41
LT[ ]	/* LessThan */
IF[ ]	/* If */
NPUSHB[ ]	/* 50 values pushed */
12 1 9 0 3 4 9 3 105 0 4 0 6 7 4 6 103 0 8 8 0 97 0 0 0 42 77 0 2 2 1 95 0 1 1 36 77 11 1 7 7 5 97 10 1 5 5 38 5 78
ELSE[ ]	/* Else */
NPUSHB[ ]	/* 47 values pushed */
12 1 9 0 3 4 9 3 105 0 4 0 6 7 4 6 103 11 1 7 10 1 5 7 5 101 0 8 8 0 97 0 0 0 42 77 0 2 2 1 95 0 1 1 36 2 78
EIF[ ]	/* EndIf */
EIF[ ]	/* EndIf */
EIF[ ]	/* EndIf */
EIF[ ]	/* EndIf */
NPUSHB[ ]	/* 30 values pushed */
51 51 39 39 0 0 51 62 51 61 57 55 39 50 39 49 45 42 0 38 0 37 53 36 17 17 45 13 8 27
CALL[ ]	/* CallFunction */";
};
width = 529;
}
);
note = g;
unicode = 103;
},
{
glyphname = h;
kernLeft = b;
kernRight = a;
layers = (
{
layerId = m01;
shapes = (
{
closed = 1;
nodes = (
(153,0,l),
(153,257,ls),
(153,341,o),
(239,436,o),
(306,436,qs),
(431,436,o),
(431,281,qs),
(431,0,l),
(514,0,l),
(514,290,ls),
(514,398,o),
(413,508,o),
(324,508,qs),
(270,508,o),
(178,456,o),
(153,411,q),
(153,700,l),
(69,700,l),
(69,0,l)
);
}
);
userData = {
assembly = "NPUSHB[ ]	/* 36 values pushed */
2 1 2 3 1 76 0 0 0 33 77 0 3 3 1 97 0 1 1 42 77 4 1 2 2 34 2 78 19 34 19 35 16 5 8 27
CALL[ ]	/* CallFunction */";
};
width = 572;
}
);
note = h;
unicode = 104;
},
{
glyphname = hbar;
layers = (
{
layerId = m01;
shapes = (
{
closed = 1;
nodes = (
(153,0,l),
(153,257,ls),
(153,341,o),
(239,436,o),
(306,436,qs),
(431,436,o),
(431,281,qs),
(431,0,l),
(514,0,l),
(514,290,ls),
(514,398,o),
(413,508,o),
(324,508,qs),
(270,508,o),
(178,456,o),
(153,411,q),
(153,571,l),
(324,571,l),
(324,634,l),
(153,634,l),
(153,700,l),
(69,700,l),
(69,634,l),
(22,634,l),
(22,571,l),
(69,571,l),
(69,0,l)
);
}
);
userData = {
assembly = "NPUSHB[ ]	/* 50 values pushed */
10 1 6 7 1 76 3 1 1 4 1 0 5 1 0 103 0 2 2 33 77 0 7 7 5 97 0 5 5 42 77 8 1 6 6 34 6 78 19 34 19 35 17 17 17 17 16 9 8 31
CALL[ ]	/* CallFunction */";
};
width = 572;
}
);
note = hbar;
unicode = 295;
},
{
glyphname = i;
kernLeft = i;
layers = (
{
anchors = (
{
name = bottom;
pos = (120,0);
}
);
layerId = m01;
shapes = (
{
closed = 1;
nodes = (
(144,606,o),
(178,639,o),
(178,664,qs),
(178,688,o),
(144,720,o),
(120,720,qs),
(95,720,o),
(62,688,o),
(62,664,qs),
(62,639,o),
(95,606,o),
(120,606,qs)
);
},
{
closed = 1;
nodes = (
(162,0,l),
(162,496,l),
(78,496,l),
(78,0,l)
);
}
);
userData = {
assembly = "MPPEM[ ]	/* MeasurePixelPerEm */
PUSHB[ ]	/* 1 value pushed */
39
LT[ ]	/* LessThan */
IF[ ]	/* If */
NPUSHB[ ]	/* 22 values pushed */
4 1 1 1 0 97 0 0 0 41 77 0 2 2 36 77 0 3 3 34 3 78
ELSE[ ]	/* Else */
NPUSHB[ ]	/* 22 values pushed */
4 1 1 1 0 97 0 0 0 39 77 0 2 2 36 77 0 3 3 34 3 78
EIF[ ]	/* EndIf */
NPUSHB[ ]	/* 14 values pushed */
0 0 15 14 13 12 0 11 0 10 36 5 8 23
CALL[ ]	/* CallFunction */";
};
width = 239;
}
);
note = i;
unicode = 105;
},
{
glyphname = dotlessi;
kernLeft = dotlessi;
layers = (
{
anchors = (
{
name = bottom;
pos = (111,0);
},
{
name = ogonek;
pos = (153,0);
},
{
name = top;
pos = (111,496);
}
);
layerId = m01;
shapes = (
{
closed = 1;
nodes = (
(153,0,l),
(153,496,l),
(69,496,l),
(69,0,l)
);
}
);
userData = {
assembly = "NPUSHB[ ]	/* 16 values pushed */
0 0 0 36 77 0 1 1 34 1 78 17 16 2 8 24
CALL[ ]	/* CallFunction */";
};
width = 222;
}
);
note = dotlessi;
unicode = 305;
},
{
glyphname = iogonek;
kernLeft = dotlessi;
layers = (
{
anchors = (
{
name = bottom;
pos = (111,0);
},
{
name = ogonek;
pos = (153,0);
},
{
name = top;
pos = (111,720);
}
);
layerId = m01;
shapes = (
{
closed = 1;
nodes = (
(135,606,o),
(169,639,o),
(169,664,qs),
(169,688,o),
(135,720,o),
(111,720,qs),
(86,720,o),
(53,688,o),
(53,664,qs),
(53,639,o),
(86,606,o),
(111,606,qs)
);
},
{
closed = 1;
nodes = (
(120,-203,o),
(156,-190,q),
(156,-134,l),
(122,-149,o),
(91,-149,qs),
(64,-149,o),
(31,-123,o),
(31,-100,qs),
(31,-59,o),
(95,-28,qs),
(153,0,l),
(153,496,l),
(69,496,l),
(69,15,l),
(-37,-33,o),
(-37,-108,qs),
(-37,-155,o),
(31,-203,o),
(81,-203,qs)
);
}
);
userData = {
assembly = "NPUSHB[ ]	/* 12 values pushed */
27 19 16 3 3 2 28 1 4 3 2 76
MPPEM[ ]	/* MeasurePixelPerEm */
PUSHB[ ]	/* 1 value pushed */
29
LT[ ]	/* LessThan */
IF[ ]	/* If */
NPUSHB[ ]	/* 28 values pushed */
5 1 1 1 0 97 0 0 0 41 77 0 2 2 36 77 0 3 3 4 98 6 1 4 4 38 4 78
ELSE[ ]	/* Else */
MPPEM[ ]	/* MeasurePixelPerEm */
PUSHB[ ]	/* 1 value pushed */
39
LT[ ]	/* LessThan */
IF[ ]	/* If */
NPUSHB[ ]	/* 25 values pushed */
0 3 6 1 4 3 4 102 5 1 1 1 0 97 0 0 0 41 77 0 2 2 36 2 78
ELSE[ ]	/* Else */
NPUSHB[ ]	/* 25 values pushed */
0 3 6 1 4 3 4 102 5 1 1 1 0 97 0 0 0 39 77 0 2 2 36 2 78
EIF[ ]	/* EndIf */
EIF[ ]	/* EndIf */
NPUSHB[ ]	/* 20 values pushed */
12 12 0 0 12 30 12 29 26 24 18 17 0 11 0 10 36 7 8 23
CALL[ ]	/* CallFunction */";
};
width = 222;
}
);
note = iogonek;
unicode = 303;
},
{
glyphname = j;
kernLeft = j;
layers = (
{
layerId = m01;
shapes = (
{
closed = 1;
nodes = (
(24,-220,ls),
(94,-220,o),
(165,-153,o),
(165,-82,qs),
(165,496,l),
(81,496,l),
(81,-80,ls),
(81,-116,o),
(48,-148,o),
(11,-148,qs),
(-28,-148,l),
(-28,-220,l)
);
},
{
closed = 1;
nodes = (
(148,606,o),
(181,639,o),
(181,664,qs),
(181,688,o),
(148,720,o),
(124,720,qs),
(100,720,o),
(66,688,o),
(66,664,qs),
(66,639,o),
(100,606,o),
(124,606,qs)
);
}
);
userData = {
assembly = "MPPEM[ ]	/* MeasurePixelPerEm */
PUSHB[ ]	/* 1 value pushed */
39
LT[ ]	/* LessThan */
IF[ ]	/* If */
NPUSHB[ ]	/* 27 values pushed */
5 1 4 4 3 97 0 3 3 41 77 0 1 1 36 77 0 0 0 2 98 0 2 2 38 2 78
ELSE[ ]	/* Else */
NPUSHB[ ]	/* 27 values pushed */
5 1 4 4 3 97 0 3 3 39 77 0 1 1 36 77 0 0 0 2 98 0 2 2 38 2 78
EIF[ ]	/* EndIf */
NPUSHB[ ]	/* 13 values pushed */
12 12 12 23 12 22 37 35 19 32 6 8 26
CALL[ ]	/* CallFunction */";
};
width = 242;
}
);
note = j;
unicode = 106;
},
{
glyphname = uni0237;
layers = (
{
anchors = (
{
name = bottom;
pos = (121,-310);
},
{
name = top;
pos = (121,496);
}
);
layerId = m01;
shapes = (
{
closed = 1;
nodes = (
(24,-220,ls),
(94,-220,o),
(165,-153,o),
(165,-82,qs),
(165,496,l),
(81,496,l),
(81,-80,ls),
(81,-116,o),
(48,-148,o),
(11,-148,qs),
(-28,-148,l),
(-28,-220,l)
);
}
);
userData = {
assembly = "NPUSHB[ ]	/* 22 values pushed */
0 1 1 36 77 0 0 0 2 98 0 2 2 38 2 78 35 19 32 3 8 25
CALL[ ]	/* CallFunction */";
};
width = 242;
}
);
note = uni0237;
unicode = 567;
},
{
glyphname = k;
kernLeft = b;
kernRight = k;
layers = (
{
anchors = (
{
name = bottom;
pos = (252,0);
},
{
name = top;
pos = (252,992);
}
);
layerId = m01;
shapes = (
{
closed = 1;
nodes = (
(153,0,l),
(153,257,l),
(380,0,l),
(487,0,l),
(239,272,l),
(459,496,l),
(356,496,l),
(153,287,l),
(153,700,l),
(69,700,l),
(69,0,l)
);
}
);
userData = {
assembly = "NPUSHB[ ]	/* 32 values pushed */
8 5 2 3 2 1 1 76 0 0 0 33 77 0 1 1 36 77 3 1 2 2 34 2 78 18 18 18 16 4 8 26
CALL[ ]	/* CallFunction */";
};
width = 504;
}
);
note = k;
unicode = 107;
},
{
glyphname = l;
kernLeft = b;
layers = (
{
anchors = (
{
name = bottom;
pos = (111,0);
},
{
name = top;
pos = (111,700);
},
{
name = topright;
pos = (202,992);
}
);
layerId = m01;
shapes = (
{
closed = 1;
nodes = (
(153,0,l),
(153,700,l),
(69,700,l),
(69,0,l)
);
}
);
userData = {
assembly = "NPUSHB[ ]	/* 16 values pushed */
0 0 0 33 77 0 1 1 34 1 78 17 16 2 8 24
CALL[ ]	/* CallFunction */";
};
width = 222;
}
);
note = l;
unicode = 108;
},
{
glyphname = ldot;
kernLeft = b;
layers = (
{
layerId = m01;
shapes = (
{
closed = 1;
nodes = (
(162,0,l),
(162,700,l),
(78,700,l),
(78,0,l)
);
},
{
closed = 1;
nodes = (
(309,318,o),
(338,347,o),
(338,367,qs),
(338,388,o),
(309,417,o),
(288,417,qs),
(267,417,o),
(238,388,o),
(238,367,qs),
(238,347,o),
(267,318,o),
(288,318,qs)
);
}
);
userData = {
assembly = "NPUSHB[ ]	/* 32 values pushed */
0 2 4 1 3 1 2 3 105 0 0 0 33 77 0 1 1 34 1 78 4 4 4 15 4 14 37 17 16 5 8 25
CALL[ ]	/* CallFunction */";
};
width = 346;
}
);
note = ldot;
unicode = 320;
},
{
glyphname = lslash;
kernLeft = b;
kernRight = lslash;
layers = (
{
layerId = m01;
shapes = (
{
closed = 1;
nodes = (
(160,0,l),
(160,396,l),
(235,426,l),
(235,494,l),
(160,463,l),
(160,700,l),
(76,700,l),
(76,429,l),
(2,398,l),
(2,331,l),
(76,361,l),
(76,0,l)
);
}
);
userData = {
assembly = "NPUSHB[ ]	/* 29 values pushed */
9 8 7 6 3 2 1 0 8 1 0 1 76 0 0 0 33 77 0 1 1 34 1 78 21 20 2 8 24
CALL[ ]	/* CallFunction */";
};
width = 251;
}
);
note = lslash;
unicode = 322;
},
{
glyphname = m;
kernLeft = dotlessi;
kernRight = a;
layers = (
{
layerId = m01;
shapes = (
{
closed = 1;
nodes = (
(153,0,l),
(153,257,ls),
(153,341,o),
(230,436,o),
(291,436,qs),
(349,436,o),
(411,358,o),
(411,281,qs),
(411,0,l),
(495,0,l),
(495,257,ls),
(495,341,o),
(572,436,o),
(634,436,qs),
(692,436,o),
(754,358,o),
(754,281,qs),
(754,0,l),
(837,0,l),
(837,290,ls),
(837,398,o),
(734,508,o),
(642,508,qs),
(589,508,o),
(498,456,o),
(472,411,q),
(426,508,o),
(305,508,qs),
(255,508,o),
(175,464,o),
(151,424,q),
(145,496,l),
(69,496,l),
(69,0,l)
);
}
);
userData = {
assembly = "PUSHB[ ]	/* 7 values pushed */
7 2 2 3 4 1 76
MPPEM[ ]	/* MeasurePixelPerEm */
PUSHB[ ]	/* 1 value pushed */
21
LT[ ]	/* LessThan */
IF[ ]	/* If */
NPUSHB[ ]	/* 21 values pushed */
6 1 4 4 0 97 2 1 2 0 0 36 77 7 5 2 3 3 34 3 78
ELSE[ ]	/* Else */
NPUSHB[ ]	/* 25 values pushed */
0 0 0 36 77 6 1 4 4 1 97 2 1 1 1 42 77 7 5 2 3 3 34 3 78
EIF[ ]	/* EndIf */
NPUSHB[ ]	/* 11 values pushed */
19 35 19 35 19 35 35 16 8 8 30
CALL[ ]	/* CallFunction */";
};
width = 895;
}
);
note = m;
unicode = 109;
},
{
glyphname = n;
kernLeft = dotlessi;
kernRight = a;
layers = (
{
anchors = (
{
name = bottom;
pos = (300,0);
},
{
name = top;
pos = (306,496);
}
);
layerId = m01;
shapes = (
{
closed = 1;
nodes = (
(153,0,l),
(153,257,ls),
(153,341,o),
(236,436,o),
(302,436,qs),
(430,436,o),
(430,281,qs),
(430,0,l),
(514,0,l),
(514,290,ls),
(514,398,o),
(411,508,o),
(321,508,qs),
(264,508,o),
(174,454,o),
(150,407,q),
(145,496,l),
(69,496,l),
(69,0,l)
);
}
);
userData = {
assembly = "PUSHB[ ]	/* 6 values pushed */
2 1 2 3 1 76
MPPEM[ ]	/* MeasurePixelPerEm */
PUSHB[ ]	/* 1 value pushed */
21
LT[ ]	/* LessThan */
IF[ ]	/* If */
NPUSHB[ ]	/* 18 values pushed */
0 3 3 0 97 1 1 0 0 36 77 4 1 2 2 34 2 78
ELSE[ ]	/* Else */
NPUSHB[ ]	/* 22 values pushed */
0 0 0 36 77 0 3 3 1 97 0 1 1 42 77 4 1 2 2 34 2 78
EIF[ ]	/* EndIf */
PUSHB[ ]	/* 8 values pushed */
19 34 19 35 16 5 8 27
CALL[ ]	/* CallFunction */";
};
width = 573;
}
);
note = n;
unicode = 110;
},
{
glyphname = eng;
kernLeft = dotlessi;
kernRight = a;
layers = (
{
layerId = m01;
shapes = (
{
closed = 1;
nodes = (
(373,-220,ls),
(443,-220,o),
(514,-153,o),
(514,-82,qs),
(514,290,ls),
(514,398,o),
(411,508,o),
(321,508,qs),
(264,508,o),
(174,454,o),
(150,407,q),
(145,496,l),
(69,496,l),
(69,0,l),
(153,0,l),
(153,257,ls),
(153,341,o),
(236,436,o),
(302,436,qs),
(430,436,o),
(430,281,qs),
(430,-80,ls),
(430,-116,o),
(397,-148,o),
(360,-148,qs),
(321,-148,l),
(321,-220,l)
);
}
);
userData = {
assembly = "PUSHB[ ]	/* 6 values pushed */
15 1 2 1 1 76
MPPEM[ ]	/* MeasurePixelPerEm */
PUSHB[ ]	/* 1 value pushed */
21
LT[ ]	/* LessThan */
IF[ ]	/* If */
NPUSHB[ ]	/* 27 values pushed */
0 1 1 3 97 4 1 3 3 36 77 0 2 2 34 77 0 0 0 5 97 0 5 5 38 5 78
ELSE[ ]	/* Else */
NPUSHB[ ]	/* 31 values pushed */
0 3 3 36 77 0 1 1 4 97 0 4 4 42 77 0 2 2 34 77 0 0 0 5 97 0 5 5 38 5 78
EIF[ ]	/* EndIf */
NPUSHB[ ]	/* 9 values pushed */
37 35 17 19 36 32 6 8 28
CALL[ ]	/* CallFunction */";
};
width = 572;
}
);
note = eng;
unicode = 331;
},
{
glyphname = o;
kernLeft = c;
kernRight = b;
layers = (
{
anchors = (
{
name = bottom;
pos = (302,0);
},
{
name = ogonek;
pos = (408,10);
},
{
name = top;
pos = (302,496);
},
{
name = topright;
pos = (584,496);
}
);
layerId = m01;
shapes = (
{
closed = 1;
nodes = (
(372,-12,o),
(490,55,o),
(556,174,o),
(556,249,qs),
(556,329,o),
(488,447,o),
(372,508,o),
(302,508,qs),
(230,508,o),
(114,444,o),
(48,326,o),
(48,249,qs),
(48,168,o),
(115,50,o),
(229,-12,o),
(298,-12,qs)
);
},
{
closed = 1;
nodes = (
(255,61,o),
(180,102,o),
(133,186,o),
(133,249,qs),
(133,330,o),
(221,435,o),
(301,435,qs),
(380,435,o),
(471,331,o),
(471,249,qs),
(471,193,o),
(426,108,o),
(347,61,o),
(298,61,qs)
);
}
);
userData = {
assembly = "NPUSHB[ ]	/* 41 values pushed */
0 2 2 0 97 0 0 0 42 77 5 1 3 3 1 97 4 1 1 1 40 1 78 16 16 0 0 16 29 16 28 23 21 0 15 0 14 38 6 8 23
CALL[ ]	/* CallFunction */";
};
width = 604;
}
);
note = o;
unicode = 111;
},
{
glyphname = oslash;
layers = (
{
layerId = m01;
shapes = (
{
closed = 1;
nodes = (
(374,-12,o),
(487,54,o),
(551,172,o),
(551,248,qs),
(551,351,o),
(493,422,q),
(558,496,l),
(479,496,l),
(450,463,l),
(387,508,o),
(304,508,qs),
(234,508,o),
(120,443,o),
(55,325,o),
(55,248,qs),
(55,144,o),
(112,74,q),
(48,0,l),
(128,0,l),
(156,33,l),
(219,-12,o),
(302,-12,qs)
);
},
{
closed = 1;
nodes = (
(248,58,o),
(205,90,q),
(440,360,l),
(467,311,o),
(467,248,qs),
(467,166,o),
(378,58,o),
(302,58,qs)
);
},
{
closed = 1;
nodes = (
(166,136,l),
(139,182,o),
(139,248,qs),
(139,330,o),
(224,438,o),
(304,438,qs),
(359,438,o),
(400,406,q)
);
}
);
userData = {
assembly = "MPPEM[ ]	/* MeasurePixelPerEm */
PUSHB[ ]	/* 1 value pushed */
21
LT[ ]	/* LessThan */
IF[ ]	/* If */
NPUSHB[ ]	/* 19 values pushed */
12 1 5 1 37 36 27 26 15 4 6 4 5 1 1 0 4 3 76
ELSE[ ]	/* Else */
NPUSHB[ ]	/* 19 values pushed */
12 1 5 2 37 36 27 26 15 4 6 4 5 1 1 0 4 3 76
EIF[ ]	/* EndIf */
MPPEM[ ]	/* MeasurePixelPerEm */
PUSHB[ ]	/* 1 value pushed */
21
LT[ ]	/* LessThan */
IF[ ]	/* If */
NPUSHB[ ]	/* 25 values pushed */
0 5 5 1 97 2 1 1 1 42 77 7 1 4 4 0 97 6 3 2 0 0 34 0 78
ELSE[ ]	/* Else */
NPUSHB[ ]	/* 33 values pushed */
0 2 2 36 77 0 5 5 1 97 0 1 1 42 77 0 0 0 34 77 7 1 4 4 3 97 6 1 3 3 40 3 78
EIF[ ]	/* EndIf */
NPUSHB[ ]	/* 20 values pushed */
22 22 0 0 32 30 22 29 22 28 0 21 0 20 18 38 18 8 8 25
CALL[ ]	/* CallFunction */";
};
width = 601;
}
);
note = oslash;
unicode = 248;
},
{
glyphname = oe;
kernLeft = c;
kernRight = ae;
layers = (
{
layerId = m01;
shapes = (
{
closed = 1;
nodes = (
(363,-12,o),
(467,47,o),
(497,102,q),
(528,48,o),
(634,-12,o),
(702,-12,qs),
(787,-12,o),
(903,76,o),
(925,148,q),
(842,148,l),
(824,106,o),
(753,59,o),
(702,59,qs),
(634,59,o),
(544,153,o),
(540,229,q),
(935,229,l),
(937,276,ls),
(937,338,o),
(909,390,qs),
(880,445,o),
(774,508,o),
(704,508,qs),
(635,508,o),
(527,448,o),
(496,394,q),
(467,449,o),
(364,508,o),
(297,508,qs),
(227,508,o),
(171,476,qs),
(113,443,o),
(48,325,o),
(48,248,qs),
(48,170,o),
(81,111,qs),
(113,52,o),
(225,-12,o),
(295,-12,qs)
);
},
{
closed = 1;
nodes = (
(248,60,o),
(175,108,o),
(134,194,o),
(134,248,qs),
(134,328,o),
(220,436,o),
(297,436,qs),
(344,436,o),
(417,389,o),
(458,304,o),
(458,248,qs),
(458,168,o),
(372,60,o),
(295,60,qs)
);
},
{
closed = 1;
nodes = (
(542,294,l),
(548,361,o),
(638,437,o),
(701,437,qs),
(766,437,o),
(851,360,o),
(854,294,q)
);
}
);
userData = {
assembly = "NPUSHB[ ]	/* 80 values pushed */
12 1 10 7 35 1 3 4 2 76 0 4 2 3 2 4 3 128 0 10 0 2 4 10 2 103 9 1 7 7 0 97 1 1 0 0 42 77 12 8 2 3 3 5 97 11 6 2 5 5 40 5 78 39 39 0 0 59 58 56 54 39 52 39 51 46 44 0 38 0 37 34 18 34 21 36 40 13 8 28
CALL[ ]	/* CallFunction */";
};
width = 979;
}
);
note = oe;
unicode = 339;
},
{
glyphname = p;
kernLeft = p;
kernRight = b;
layers = (
{
layerId = m01;
shapes = (
{
closed = 1;
nodes = (
(153,-220,l),
(153,83,l),
(178,38,o),
(273,-12,o),
(334,-12,qs),
(408,-12,o),
(519,55,o),
(580,173,o),
(580,247,qs),
(580,322,o),
(520,441,o),
(409,508,o),
(335,508,qs),
(271,508,o),
(180,455,o),
(153,414,q),
(145,496,l),
(69,496,l),
(69,-220,l)
);
},
{
closed = 1;
nodes = (
(274,61,o),
(197,110,o),
(155,195,o),
(155,248,qs),
(155,331,o),
(249,435,o),
(325,435,qs),
(403,435,o),
(495,329,o),
(495,248,qs),
(495,165,o),
(401,61,o),
(325,61,qs)
);
}
);
userData = {
assembly = "PUSHB[ ]	/* 7 values pushed */
16 2 2 5 4 1 76
MPPEM[ ]	/* MeasurePixelPerEm */
PUSHB[ ]	/* 1 value pushed */
21
LT[ ]	/* LessThan */
IF[ ]	/* If */
NPUSHB[ ]	/* 28 values pushed */
0 4 4 0 97 1 1 0 0 36 77 6 1 5 5 2 97 0 2 2 40 77 0 3 3 38 3 78
ELSE[ ]	/* Else */
NPUSHB[ ]	/* 32 values pushed */
0 0 0 36 77 0 4 4 1 97 0 1 1 42 77 6 1 5 5 2 97 0 2 2 40 77 0 3 3 38 3 78
EIF[ ]	/* EndIf */
NPUSHB[ ]	/* 14 values pushed */
19 19 19 31 19 30 37 19 38 35 16 7 8 27
CALL[ ]	/* CallFunction */";
};
width = 628;
}
);
note = p;
unicode = 112;
},
{
glyphname = thorn;
kernRight = b;
layers = (
{
layerId = m01;
shapes = (
{
closed = 1;
nodes = (
(153,-220,l),
(153,83,l),
(178,38,o),
(273,-12,o),
(334,-12,qs),
(408,-12,o),
(519,55,o),
(580,173,o),
(580,247,qs),
(580,322,o),
(520,441,o),
(409,508,o),
(335,508,qs),
(271,508,o),
(180,455,o),
(153,414,q),
(153,700,l),
(69,700,l),
(69,-220,l)
);
},
{
closed = 1;
nodes = (
(274,61,o),
(197,110,o),
(155,195,o),
(155,248,qs),
(155,331,o),
(249,435,o),
(325,435,qs),
(403,435,o),
(495,329,o),
(495,248,qs),
(495,165,o),
(401,61,o),
(325,61,qs)
);
}
);
userData = {
assembly = "NPUSHB[ ]	/* 53 values pushed */
16 2 2 5 4 1 76 0 0 0 33 77 0 4 4 1 97 0 1 1 42 77 6 1 5 5 2 97 0 2 2 40 77 0 3 3 38 3 78 19 19 19 31 19 30 37 19 38 35 16 7 8 27
CALL[ ]	/* CallFunction */";
};
width = 628;
}
);
note = thorn;
unicode = 254;
},
{
glyphname = q;
kernLeft = c;
layers = (
{
layerId = m01;
shapes = (
{
closed = 1;
nodes = (
(476,-220,l),
(560,-220,l),
(560,496,l),
(484,496,l),
(476,413,l),
(450,458,o),
(355,508,o),
(295,508,qs),
(219,508,o),
(107,440,o),
(48,322,o),
(48,249,qs),
(48,176,o),
(108,57,o),
(220,-12,o),
(294,-12,qs),
(357,-12,o),
(449,41,o),
(476,82,q)
);
},
{
closed = 1;
nodes = (
(257,61,o),
(179,106,o),
(134,191,o),
(134,248,qs),
(134,304,o),
(178,389,o),
(255,435,o),
(303,435,qs),
(382,435,o),
(473,330,o),
(473,248,qs),
(473,167,o),
(383,61,o),
(303,61,qs)
);
}
);
userData = {
assembly = "PUSHB[ ]	/* 7 values pushed */
18 13 2 5 4 1 76
MPPEM[ ]	/* MeasurePixelPerEm */
PUSHB[ ]	/* 1 value pushed */
21
LT[ ]	/* LessThan */
IF[ ]	/* If */
NPUSHB[ ]	/* 28 values pushed */
0 4 4 1 97 2 1 1 1 42 77 6 1 5 5 0 97 0 0 0 40 77 0 3 3 38 3 78
ELSE[ ]	/* Else */
NPUSHB[ ]	/* 32 values pushed */
0 2 2 36 77 0 4 4 1 97 0 1 1 42 77 6 1 5 5 0 97 0 0 0 40 77 0 3 3 38 3 78
EIF[ ]	/* EndIf */
NPUSHB[ ]	/* 14 values pushed */
19 19 19 32 19 31 38 17 19 38 33 7 8 27
CALL[ ]	/* CallFunction */";
};
width = 628;
}
);
note = q;
unicode = 113;
},
{
glyphname = r;
kernLeft = dotlessi;
kernRight = r;
layers = (
{
anchors = (
{
name = bottom;
pos = (116,0);
},
{
name = top;
pos = (182,496);
}
);
layerId = m01;
shapes = (
{
closed = 1;
nodes = (
(153,0,l),
(153,250,ls),
(153,333,o),
(234,420,o),
(315,420,qs),
(338,420,l),
(338,508,l),
(271,508,o),
(176,451,o),
(152,401,q),
(145,496,l),
(69,496,l),
(69,0,l)
);
}
);
userData = {
assembly = "PUSHB[ ]	/* 6 values pushed */
2 1 3 2 1 76
MPPEM[ ]	/* MeasurePixelPerEm */
PUSHB[ ]	/* 1 value pushed */
21
LT[ ]	/* LessThan */
IF[ ]	/* If */
NPUSHB[ ]	/* 17 values pushed */
0 2 2 0 97 1 1 0 0 36 77 0 3 3 34 3 78
ELSE[ ]	/* Else */
NPUSHB[ ]	/* 21 values pushed */
0 0 0 36 77 0 2 2 1 97 0 1 1 42 77 0 3 3 34 3 78
EIF[ ]	/* EndIf */
PUSHB[ ]	/* 7 values pushed */
19 33 19 16 4 8 26
CALL[ ]	/* CallFunction */";
};
width = 363;
}
);
note = r;
unicode = 114;
},
{
glyphname = s;
kernLeft = s;
kernRight = s;
layers = (
{
anchors = (
{
name = bottom;
pos = (255,0);
},
{
name = top;
pos = (250,496);
}
);
layerId = m01;
shapes = (
{
closed = 1;
nodes = (
(316,-12,o),
(402,27,o),
(449,96,o),
(449,140,qs),
(449,191,o),
(402,250,o),
(328,279,o),
(267,292,qs),
(209,305,o),
(150,340,o),
(150,368,qs),
(150,399,o),
(200,437,o),
(244,437,qs),
(290,437,o),
(345,394,o),
(350,356,q),
(433,356,l),
(425,428,o),
(324,508,o),
(245,508,qs),
(163,508,o),
(65,426,o),
(65,360,qs),
(65,300,o),
(161,239,o),
(239,222,qs),
(286,212,o),
(335,196,o),
(363,164,o),
(363,135,qs),
(363,102,o),
(311,59,o),
(260,59,qs),
(206,59,o),
(137,113,o),
(128,155,q),
(42,155,l),
(52,78,o),
(169,-12,o),
(259,-12,qs)
);
}
);
userData = {
assembly = "NPUSHB[ ]	/* 51 values pushed */
0 3 4 0 4 3 0 128 0 0 1 4 0 1 126 0 4 4 2 97 0 2 2 42 77 0 1 1 5 97 6 1 5 5 40 5 78 0 0 0 40 0 39 34 18 43 34 18 7 8 27
CALL[ ]	/* CallFunction */";
};
width = 500;
}
);
note = s;
unicode = 115;
},
{
glyphname = scedilla;
kernLeft = s;
kernRight = s;
layers = (
{
anchors = (
{
name = bottom;
pos = (255,-259);
},
{
name = top;
pos = (250,496);
}
);
layerId = m01;
shapes = (
{
closed = 1;
nodes = (
(288,-259,ls),
(342,-259,o),
(409,-205,o),
(409,-159,qs),
(409,-112,o),
(339,-62,o),
(280,-63,q),
(280,-11,l),
(357,-6,o),
(449,77,o),
(449,140,qs),
(449,191,o),
(402,250,o),
(328,279,o),
(267,292,qs),
(209,305,o),
(150,340,o),
(150,368,qs),
(150,399,o),
(200,437,o),
(244,437,qs),
(290,437,o),
(345,394,o),
(350,356,q),
(433,356,l),
(425,428,o),
(324,508,o),
(245,508,qs),
(163,508,o),
(65,426,o),
(65,360,qs),
(65,300,o),
(161,239,o),
(239,222,qs),
(286,212,o),
(335,196,o),
(363,164,o),
(363,135,qs),
(363,102,o),
(311,59,o),
(260,59,qs),
(206,59,o),
(137,113,o),
(128,155,q),
(42,155,l),
(51,86,o),
(148,-2,o),
(224,-10,q),
(224,-113,l),
(273,-113,ls),
(341,-113,o),
(341,-158,qs),
(341,-206,o),
(273,-206,qs),
(181,-206,l),
(181,-259,l)
);
}
);
userData = {
assembly = "NPUSHB[ ]	/* 71 values pushed */
7 1 8 7 1 76 0 5 6 2 6 5 2 128 0 2 3 6 2 3 126 0 8 0 1 0 8 1 105 0 0 0 9 0 9 99 0 6 6 4 97 0 4 4 42 77 0 3 3 7 97 0 7 7 40 7 78 55 53 17 27 34 18 43 34 20 34 32 10 8 31
CALL[ ]	/* CallFunction */";
};
width = 500;
}
);
note = scedilla;
unicode = 351;
},
{
glyphname = germandbls;
kernLeft = b;
kernRight = germandbls;
layers = (
{
layerId = m01;
shapes = (
{
closed = 1;
nodes = (
(522,-10,o),
(626,74,o),
(626,150,qs),
(626,212,o),
(557,283,o),
(489,307,qs),
(436,325,o),
(375,357,o),
(375,386,qs),
(375,405,o),
(399,428,o),
(425,445,qs),
(467,469,o),
(516,523,o),
(516,569,qs),
(516,645,o),
(393,732,o),
(302,732,qs),
(197,732,o),
(71,621,o),
(71,520,qs),
(71,0,l),
(154,0,l),
(154,512,ls),
(154,580,o),
(223,661,o),
(300,661,qs),
(358,661,o),
(432,612,o),
(432,562,qs),
(432,537,o),
(407,501,o),
(383,486,qs),
(340,458,ls),
(317,443,o),
(290,404,o),
(290,375,qs),
(290,326,o),
(369,270,o),
(438,246,qs),
(489,230,o),
(541,186,o),
(541,144,qs),
(541,101,o),
(486,56,o),
(440,56,qs),
(386,56,o),
(325,120,o),
(321,169,q),
(238,169,l),
(245,85,o),
(356,-10,o),
(441,-10,qs)
);
}
);
userData = {
assembly = "MPPEM[ ]	/* MeasurePixelPerEm */
PUSHB[ ]	/* 1 value pushed */
25
LT[ ]	/* LessThan */
IF[ ]	/* If */
NPUSHB[ ]	/* 31 values pushed */
0 0 2 1 2 0 1 128 0 2 2 4 97 0 4 4 41 77 0 1 1 3 97 6 5 2 3 3 34 3 78
ELSE[ ]	/* Else */
MPPEM[ ]	/* MeasurePixelPerEm */
PUSHB[ ]	/* 1 value pushed */
39
LT[ ]	/* LessThan */
IF[ ]	/* If */
NPUSHB[ ]	/* 35 values pushed */
0 0 2 1 2 0 1 128 0 2 2 4 97 0 4 4 41 77 0 3 3 34 77 0 1 1 5 97 6 1 5 5 40 5 78
ELSE[ ]	/* Else */
NPUSHB[ ]	/* 33 values pushed */
0 0 2 1 2 0 1 128 0 4 0 2 0 4 2 105 0 3 3 34 77 0 1 1 5 97 6 1 5 5 40 5 78
EIF[ ]	/* EndIf */
EIF[ ]	/* EndIf */
NPUSHB[ ]	/* 17 values pushed */
0 0 0 52 0 51 35 33 30 29 26 24 34 18 7 8 24
CALL[ ]	/* CallFunction */";
};
width = 664;
}
);
note = germandbls;
unicode = 223;
},
{
glyphname = t;
kernLeft = t;
kernRight = t;
layers = (
{
anchors = (
{
name = bottom;
pos = (238,0);
},
{
name = top;
pos = (194,496);
},
{
name = topright;
pos = (253,992);
}
);
layerId = m01;
shapes = (
{
closed = 1;
nodes = (
(342,0,l),
(342,72,l),
(289,72,ls),
(240,72,o),
(203,105,o),
(203,152,qs),
(203,425,l),
(342,425,l),
(342,496,l),
(203,496,l),
(203,615,l),
(119,615,l),
(119,496,l),
(33,496,l),
(33,425,l),
(119,425,l),
(119,152,ls),
(119,69,o),
(193,0,o),
(265,0,qs)
);
}
);
userData = {
assembly = "NPUSHB[ ]	/* 44 values pushed */
0 2 1 2 133 4 1 0 0 1 95 3 1 1 1 36 77 0 5 5 6 96 7 1 6 6 34 6 78 0 0 0 19 0 18 35 17 17 17 17 19 8 8 28
CALL[ ]	/* CallFunction */";
};
width = 387;
}
);
note = t;
unicode = 116;
},
{
glyphname = uni0163;
kernLeft = t;
kernRight = t;
layers = (
{
anchors = (
{
name = bottom;
pos = (238,-259);
},
{
name = top;
pos = (194,496);
},
{
name = topright;
pos = (253,992);
}
);
layerId = m01;
shapes = (
{
closed = 1;
nodes = (
(342,0,l),
(342,72,l),
(289,72,ls),
(240,72,o),
(203,105,o),
(203,152,qs),
(203,425,l),
(342,425,l),
(342,496,l),
(203,496,l),
(203,615,l),
(119,615,l),
(119,496,l),
(33,496,l),
(33,425,l),
(119,425,l),
(119,152,ls),
(119,88,o),
(163,19,o),
(207,7,q),
(207,-113,l),
(256,-113,ls),
(324,-113,o),
(324,-158,qs),
(324,-206,o),
(256,-206,qs),
(164,-206,l),
(164,-259,l),
(271,-259,ls),
(325,-259,o),
(392,-205,o),
(392,-159,qs),
(392,-112,o),
(322,-62,o),
(263,-63,q),
(263,0,l),
(265,0,l)
);
}
);
userData = {
assembly = "NPUSHB[ ]	/* 65 values pushed */
16 1 10 9 1 76 0 6 5 6 133 0 0 0 3 2 0 3 105 0 2 0 1 2 1 99 8 1 4 4 5 95 7 1 5 5 36 77 0 9 9 10 95 0 10 10 34 10 78 36 35 34 32 17 17 17 17 21 34 33 36 17 11 8 31
CALL[ ]	/* CallFunction */";
};
width = 387;
}
);
note = uni0163;
unicode = 355;
},
{
glyphname = u;
kernLeft = u;
layers = (
{
anchors = (
{
name = bottom;
pos = (286,0);
},
{
name = ogonek;
pos = (503,0);
},
{
name = top;
pos = (284,496);
},
{
name = topright;
pos = (552,496);
}
);
layerId = m01;
shapes = (
{
closed = 1;
nodes = (
(308,-12,o),
(398,42,o),
(422,89,q),
(427,0,l),
(503,0,l),
(503,496,l),
(419,496,l),
(419,239,ls),
(419,155,o),
(336,60,o),
(270,60,qs),
(142,60,o),
(142,215,qs),
(142,496,l),
(58,496,l),
(58,206,ls),
(58,98,o),
(161,-12,o),
(251,-12,qs)
);
}
);
userData = {
assembly = "PUSHB[ ]	/* 6 values pushed */
15 1 1 0 1 76
MPPEM[ ]	/* MeasurePixelPerEm */
PUSHB[ ]	/* 1 value pushed */
21
LT[ ]	/* LessThan */
IF[ ]	/* If */
NPUSHB[ ]	/* 19 values pushed */
2 1 0 0 36 77 0 1 1 3 97 5 4 2 3 3 34 3 78
ELSE[ ]	/* Else */
NPUSHB[ ]	/* 23 values pushed */
2 1 0 0 36 77 0 3 3 34 77 0 1 1 4 97 5 1 4 4 40 4 78
EIF[ ]	/* EndIf */
NPUSHB[ ]	/* 13 values pushed */
0 0 0 18 0 17 17 19 34 19 6 8 26
CALL[ ]	/* CallFunction */";
};
width = 572;
}
);
note = u;
unicode = 117;
},
{
glyphname = uogonek;
kernLeft = u;
layers = (
{
anchors = (
{
name = bottom;
pos = (286,0);
},
{
name = ogonek;
pos = (503,0);
},
{
name = top;
pos = (284,496);
},
{
name = topright;
pos = (552,496);
}
);
layerId = m01;
shapes = (
{
closed = 1;
nodes = (
(308,-12,o),
(398,42,o),
(422,89,q),
(426,19,l),
(365,-8,o),
(313,-71,o),
(313,-108,qs),
(313,-155,o),
(381,-203,o),
(431,-203,qs),
(470,-203,o),
(506,-190,q),
(506,-134,l),
(472,-149,o),
(441,-149,qs),
(414,-149,o),
(381,-123,o),
(381,-100,qs),
(381,-59,o),
(445,-28,qs),
(503,0,l),
(503,496,l),
(419,496,l),
(419,239,ls),
(419,155,o),
(336,60,o),
(270,60,qs),
(142,60,o),
(142,215,qs),
(142,496,l),
(58,496,l),
(58,206,ls),
(58,98,o),
(161,-12,o),
(251,-12,qs)
);
}
);
userData = {
assembly = "NPUSHB[ ]	/* 19 values pushed */
31 1 1 0 30 13 2 5 1 21 1 3 5 22 1 4 3 4 76
MPPEM[ ]	/* MeasurePixelPerEm */
PUSHB[ ]	/* 1 value pushed */
29
LT[ ]	/* LessThan */
IF[ ]	/* If */
NPUSHB[ ]	/* 28 values pushed */
2 1 0 0 36 77 0 1 1 5 97 6 1 5 5 40 77 0 3 3 4 98 0 4 4 38 4 78
ELSE[ ]	/* Else */
NPUSHB[ ]	/* 25 values pushed */
0 3 0 4 3 4 102 2 1 0 0 36 77 0 1 1 5 97 6 1 5 5 40 5 78
EIF[ ]	/* EndIf */
NPUSHB[ ]	/* 14 values pushed */
0 0 0 34 0 33 35 38 19 34 19 7 8 27
CALL[ ]	/* CallFunction */";
};
width = 572;
}
);
note = uogonek;
unicode = 371;
},
{
glyphname = v;
kernLeft = v;
kernRight = v;
layers = (
{
layerId = m01;
shapes = (
{
closed = 1;
nodes = (
(309,0,l),
(497,496,l),
(411,496,l),
(261,81,l),
(112,496,l),
(24,496,l),
(212,0,l)
);
}
);
userData = {
assembly = "NPUSHB[ ]	/* 24 values pushed */
2 1 2 0 1 76 1 1 0 0 36 77 0 2 2 34 2 78 17 18 16 3 8 25
CALL[ ]	/* CallFunction */";
};
width = 521;
}
);
note = v;
unicode = 118;
},
{
glyphname = w;
kernLeft = w;
kernRight = w;
layers = (
{
anchors = (
{
name = bottom;
pos = (377,0);
},
{
name = top;
pos = (377,496);
}
);
layerId = m01;
shapes = (
{
closed = 1;
nodes = (
(255,0,l),
(377,409,l),
(499,0,l),
(585,0,l),
(730,496,l),
(645,496,l),
(541,107,l),
(424,496,l),
(329,496,l),
(213,107,l),
(108,496,l),
(24,496,l),
(169,0,l)
);
}
);
userData = {
assembly = "NPUSHB[ ]	/* 30 values pushed */
10 5 2 3 3 0 1 76 2 1 2 0 0 36 77 4 1 3 3 34 3 78 18 17 18 18 16 5 8 27
CALL[ ]	/* CallFunction */";
};
width = 754;
}
);
note = w;
unicode = 119;
},
{
glyphname = x;
kernLeft = x;
kernRight = x;
layers = (
{
layerId = m01;
shapes = (
{
closed = 1;
nodes = (
(110,0,l),
(249,205,l),
(389,0,l),
(479,0,l),
(307,248,l),
(479,496,l),
(389,496,l),
(249,291,l),
(110,496,l),
(19,496,l),
(191,248,l),
(19,0,l)
);
}
);
userData = {
assembly = "NPUSHB[ ]	/* 28 values pushed */
9 6 3 3 2 0 1 76 1 1 0 0 36 77 3 1 2 2 34 2 78 18 18 18 17 4 8 26
CALL[ ]	/* CallFunction */";
};
width = 498;
}
);
note = x;
unicode = 120;
},
{
glyphname = y;
kernLeft = y;
kernRight = y;
layers = (
{
anchors = (
{
name = bottom;
pos = (278,0);
},
{
name = top;
pos = (278,496);
}
);
layerId = m01;
shapes = (
{
closed = 1;
nodes = (
(211,-220,l),
(536,496,l),
(449,496,l),
(275,110,l),
(111,496,l),
(20,496,l),
(233,20,l),
(123,-220,l)
);
}
);
userData = {
assembly = "NPUSHB[ ]	/* 24 values pushed */
3 1 2 0 1 76 1 1 0 0 36 77 0 2 2 38 2 78 17 18 17 3 8 25
CALL[ ]	/* CallFunction */";
};
width = 556;
}
);
note = y;
unicode = 121;
},
{
glyphname = z;
kernLeft = z;
layers = (
{
anchors = (
{
name = bottom;
pos = (226,0);
},
{
name = top;
pos = (226,496);
}
);
layerId = m01;
shapes = (
{
closed = 1;
nodes = (
(410,0,l),
(410,70,l),
(129,70,l),
(405,427,l),
(405,496,l),
(40,496,l),
(40,426,l),
(311,426,l),
(35,69,l),
(35,0,l)
);
}
);
userData = {
assembly = "NPUSHB[ ]	/* 38 values pushed */
5 1 0 1 0 1 3 2 2 76 0 0 0 1 95 0 1 1 36 77 0 2 2 3 95 0 3 3 34 3 78 17 18 17 17 4 8 26
CALL[ ]	/* CallFunction */";
};
width = 452;
}
);
note = z;
unicode = 122;
},
{
glyphname = uniA78C;
layers = (
{
layerId = m01;
shapes = (
{
closed = 1;
nodes = (
(141,339,l),
(156,700,l),
(65,700,l),
(80,339,l)
);
}
);
userData = {
assembly = "NPUSHB[ ]	/* 16 values pushed */
0 1 1 0 95 0 0 0 33 1 78 17 16 2 8 24
CALL[ ]	/* CallFunction */";
};
width = 221;
}
);
note = uniA78C;
unicode = 42892;
},
{
glyphname = fi;
layers = (
{
anchors = (
{
name = caret_1;
pos = (284,0);
}
);
layerId = m01;
shapes = (
{
closed = 1;
nodes = (
(180,0,l),
(180,425,l),
(302,425,l),
(302,496,l),
(180,496,l),
(180,560,ls),
(180,597,o),
(212,628,o),
(250,628,qs),
(287,628,l),
(287,700,l),
(237,700,ls),
(167,700,o),
(96,633,o),
(96,562,qs),
(96,496,l),
(21,496,l),
(21,425,l),
(96,425,l),
(96,0,l)
);
},
{
closed = 1;
nodes = (
(488,0,l),
(488,496,l),
(404,496,l),
(404,0,l)
);
},
{
closed = 1;
nodes = (
(472,591,o),
(505,624,o),
(505,649,qs),
(505,673,o),
(472,705,o),
(447,705,qs),
(423,705,o),
(389,673,o),
(389,649,qs),
(389,624,o),
(423,591,o),
(447,591,qs)
);
}
);
userData = {
assembly = "MPPEM[ ]	/* MeasurePixelPerEm */
PUSHB[ ]	/* 1 value pushed */
46
LT[ ]	/* LessThan */
IF[ ]	/* If */
NPUSHB[ ]	/* 43 values pushed */
0 3 3 2 97 9 1 2 2 33 77 11 1 10 10 2 97 9 1 2 2 33 77 5 1 0 0 1 95 7 4 2 1 1 36 77 8 1 6 6 34 6 78
ELSE[ ]	/* Else */
NPUSHB[ ]	/* 41 values pushed */
0 3 3 2 97 0 2 2 33 77 11 1 10 10 9 97 0 9 9 33 77 5 1 0 0 1 95 7 4 2 1 1 36 77 8 1 6 6 34 6 78
EIF[ ]	/* EndIf */
NPUSHB[ ]	/* 20 values pushed */
24 24 24 35 24 34 30 28 17 17 17 17 19 33 35 17 16 12 8 31
CALL[ ]	/* CallFunction */";
};
width = 567;
}
);
note = fi;
unicode = 64257;
},
{
glyphname = fl;
layers = (
{
anchors = (
{
name = caret_1;
pos = (278,0);
}
);
layerId = m01;
shapes = (
{
closed = 1;
nodes = (
(180,0,l),
(180,425,l),
(302,425,l),
(302,496,l),
(180,496,l),
(180,560,ls),
(180,597,o),
(212,628,o),
(250,628,qs),
(287,628,l),
(287,700,l),
(237,700,ls),
(167,700,o),
(96,633,o),
(96,562,qs),
(96,496,l),
(21,496,l),
(21,425,l),
(96,425,l),
(96,0,l)
);
},
{
closed = 1;
nodes = (
(486,0,l),
(486,700,l),
(402,700,l),
(402,0,l)
);
}
);
userData = {
assembly = "NPUSHB[ ]	/* 42 values pushed */
0 3 3 2 97 7 1 2 2 33 77 5 1 0 0 1 95 4 1 1 1 36 77 8 1 6 6 34 6 78 17 17 17 17 19 33 35 17 16 9 8 31
CALL[ ]	/* CallFunction */";
};
width = 555;
}
);
note = fl;
unicode = 64258;
},
{
glyphname = ordfeminine;
layers = (
{
layerId = m01;
shapes = (
{
closed = 1;
nodes = (
(206,347,o),
(268,385,o),
(286,417,q),
(294,385,o),
(339,354,o),
(371,354,qs),
(378,354,l),
(378,406,l),
(340,406,o),
(340,445,qs),
(340,568,ls),
(340,632,o),
(268,710,o),
(194,710,qs),
(136,710,o),
(48,647,o),
(44,593,q),
(104,593,l),
(111,625,o),
(159,660,o),
(194,660,qs),
(234,660,o),
(281,614,o),
(281,564,q),
(188,564,ls),
(122,564,o),
(37,510,o),
(37,454,qs),
(37,403,o),
(109,347,o),
(165,347,qs)
);
},
{
closed = 1;
nodes = (
(141,396,o),
(98,426,o),
(98,456,qs),
(98,518,o),
(193,518,qs),
(281,518,l),
(281,469,o),
(224,396,o),
(174,396,qs)
);
}
);
userData = {
assembly = "PUSHB[ ]	/* 6 values pushed */
27 1 4 7 1 76
MPPEM[ ]	/* MeasurePixelPerEm */
PUSHB[ ]	/* 1 value pushed */
9
LT[ ]	/* LessThan */
IF[ ]	/* If */
NPUSHB[ ]	/* 41 values pushed */
0 2 1 0 1 2 0 128 0 0 0 7 4 0 7 103 0 1 1 3 97 0 3 3 59 77 10 8 2 4 4 5 97 9 6 2 5 5 58 5 78
ELSE[ ]	/* Else */
MPPEM[ ]	/* MeasurePixelPerEm */
PUSHB[ ]	/* 1 value pushed */
10
LT[ ]	/* LessThan */
IF[ ]	/* If */
NPUSHB[ ]	/* 52 values pushed */
0 2 1 0 1 2 0 128 0 0 0 7 4 0 7 103 0 1 1 3 97 0 3 3 59 77 0 4 4 5 97 9 6 2 5 5 58 77 10 1 8 8 5 97 9 6 2 5 5 58 5 78
ELSE[ ]	/* Else */
MPPEM[ ]	/* MeasurePixelPerEm */
PUSHB[ ]	/* 1 value pushed */
12
LT[ ]	/* LessThan */
IF[ ]	/* If */
NPUSHB[ ]	/* 41 values pushed */
0 2 1 0 1 2 0 128 0 0 0 7 4 0 7 103 0 1 1 3 97 0 3 3 59 77 10 8 2 4 4 5 97 9 6 2 5 5 58 5 78
ELSE[ ]	/* Else */
MPPEM[ ]	/* MeasurePixelPerEm */
PUSHB[ ]	/* 1 value pushed */
13
LT[ ]	/* LessThan */
IF[ ]	/* If */
NPUSHB[ ]	/* 52 values pushed */
0 2 1 0 1 2 0 128 0 0 0 7 4 0 7 103 0 1 1 3 97 0 3 3 59 77 0 4 4 5 97 9 6 2 5 5 58 77 10 1 8 8 5 97 9 6 2 5 5 58 5 78
ELSE[ ]	/* Else */
MPPEM[ ]	/* MeasurePixelPerEm */
PUSHB[ ]	/* 1 value pushed */
24
LT[ ]	/* LessThan */
IF[ ]	/* If */
NPUSHB[ ]	/* 41 values pushed */
0 2 1 0 1 2 0 128 0 0 0 7 4 0 7 103 0 1 1 3 97 0 3 3 59 77 10 8 2 4 4 5 97 9 6 2 5 5 58 5 78
ELSE[ ]	/* Else */
MPPEM[ ]	/* MeasurePixelPerEm */
PUSHB[ ]	/* 1 value pushed */
34
LT[ ]	/* LessThan */
IF[ ]	/* If */
NPUSHB[ ]	/* 52 values pushed */
0 2 1 0 1 2 0 128 0 0 0 7 4 0 7 103 0 1 1 3 97 0 3 3 59 77 0 4 4 5 97 9 6 2 5 5 58 77 10 1 8 8 5 97 9 6 2 5 5 58 5 78
ELSE[ ]	/* Else */
NPUSHB[ ]	/* 49 values pushed */
0 2 1 0 1 2 0 128 0 0 0 7 4 0 7 103 0 1 1 3 97 0 3 3 59 77 0 4 4 5 97 0 5 5 58 77 10 1 8 8 6 97 9 1 6 6 58 6 78
EIF[ ]	/* EndIf */
EIF[ ]	/* EndIf */
EIF[ ]	/* EndIf */
EIF[ ]	/* EndIf */
EIF[ ]	/* EndIf */
EIF[ ]	/* EndIf */
NPUSHB[ ]	/* 23 values pushed */
31 31 0 0 31 39 31 38 35 33 0 30 0 29 33 20 34 18 34 36 11 10 28
CALL[ ]	/* CallFunction */";
};
width = 407;
}
);
note = ordfeminine;
unicode = 170;
},
{
glyphname = ordmasculine;
layers = (
{
layerId = m01;
shapes = (
{
closed = 1;
nodes = (
(267,349,o),
(351,394,o),
(399,477,o),
(399,531,qs),
(399,617,o),
(295,712,o),
(217,712,qs),
(163,712,o),
(80,666,o),
(35,583,o),
(35,531,qs),
(35,474,o),
(84,392,o),
(167,349,o),
(216,349,qs)
);
},
{
closed = 1;
nodes = (
(167,404,o),
(103,471,o),
(103,531,qs),
(103,591,o),
(168,659,o),
(216,659,qs),
(265,659,o),
(331,591,o),
(331,531,qs),
(331,471,o),
(264,404,o),
(216,404,qs)
);
}
);
userData = {
assembly = "NPUSHB[ ]	/* 41 values pushed */
0 2 2 0 97 0 0 0 59 77 5 1 3 3 1 97 4 1 1 1 58 1 78 15 15 0 0 15 26 15 25 21 19 0 14 0 13 38 6 10 23
CALL[ ]	/* CallFunction */";
};
width = 433;
}
);
note = ordmasculine;
unicode = 186;
},
{
glyphname = uni042F;
layers = (
{
layerId = m01;
shapes = (
{
closed = 1;
nodes = (
(35,0,l),
(139,0,l),
(319,310,l),
(435,310,l),
(435,0,l),
(519,0,l),
(519,700,l),
(312,700,ls),
(200,700,o),
(78,602,o),
(78,505,qs),
(78,354,o),
(236,326,q)
);
},
{
closed = 1;
nodes = (
(232,381,o),
(164,441,o),
(164,505,qs),
(164,570,o),
(232,630,o),
(314,630,qs),
(435,630,l),
(435,381,l),
(314,381,ls)
);
}
);
userData = {
assembly = "NPUSHB[ ]	/* 52 values pushed */
12 1 2 5 1 76 3 1 1 2 1 134 0 0 0 4 5 0 4 103 6 1 5 2 2 5 87 6 1 5 5 2 95 0 2 5 2 79 13 13 13 21 13 20 35 17 17 17 35 7 6 27
CALL[ ]	/* CallFunction */";
};
width = 593;
}
);
note = uni042F;
unicode = (1071,1103);
},
{
glyphname = uni0394;
layers = (
{
layerId = m01;
shapes = (
{
closed = 1;
nodes = (
(665,0,l),
(665,65,l),
(382,700,l),
(312,700,l),
(30,65,l),
(30,0,l)
);
},
{
closed = 1;
nodes = (
(347,604,l),
(580,65,l),
(115,65,l)
);
}
);
userData = {
assembly = "NPUSHB[ ]	/* 12 values pushed */
7 1 2 0 1 76 3 0 2 2 1 75
MPPEM[ ]	/* MeasurePixelPerEm */
PUSHB[ ]	/* 1 value pushed */
42
LT[ ]	/* LessThan */
IF[ ]	/* If */
NPUSHB[ ]	/* 17 values pushed */
0 0 0 23 77 3 1 2 2 1 95 0 1 1 24 1 78
ELSE[ ]	/* Else */
NPUSHB[ ]	/* 17 values pushed */
0 0 2 0 133 3 1 2 2 1 95 0 1 1 24 1 78
EIF[ ]	/* EndIf */
NPUSHB[ ]	/* 11 values pushed */
6 6 6 8 6 8 18 17 4 7 24
CALL[ ]	/* CallFunction */";
};
width = 695;
}
);
note = uni0394;
unicode = 916;
},
{
glyphname = Pi;
layers = (
{
layerId = m01;
shapes = (
{
closed = 1;
nodes = (
(209,0,l),
(209,430,l),
(437,430,l),
(437,0,l),
(521,0,l),
(521,430,l),
(600,430,l),
(600,496,l),
(46,496,l),
(46,430,l),
(125,430,l),
(125,0,l)
);
}
);
userData = {
assembly = "NPUSHB[ ]	/* 26 values pushed */
0 1 4 2 2 0 3 1 0 103 5 1 3 3 24 3 78 17 17 17 17 17 16 6 7 28
CALL[ ]	/* CallFunction */";
};
width = 646;
}
);
note = Pi;
unicode = 928;
},
{
glyphname = uni03A9;
layers = (
{
layerId = m01;
shapes = (
{
closed = 1;
nodes = (
(331,0,l),
(331,69,l),
(238,93,o),
(127,247,o),
(127,352,qs),
(127,424,o),
(186,554,o),
(307,636,o),
(394,636,qs),
(463,636,o),
(585,572,o),
(662,444,o),
(662,352,qs),
(662,250,o),
(555,94,o),
(458,69,q),
(458,0,l),
(732,0,l),
(732,66,l),
(590,66,l),
(666,107,o),
(747,263,o),
(747,357,qs),
(747,459,o),
(655,621,o),
(494,712,o),
(394,712,qs),
(295,712,o),
(135,621,o),
(43,459,o),
(43,357,qs),
(43,262,o),
(124,107,o),
(199,66,q),
(56,66,l),
(56,0,l)
);
}
);
userData = {
assembly = "NPUSHB[ ]	/* 39 values pushed */
33 19 2 0 4 1 76 0 4 4 1 97 0 1 1 23 77 2 1 0 0 3 95 5 1 3 3 24 3 78 23 39 17 22 38 16 6 7 28
CALL[ ]	/* CallFunction */";
};
width = 789;
}
);
note = uni03A9;
unicode = 937;
},
{
glyphname = uni03BC;
layers = (
{
layerId = m01;
shapes = (
{
closed = 1;
nodes = (
(153,-220,l),
(153,20,l),
(196,-12,o),
(261,-12,qs),
(317,-12,o),
(409,42,o),
(433,88,q),
(438,0,l),
(514,0,l),
(514,496,l),
(430,496,l),
(430,239,ls),
(430,155,o),
(347,60,o),
(281,60,qs),
(153,60,o),
(153,215,qs),
(153,496,l),
(69,496,l),
(69,-220,l)
);
}
);
userData = {
assembly = "NPUSHB[ ]	/* 10 values pushed */
12 1 1 0 17 1 3 1 2 76
MPPEM[ ]	/* MeasurePixelPerEm */
PUSHB[ ]	/* 1 value pushed */
42
LT[ ]	/* LessThan */
IF[ ]	/* If */
NPUSHB[ ]	/* 27 values pushed */
2 1 0 1 0 133 0 3 3 24 77 0 1 1 4 97 0 4 4 24 77 0 5 5 25 5 78
ELSE[ ]	/* Else */
NPUSHB[ ]	/* 25 values pushed */
2 1 0 1 0 133 0 1 0 4 5 1 4 105 0 3 3 24 77 0 5 5 25 5 78
EIF[ ]	/* EndIf */
NPUSHB[ ]	/* 9 values pushed */
18 35 17 19 34 16 6 7 28
CALL[ ]	/* CallFunction */";
};
width = 583;
}
);
note = uni03BC;
unicode = 956;
},
{
glyphname = zero;
layers = (
{
layerId = m01;
shapes = (
{
closed = 1;
nodes = (
(438,-12,o),
(564,183,o),
(564,350,qs),
(564,517,o),
(438,712,o),
(301,712,qs),
(165,712,o),
(37,514,o),
(37,350,qs),
(37,186,o),
(165,-12,o),
(301,-12,qs)
);
},
{
closed = 1;
nodes = (
(212,63,o),
(123,214,o),
(123,350,qs),
(123,486,o),
(212,637,o),
(301,637,qs),
(390,637,o),
(478,487,o),
(478,350,qs),
(478,213,o),
(390,63,o),
(301,63,qs)
);
}
);
userData = {
assembly = "NPUSHB[ ]	/* 41 values pushed */
0 2 2 0 97 0 0 0 39 77 5 1 3 3 1 97 4 1 1 1 40 1 78 12 12 0 0 12 23 12 22 18 16 0 11 0 10 36 6 8 23
CALL[ ]	/* CallFunction */";
};
width = 600;
}
);
note = zero;
unicode = 48;
},
{
glyphname = one;
layers = (
{
layerId = m01;
shapes = (
{
closed = 1;
nodes = (
(563,0,l),
(563,69,l),
(385,69,l),
(385,700,l),
(341,700,l),
(92,608,l),
(92,536,l),
(304,610,l),
(304,69,l),
(89,69,l),
(89,0,l)
);
}
);
userData = {
assembly = "NPUSHB[ ]	/* 32 values pushed */
4 3 2 3 0 1 1 76 0 1 1 33 77 2 1 0 0 3 96 0 3 3 34 3 78 17 17 20 16 4 8 26
CALL[ ]	/* CallFunction */";
};
width = 600;
}
);
note = one;
unicode = 49;
},
{
glyphname = two;
layers = (
{
layerId = m01;
shapes = (
{
closed = 1;
nodes = (
(73,0,l),
(535,0,l),
(535,70,l),
(172,70,l),
(374,278,ls),
(423,328,o),
(469,380,o),
(511,459,o),
(511,503,qs),
(511,604,o),
(398,712,o),
(299,712,qs),
(233,712,o),
(133,658,o),
(78,558,o),
(78,492,q),
(159,492,l),
(159,557,o),
(234,640,o),
(298,640,qs),
(363,640,o),
(427,565,o),
(427,500,qs),
(427,470,o),
(394,410,o),
(346,356,o),
(295,303,qs),
(73,73,l)
);
}
);
userData = {
assembly = "NPUSHB[ ]	/* 43 values pushed */
27 1 3 1 1 76 0 1 0 3 0 1 3 128 0 0 0 2 97 0 2 2 39 77 0 3 3 4 95 0 4 4 34 4 78 17 23 35 18 38 5 8 27
CALL[ ]	/* CallFunction */";
};
width = 600;
}
);
note = two;
unicode = 50;
},
{
glyphname = three;
layers = (
{
layerId = m01;
shapes = (
{
closed = 1;
nodes = (
(412,-12,o),
(544,108,o),
(544,213,qs),
(544,278,o),
(484,372,o),
(386,420,o),
(329,420,qs),
(312,420,o),
(303,419,q),
(521,634,l),
(521,700,l),
(85,700,l),
(85,631,l),
(418,631,l),
(177,395,l),
(229,336,l),
(265,357,o),
(304,357,qs),
(377,357,o),
(463,281,o),
(463,212,qs),
(463,144,o),
(378,60,o),
(303,60,qs),
(235,60,o),
(150,131,o),
(137,190,q),
(56,190,l),
(66,96,o),
(199,-12,o),
(303,-12,qs)
);
}
);
userData = {
assembly = "NPUSHB[ ]	/* 67 values pushed */
20 1 3 4 15 1 2 5 14 1 0 2 3 76 0 0 2 1 2 0 1 128 0 5 0 2 0 5 2 105 0 3 3 4 95 0 4 4 33 77 0 1 1 6 97 7 1 6 6 40 6 78 0 0 0 30 0 29 35 17 19 36 34 18 8 8 28
CALL[ ]	/* CallFunction */";
};
width = 600;
}
);
note = three;
unicode = 51;
},
{
glyphname = four;
layers = (
{
layerId = m01;
shapes = (
{
closed = 1;
nodes = (
(469,0,l),
(469,150,l),
(571,150,l),
(571,224,l),
(469,224,l),
(469,423,l),
(390,423,l),
(390,224,l),
(131,224,l),
(368,700,l),
(285,700,l),
(42,215,l),
(42,150,l),
(386,150,l),
(386,0,l)
);
}
);
userData = {
assembly = "NPUSHB[ ]	/* 45 values pushed */
2 1 0 2 1 76 0 3 1 2 1 3 2 128 4 1 2 5 1 0 6 2 0 104 0 1 1 33 77 0 6 6 34 6 78 17 17 17 17 17 18 16 7 8 29
CALL[ ]	/* CallFunction */";
};
width = 600;
}
);
note = four;
unicode = 52;
},
{
glyphname = five;
layers = (
{
layerId = m01;
shapes = (
{
closed = 1;
nodes = (
(378,-12,o),
(488,51,o),
(549,165,o),
(549,237,qs),
(549,306,o),
(520,362,qs),
(490,418,o),
(387,481,o),
(319,481,qs),
(266,481,o),
(180,444,o),
(155,414,q),
(196,627,l),
(498,627,l),
(498,700,l),
(131,700,l),
(71,316,l),
(151,316,l),
(170,359,o),
(254,410,o),
(310,410,qs),
(380,410,o),
(468,314,o),
(468,236,qs),
(468,159,o),
(380,60,o),
(307,60,qs),
(241,60,o),
(152,130,o),
(140,189,q),
(58,189,l),
(70,97,o),
(205,-12,o),
(306,-12,qs)
);
}
);
userData = {
assembly = "PUSHB[ ]	/* 6 values pushed */
21 1 2 6 1 76
MPPEM[ ]	/* MeasurePixelPerEm */
PUSHB[ ]	/* 1 value pushed */
33
LT[ ]	/* LessThan */
IF[ ]	/* If */
NPUSHB[ ]	/* 47 values pushed */
0 3 2 0 2 3 0 128 0 0 1 2 0 1 126 0 5 5 4 95 0 4 4 33 77 0 2 2 6 97 0 6 6 36 77 0 1 1 7 97 8 1 7 7 40 7 78
ELSE[ ]	/* Else */
NPUSHB[ ]	/* 45 values pushed */
0 3 2 0 2 3 0 128 0 0 1 2 0 1 126 0 6 0 2 3 6 2 105 0 5 5 4 95 0 4 4 33 77 0 1 1 7 97 8 1 7 7 40 7 78
EIF[ ]	/* EndIf */
NPUSHB[ ]	/* 16 values pushed */
0 0 0 33 0 32 35 17 17 18 36 34 18 9 8 29
CALL[ ]	/* CallFunction */";
};
width = 600;
}
);
note = five;
unicode = 53;
},
{
glyphname = six;
layers = (
{
layerId = m01;
shapes = (
{
closed = 1;
nodes = (
(389,-12,o),
(439,22,qs),
(490,55,o),
(546,163,o),
(546,223,qs),
(546,290,o),
(515,341,qs),
(484,392,o),
(385,448,o),
(328,448,qs),
(261,448,o),
(164,390,o),
(141,341,q),
(144,491,o),
(240,639,o),
(316,639,qs),
(368,639,o),
(439,577,o),
(449,520,q),
(526,520,l),
(518,575,o),
(494,616,qs),
(467,661,o),
(377,712,o),
(317,712,qs),
(236,712,o),
(180,662,qs),
(122,613,o),
(62,438,o),
(62,322,qs),
(62,257,o),
(90,140,o),
(118,93,qs),
(184,-12,o),
(318,-12,qs)
);
},
{
closed = 1;
nodes = (
(247,62,o),
(164,151,o),
(164,218,qs),
(164,260,o),
(202,332,o),
(270,375,o),
(313,375,qs),
(377,375,o),
(461,289,o),
(461,219,qs),
(461,153,o),
(381,62,o),
(313,62,qs)
);
}
);
userData = {
assembly = "NPUSHB[ ]	/* 66 values pushed */
21 1 6 5 1 76 0 1 2 3 2 1 3 128 0 3 0 5 6 3 5 105 0 2 2 0 97 0 0 0 39 77 8 1 6 6 4 97 7 1 4 4 40 4 78 35 35 0 0 35 47 35 46 41 39 0 34 0 33 36 34 20 40 9 8 26
CALL[ ]	/* CallFunction */";
};
width = 600;
}
);
note = six;
unicode = 54;
},
{
glyphname = seven;
layers = (
{
layerId = m01;
shapes = (
{
closed = 1;
nodes = (
(253,0,l),
(547,637,l),
(547,700,l),
(55,700,l),
(55,628,l),
(461,628,l),
(164,0,l)
);
}
);
userData = {
assembly = "NPUSHB[ ]	/* 28 values pushed */
4 1 0 1 1 76 0 0 0 1 95 0 1 1 33 77 0 2 2 34 2 78 18 17 16 3 8 25
CALL[ ]	/* CallFunction */";
};
width = 600;
}
);
note = seven;
unicode = 55;
},
{
glyphname = eight;
layers = (
{
layerId = m01;
shapes = (
{
closed = 1;
nodes = (
(365,-12,o),
(472,39,o),
(535,130,o),
(535,190,qs),
(535,254,o),
(462,356,o),
(402,373,q),
(456,391,o),
(518,476,o),
(518,526,qs),
(518,581,o),
(461,665,o),
(361,712,o),
(300,712,qs),
(240,712,o),
(141,668,o),
(83,583,o),
(83,526,qs),
(83,475,o),
(144,391,o),
(198,373,q),
(138,356,o),
(65,254,o),
(65,190,qs),
(65,130,o),
(128,39,o),
(235,-12,o),
(300,-12,qs)
);
},
{
closed = 1;
nodes = (
(230,62,o),
(149,134,o),
(149,195,qs),
(149,261,o),
(234,333,o),
(300,333,qs),
(366,333,o),
(451,261,o),
(451,195,qs),
(451,134,o),
(370,62,o),
(300,62,qs)
);
},
{
closed = 1;
nodes = (
(243,403,o),
(168,468,o),
(168,521,qs),
(168,578,o),
(243,640,o),
(300,640,qs),
(358,640,o),
(433,578,o),
(433,521,qs),
(433,469,o),
(357,403,o),
(300,403,qs)
);
}
);
userData = {
assembly = "NPUSHB[ ]	/* 65 values pushed */
20 6 2 2 5 1 76 8 1 5 0 2 3 5 2 105 0 4 4 0 97 0 0 0 39 77 7 1 3 3 1 97 6 1 1 1 40 1 78 40 40 28 28 0 0 40 51 40 50 46 44 28 39 28 38 34 32 0 27 0 26 44 9 8 23
CALL[ ]	/* CallFunction */";
};
width = 600;
}
);
note = eight;
unicode = 56;
},
{
glyphname = nine;
layers = (
{
layerId = m01;
shapes = (
{
closed = 1;
nodes = (
(366,-12,o),
(424,38,qs),
(481,88,o),
(542,262,o),
(542,378,qs),
(542,516,o),
(485,607,qs),
(455,657,o),
(355,712,o),
(286,712,qs),
(214,712,o),
(164,678,qs),
(113,645,o),
(58,538,o),
(58,477,qs),
(58,408,o),
(89,359,qs),
(120,308,o),
(218,252,o),
(275,252,qs),
(343,252,o),
(440,310,o),
(463,359,q),
(459,208,o),
(363,61,o),
(288,61,qs),
(235,61,o),
(165,123,o),
(155,180,q),
(78,180,l),
(84,129,o),
(110,84,qs),
(136,39,o),
(227,-12,o),
(287,-12,qs)
);
},
{
closed = 1;
nodes = (
(226,325,o),
(143,411,o),
(143,481,qs),
(143,548,o),
(224,638,o),
(291,638,qs),
(333,638,o),
(401,598,o),
(440,527,o),
(440,482,qs),
(440,441,o),
(402,369,o),
(334,325,o),
(291,325,qs)
);
}
);
userData = {
assembly = "NPUSHB[ ]	/* 66 values pushed */
11 1 6 5 1 76 0 0 2 1 2 0 1 128 8 1 6 0 2 0 6 2 105 0 5 5 3 97 0 3 3 39 77 0 1 1 4 97 7 1 4 4 40 4 78 35 35 0 0 35 48 35 47 43 41 0 34 0 33 40 36 34 20 9 8 26
CALL[ ]	/* CallFunction */";
};
width = 600;
}
);
note = nine;
unicode = 57;
},
{
glyphname = uni24EA;
layers = (
{
layerId = m01;
shapes = (
{
closed = 1;
nodes = (
(487,-12,o),
(654,85,o),
(751,252,o),
(751,350,qs),
(751,448,o),
(654,615,o),
(487,712,o),
(389,712,qs),
(291,712,o),
(124,615,o),
(27,448,o),
(27,350,qs),
(27,252,o),
(124,85,o),
(291,-12,o),
(389,-12,qs)
);
},
{
closed = 1;
nodes = (
(307,46,o),
(168,128,o),
(86,267,o),
(86,350,qs),
(86,433,o),
(168,572,o),
(307,654,o),
(389,654,qs),
(472,654,o),
(611,572,o),
(693,433,o),
(693,350,qs),
(693,267,o),
(611,128,o),
(472,46,o),
(389,46,qs)
);
},
{
closed = 1;
nodes = (
(460,165,o),
(492,215,qs),
(524,265,o),
(524,350,qs),
(524,435,o),
(492,485,qs),
(460,535,o),
(390,535,qs),
(320,535,o),
(288,484,qs),
(255,435,o),
(255,350,qs),
(255,266,o),
(288,216,qs),
(320,165,o),
(390,165,qs)
);
},
{
closed = 1;
nodes = (
(356,223,o),
(338,256,qs),
(321,292,o),
(321,350,qs),
(321,408,o),
(338,444,qs),
(356,477,o),
(390,477,qs),
(425,477,o),
(441,444,qs),
(458,408,o),
(458,350,qs),
(458,292,o),
(441,256,qs),
(425,223,o),
(390,223,qs)
);
}
);
userData = {
assembly = "NPUSHB[ ]	/* 75 values pushed */
0 4 0 6 7 4 6 105 11 1 7 10 1 5 3 7 5 105 0 2 2 0 97 0 0 0 39 77 9 1 3 3 1 97 8 1 1 1 40 1 78 48 48 32 32 16 16 0 0 48 63 48 62 56 54 32 47 32 46 40 38 16 31 16 30 24 22 0 15 0 14 38 12 8 23
CALL[ ]	/* CallFunction */";
};
width = 778;
}
);
note = uni24EA;
unicode = 9450;
},
{
glyphname = uni2780;
layers = (
{
layerId = m01;
shapes = (
{
closed = 1;
nodes = (
(487,-12,o),
(654,85,o),
(751,252,o),
(751,350,qs),
(751,448,o),
(654,615,o),
(487,712,o),
(389,712,qs),
(291,712,o),
(124,615,o),
(27,448,o),
(27,350,qs),
(27,252,o),
(124,85,o),
(291,-12,o),
(389,-12,qs)
);
},
{
closed = 1;
nodes = (
(307,46,o),
(168,128,o),
(86,267,o),
(86,350,qs),
(86,433,o),
(168,572,o),
(307,654,o),
(389,654,qs),
(472,654,o),
(611,572,o),
(693,433,o),
(693,350,qs),
(693,267,o),
(611,128,o),
(472,46,o),
(389,46,qs)
);
},
{
closed = 1;
nodes = (
(515,176,l),
(515,231,l),
(434,231,l),
(434,533,l),
(399,533,l),
(279,489,l),
(279,439,l),
(372,460,l),
(372,231,l),
(276,231,l),
(276,176,l)
);
}
);
userData = {
assembly = "NPUSHB[ ]	/* 74 values pushed */
36 35 34 3 4 5 1 76 0 5 2 4 2 5 4 128 6 1 4 0 7 3 4 7 104 0 2 2 0 97 0 0 0 39 77 9 1 3 3 1 97 8 1 1 1 40 1 78 16 16 0 0 42 41 40 39 38 37 33 32 16 31 16 30 24 22 0 15 0 14 38 10 8 23
CALL[ ]	/* CallFunction */";
};
width = 778;
}
);
note = uni2780;
unicode = 10112;
},
{
glyphname = uni2781;
layers = (
{
layerId = m01;
shapes = (
{
closed = 1;
nodes = (
(487,-12,o),
(653,85,o),
(751,252,o),
(751,350,qs),
(751,448,o),
(653,615,o),
(487,712,o),
(389,712,qs),
(291,712,o),
(124,615,o),
(27,448,o),
(27,350,qs),
(27,252,o),
(124,85,o),
(291,-12,o),
(389,-12,qs)
);
},
{
closed = 1;
nodes = (
(306,46,o),
(166,128,o),
(85,268,o),
(85,350,qs),
(85,432,o),
(166,572,o),
(306,654,o),
(389,654,qs),
(471,654,o),
(610,572,o),
(692,433,o),
(692,350,qs),
(692,267,o),
(610,128,o),
(471,46,o),
(389,46,qs)
);
},
{
closed = 1;
nodes = (
(514,176,l),
(514,231,l),
(355,231,l),
(431,309,ls),
(465,341,o),
(506,399,o),
(506,432,qs),
(506,478,o),
(447,540,o),
(390,540,qs),
(335,540,o),
(269,477,o),
(268,421,q),
(332,421,l),
(332,449,o),
(361,484,o),
(389,484,qs),
(413,484,o),
(442,455,o),
(442,431,qs),
(442,416,o),
(421,382,o),
(390,349,o),
(377,336,qs),
(268,223,l),
(268,176,l)
);
}
);
userData = {
assembly = "NPUSHB[ ]	/* 81 values pushed */
32 1 8 7 1 76 0 5 4 7 4 5 7 128 0 6 0 4 5 6 4 105 0 7 0 8 3 7 8 103 0 2 2 0 97 0 0 0 39 77 10 1 3 3 1 97 9 1 1 1 40 1 78 16 16 0 0 57 56 55 54 48 46 44 43 41 39 16 31 16 30 24 22 0 15 0 14 38 11 8 23
CALL[ ]	/* CallFunction */";
};
width = 778;
}
);
note = uni2781;
unicode = 10113;
},
{
glyphname = uni2782;
layers = (
{
layerId = m01;
shapes = (
{
closed = 1;
nodes = (
(487,-12,o),
(654,85,o),
(751,252,o),
(751,350,qs),
(751,448,o),
(654,615,o),
(487,712,o),
(389,712,qs),
(291,712,o),
(124,615,o),
(27,448,o),
(27,350,qs),
(27,252,o),
(124,85,o),
(291,-12,o),
(389,-12,qs)
);
},
{
closed = 1;
nodes = (
(306,46,o),
(167,128,o),
(85,267,o),
(85,350,qs),
(85,433,o),
(167,572,o),
(306,654,o),
(389,654,qs),
(471,654,o),
(610,572,o),
(692,433,o),
(692,350,qs),
(692,267,o),
(610,128,o),
(471,46,o),
(389,46,qs)
);
},
{
closed = 1;
nodes = (
(450,158,o),
(518,227,o),
(518,277,qs),
(518,320,o),
(466,382,o),
(415,386,q),
(506,468,l),
(506,522,l),
(272,522,l),
(272,467,l),
(425,467,l),
(317,368,l),
(353,326,l),
(372,337,o),
(391,337,qs),
(418,337,o),
(455,306,o),
(455,277,qs),
(455,249,o),
(422,214,o),
(390,214,qs),
(362,214,o),
(325,248,o),
(325,275,q),
(261,275,l),
(263,218,o),
(334,158,o),
(390,158,qs)
);
}
);
userData = {
assembly = "NPUSHB[ ]	/* 15 values pushed */
52 1 7 8 53 47 2 6 7 46 1 4 6 3 76
MPPEM[ ]	/* MeasurePixelPerEm */
PUSHB[ ]	/* 1 value pushed */
9
LT[ ]	/* LessThan */
IF[ ]	/* If */
NPUSHB[ ]	/* 54 values pushed */
0 6 7 4 7 6 114 0 4 5 7 4 5 126 0 8 0 7 6 8 7 103 0 5 12 1 9 3 5 9 105 0 2 2 0 97 0 0 0 39 77 11 1 3 3 1 98 10 1 1 1 40 1 78
ELSE[ ]	/* Else */
NPUSHB[ ]	/* 55 values pushed */
0 6 7 4 7 6 4 128 0 4 5 7 4 5 126 0 8 0 7 6 8 7 103 0 5 12 1 9 3 5 9 105 0 2 2 0 97 0 0 0 39 77 11 1 3 3 1 98 10 1 1 1 40 1 78
EIF[ ]	/* EndIf */
NPUSHB[ ]	/* 34 values pushed */
32 32 16 16 0 0 32 59 32 58 51 50 49 48 45 43 39 37 35 34 16 31 16 30 24 22 0 15 0 14 38 13 8 23
CALL[ ]	/* CallFunction */";
};
width = 778;
}
);
note = uni2782;
unicode = 10114;
},
{
glyphname = uni2783;
layers = (
{
layerId = m01;
shapes = (
{
closed = 1;
nodes = (
(487,-12,o),
(654,85,o),
(751,252,o),
(751,350,qs),
(751,448,o),
(654,615,o),
(487,712,o),
(389,712,qs),
(291,712,o),
(124,615,o),
(27,448,o),
(27,350,qs),
(27,252,o),
(124,85,o),
(291,-12,o),
(389,-12,qs)
);
},
{
closed = 1;
nodes = (
(470,176,l),
(470,242,l),
(512,242,l),
(512,299,l),
(470,299,l),
(470,392,l),
(409,392,l),
(409,299,l),
(310,299,l),
(426,533,l),
(362,533,l),
(241,294,l),
(241,242,l),
(405,242,l),
(405,176,l)
);
},
{
closed = 1;
nodes = (
(306,46,o),
(167,128,o),
(85,267,o),
(85,350,qs),
(85,433,o),
(167,572,o),
(306,654,o),
(389,654,qs),
(471,654,o),
(610,572,o),
(692,433,o),
(692,350,qs),
(692,267,o),
(610,128,o),
(471,46,o),
(389,46,qs)
);
}
);
userData = {
assembly = "PUSHB[ ]	/* 6 values pushed */
18 1 2 4 1 76
MPPEM[ ]	/* MeasurePixelPerEm */
PUSHB[ ]	/* 1 value pushed */
13
LT[ ]	/* LessThan */
IF[ ]	/* If */
NPUSHB[ ]	/* 54 values pushed */
0 3 9 5 9 3 5 128 0 5 4 4 5 112 0 8 2 10 2 8 114 6 1 4 7 1 2 8 4 2 104 0 9 9 0 97 0 0 0 39 77 12 1 10 10 1 97 11 1 1 1 40 1 78
ELSE[ ]	/* Else */
MPPEM[ ]	/* MeasurePixelPerEm */
PUSHB[ ]	/* 1 value pushed */
19
LT[ ]	/* LessThan */
IF[ ]	/* If */
NPUSHB[ ]	/* 55 values pushed */
0 3 9 5 9 3 5 128 0 5 4 9 5 4 126 0 8 2 10 2 8 114 6 1 4 7 1 2 8 4 2 104 0 9 9 0 97 0 0 0 39 77 12 1 10 10 1 97 11 1 1 1 40 1 78
ELSE[ ]	/* Else */
NPUSHB[ ]	/* 56 values pushed */
0 3 9 5 9 3 5 128 0 5 4 9 5 4 126 0 8 2 10 2 8 10 128 6 1 4 7 1 2 8 4 2 104 0 9 9 0 97 0 0 0 39 77 12 1 10 10 1 97 11 1 1 1 40 1 78
EIF[ ]	/* EndIf */
EIF[ ]	/* EndIf */
NPUSHB[ ]	/* 32 values pushed */
31 31 0 0 31 46 31 45 39 37 30 29 28 27 26 25 24 23 22 21 20 19 17 16 0 15 0 14 38 13 8 23
CALL[ ]	/* CallFunction */";
};
width = 778;
}
);
note = uni2783;
unicode = 10115;
},
{
glyphname = uni2784;
layers = (
{
layerId = m01;
shapes = (
{
closed = 1;
nodes = (
(487,-12,o),
(654,85,o),
(751,252,o),
(751,350,qs),
(751,448,o),
(654,615,o),
(487,712,o),
(389,712,qs),
(291,712,o),
(124,615,o),
(27,448,o),
(27,350,qs),
(27,252,o),
(124,85,o),
(291,-12,o),
(389,-12,qs)
);
},
{
closed = 1;
nodes = (
(306,46,o),
(167,128,o),
(85,267,o),
(85,350,qs),
(85,433,o),
(167,572,o),
(306,654,o),
(389,654,qs),
(472,654,o),
(611,572,o),
(693,433,o),
(693,350,qs),
(693,267,o),
(611,128,o),
(472,46,o),
(389,46,qs)
);
},
{
closed = 1;
nodes = (
(449,160,o),
(520,232,o),
(520,290,qs),
(520,343,o),
(459,413,o),
(404,413,qs),
(383,413,o),
(343,398,o),
(330,384,q),
(347,467,l),
(496,467,l),
(496,524,l),
(297,524,l),
(267,320,l),
(330,320,l),
(338,338,o),
(373,359,o),
(394,359,qs),
(423,359,o),
(457,320,o),
(457,289,qs),
(457,259,o),
(421,216,o),
(393,216,qs),
(367,216,o),
(331,243,o),
(326,267,q),
(262,267,l),
(264,220,o),
(338,160,o),
(393,160,qs)
);
}
);
userData = {
assembly = "PUSHB[ ]	/* 6 values pushed */
53 1 6 10 1 76
MPPEM[ ]	/* MeasurePixelPerEm */
PUSHB[ ]	/* 1 value pushed */
9
LT[ ]	/* LessThan */
IF[ ]	/* If */
NPUSHB[ ]	/* 62 values pushed */
0 7 6 4 9 7 114 0 4 5 6 4 5 126 0 8 0 9 10 8 9 103 0 10 0 6 7 10 6 105 0 5 14 1 11 3 5 11 105 0 2 2 0 97 0 0 0 39 77 13 1 3 3 1 98 12 1 1 1 40 1 78
ELSE[ ]	/* Else */
NPUSHB[ ]	/* 63 values pushed */
0 7 6 4 6 7 4 128 0 4 5 6 4 5 126 0 8 0 9 10 8 9 103 0 10 0 6 7 10 6 105 0 5 14 1 11 3 5 11 105 0 2 2 0 97 0 0 0 39 77 13 1 3 3 1 98 12 1 1 1 40 1 78
EIF[ ]	/* EndIf */
NPUSHB[ ]	/* 38 values pushed */
32 32 16 16 0 0 32 62 32 61 57 55 52 51 50 49 48 47 45 43 39 37 35 34 16 31 16 30 24 22 0 15 0 14 38 15 8 23
CALL[ ]	/* CallFunction */";
};
width = 778;
}
);
note = uni2784;
unicode = 10116;
},
{
glyphname = uni2785;
layers = (
{
layerId = m01;
shapes = (
{
closed = 1;
nodes = (
(487,-12,o),
(654,85,o),
(751,252,o),
(751,350,qs),
(751,448,o),
(654,615,o),
(487,712,o),
(389,712,qs),
(291,712,o),
(124,615,o),
(27,448,o),
(27,350,qs),
(27,252,o),
(124,85,o),
(291,-12,o),
(389,-12,qs)
);
},
{
closed = 1;
nodes = (
(307,46,o),
(168,128,o),
(86,267,o),
(86,350,qs),
(86,433,o),
(168,572,o),
(307,654,o),
(389,654,qs),
(472,654,o),
(611,572,o),
(693,433,o),
(693,350,qs),
(693,267,o),
(611,128,o),
(472,46,o),
(389,46,qs)
);
},
{
closed = 1;
nodes = (
(365,221,o),
(330,258,o),
(330,285,qs),
(330,311,o),
(366,347,o),
(391,347,qs),
(418,347,o),
(452,311,o),
(452,284,qs),
(452,256,o),
(416,221,o),
(392,221,qs)
);
},
{
closed = 1;
nodes = (
(448,165,o),
(514,237,o),
(514,286,qs),
(514,335,o),
(453,402,o),
(406,402,qs),
(379,402,o),
(333,375,o),
(322,354,q),
(322,406,o),
(354,481,o),
(393,481,qs),
(438,481,o),
(447,432,q),
(507,432,l),
(505,473,o),
(444,535,o),
(393,535,qs),
(324,535,o),
(258,420,o),
(258,338,qs),
(258,265,o),
(324,165,o),
(395,165,qs)
);
}
);
userData = {
assembly = "NPUSHB[ ]	/* 103 values pushed */
58 1 4 9 1 76 0 7 8 9 8 7 9 128 0 6 0 8 7 6 8 105 0 9 0 4 5 9 4 105 13 1 5 14 1 10 3 5 10 105 0 2 2 0 97 0 0 0 39 77 12 1 3 3 1 97 11 1 1 1 40 1 78 44 44 32 32 16 16 0 0 44 67 44 66 62 60 56 54 53 52 50 48 32 43 32 42 38 36 16 31 16 30 24 22 0 15 0 14 38 15 8 23
CALL[ ]	/* CallFunction */";
};
width = 778;
}
);
note = uni2785;
unicode = 10117;
},
{
glyphname = uni2786;
layers = (
{
layerId = m01;
shapes = (
{
closed = 1;
nodes = (
(487,-12,o),
(654,85,o),
(751,252,o),
(751,350,qs),
(751,448,o),
(654,615,o),
(487,712,o),
(389,712,qs),
(291,712,o),
(124,615,o),
(27,448,o),
(27,350,qs),
(27,252,o),
(124,85,o),
(291,-12,o),
(389,-12,qs)
);
},
{
closed = 1;
nodes = (
(380,167,l),
(523,478,l),
(523,524,l),
(261,524,l),
(261,469,l),
(454,469,l),
(312,167,l)
);
},
{
closed = 1;
nodes = (
(307,46,o),
(168,128,o),
(86,267,o),
(86,350,qs),
(86,433,o),
(168,572,o),
(307,654,o),
(389,654,qs),
(472,654,o),
(611,572,o),
(693,433,o),
(693,350,qs),
(693,267,o),
(611,128,o),
(472,46,o),
(389,46,qs)
);
}
);
userData = {
assembly = "NPUSHB[ ]	/* 69 values pushed */
20 1 2 3 1 76 0 4 2 6 2 4 6 128 0 3 0 2 4 3 2 103 0 5 5 0 97 0 0 0 39 77 8 1 6 6 1 97 7 1 1 1 40 1 78 23 23 0 0 23 38 23 37 31 29 22 21 19 18 17 16 0 15 0 14 38 9 8 23
CALL[ ]	/* CallFunction */";
};
width = 778;
}
);
note = uni2786;
unicode = 10118;
},
{
glyphname = uni2787;
layers = (
{
layerId = m01;
shapes = (
{
closed = 1;
nodes = (
(487,-12,o),
(654,85,o),
(751,252,o),
(751,350,qs),
(751,448,o),
(654,615,o),
(487,712,o),
(389,712,qs),
(291,712,o),
(125,615,o),
(27,448,o),
(27,350,qs),
(27,252,o),
(125,85,o),
(291,-12,o),
(389,-12,qs)
);
},
{
closed = 1;
nodes = (
(360,220,o),
(329,249,o),
(329,276,qs),
(329,306,o),
(363,334,o),
(390,334,qs),
(417,334,o),
(450,305,o),
(450,276,qs),
(450,249,o),
(417,220,o),
(390,220,qs)
);
},
{
closed = 1;
nodes = (
(307,46,o),
(168,128,o),
(86,268,o),
(86,350,qs),
(86,432,o),
(168,572,o),
(307,654,o),
(389,654,qs),
(472,654,o),
(612,572,o),
(693,432,o),
(693,350,qs),
(693,268,o),
(612,128,o),
(472,46,o),
(389,46,qs)
);
},
{
closed = 1;
nodes = (
(441,165,o),
(514,221,o),
(514,271,qs),
(514,303,o),
(483,353,o),
(455,363,q),
(481,375,o),
(506,417,o),
(506,439,qs),
(506,482,o),
(440,535,o),
(389,535,qs),
(337,535,o),
(273,483,o),
(273,439,qs),
(273,387,o),
(324,363,q),
(296,354,o),
(264,302,o),
(264,271,qs),
(264,222,o),
(338,165,o),
(389,165,qs)
);
},
{
closed = 1;
nodes = (
(365,383,o),
(338,410,o),
(338,432,qs),
(338,482,o),
(389,482,qs),
(413,482,o),
(441,456,o),
(441,432,qs),
(441,411,o),
(416,383,o),
(389,383,qs)
);
}
);
userData = {
assembly = "NPUSHB[ ]	/* 99 values pushed */
60 49 2 2 9 1 76 0 6 0 8 9 6 8 105 14 1 9 0 2 3 9 2 105 11 1 3 13 1 7 5 3 7 105 0 4 4 0 97 0 0 0 39 77 12 1 5 5 1 97 10 1 1 1 40 1 78 67 67 44 44 28 28 16 16 0 0 67 77 67 76 73 71 44 66 44 65 55 53 28 43 28 42 36 34 16 27 16 26 22 20 0 15 0 14 38 15 8 23
CALL[ ]	/* CallFunction */";
};
width = 778;
}
);
note = uni2787;
unicode = 10119;
},
{
glyphname = uni2788;
layers = (
{
layerId = m01;
shapes = (
{
closed = 1;
nodes = (
(487,-12,o),
(654,85,o),
(751,252,o),
(751,350,qs),
(751,448,o),
(654,615,o),
(487,712,o),
(389,712,qs),
(291,712,o),
(124,615,o),
(27,448,o),
(27,350,qs),
(27,252,o),
(124,85,o),
(291,-12,o),
(389,-12,qs)
);
},
{
closed = 1;
nodes = (
(306,46,o),
(167,128,o),
(85,267,o),
(85,350,qs),
(85,433,o),
(167,572,o),
(306,654,o),
(389,654,qs),
(471,654,o),
(610,572,o),
(692,433,o),
(692,350,qs),
(692,267,o),
(610,128,o),
(471,46,o),
(389,46,qs)
);
},
{
closed = 1;
nodes = (
(454,165,o),
(521,279,o),
(521,362,qs),
(521,432,o),
(456,535,o),
(383,535,qs),
(331,535,o),
(264,463,o),
(264,414,qs),
(264,364,o),
(327,298,o),
(372,298,qs),
(401,298,o),
(445,326,o),
(457,346,q),
(456,294,o),
(424,219,o),
(386,219,qs),
(341,219,o),
(331,268,q),
(271,268,l),
(276,222,o),
(336,165,o),
(385,165,qs)
);
},
{
closed = 1;
nodes = (
(360,353,o),
(327,388,o),
(327,416,qs),
(327,443,o),
(360,479,o),
(387,479,qs),
(414,479,o),
(448,443,o),
(448,415,qs),
(448,389,o),
(414,353,o),
(388,353,qs)
);
}
);
userData = {
assembly = "NPUSHB[ ]	/* 103 values pushed */
40 1 6 10 1 76 0 4 6 5 6 4 5 128 0 7 0 9 10 7 9 105 14 1 10 0 6 4 10 6 105 0 5 13 1 8 3 5 8 105 0 2 2 0 97 0 0 0 39 77 12 1 3 3 1 98 11 1 1 1 40 1 78 56 56 32 32 16 16 0 0 56 67 56 66 62 60 32 55 32 54 50 48 44 42 38 36 35 34 16 31 16 30 24 22 0 15 0 14 38 15 8 23
CALL[ ]	/* CallFunction */";
};
width = 778;
}
);
note = uni2788;
unicode = 10120;
},
{
glyphname = uni278A;
layers = (
{
layerId = m01;
shapes = (
{
closed = 1;
nodes = (
(487,-12,o),
(654,85,o),
(751,252,o),
(751,350,qs),
(751,448,o),
(654,615,o),
(487,712,o),
(389,712,qs),
(291,712,o),
(124,615,o),
(27,448,o),
(27,350,qs),
(27,252,o),
(124,85,o),
(291,-12,o),
(389,-12,qs)
);
},
{
closed = 1;
nodes = (
(275,231,l),
(371,231,l),
(371,460,l),
(278,439,l),
(278,489,l),
(399,533,l),
(433,533,l),
(433,231,l),
(515,231,l),
(515,176,l),
(275,176,l)
);
}
);
userData = {
assembly = "NPUSHB[ ]	/* 62 values pushed */
23 22 21 3 2 3 1 76 4 1 2 3 5 3 2 5 128 0 3 3 0 97 0 0 0 39 77 7 1 5 5 1 97 6 1 1 1 40 1 78 16 16 0 0 16 26 16 26 25 24 20 19 18 17 0 15 0 14 38 8 8 23
CALL[ ]	/* CallFunction */";
};
width = 778;
}
);
note = uni278A;
unicode = 10122;
},
{
glyphname = uni278B;
layers = (
{
layerId = m01;
shapes = (
{
closed = 1;
nodes = (
(487,-12,o),
(654,85,o),
(751,252,o),
(751,350,qs),
(751,448,o),
(654,615,o),
(487,712,o),
(389,712,qs),
(291,712,o),
(124,615,o),
(27,448,o),
(27,350,qs),
(27,252,o),
(124,85,o),
(291,-12,o),
(389,-12,qs)
);
},
{
closed = 1;
nodes = (
(268,223,l),
(377,336,ls),
(390,349,o),
(421,382,o),
(442,416,o),
(442,431,qs),
(442,455,o),
(413,484,o),
(389,484,qs),
(361,484,o),
(332,449,o),
(332,421,q),
(268,421,l),
(269,477,o),
(335,540,o),
(390,540,qs),
(447,540,o),
(506,478,o),
(506,432,qs),
(506,399,o),
(465,341,o),
(431,309,qs),
(355,231,l),
(514,231,l),
(514,176,l),
(268,176,l)
);
}
);
userData = {
assembly = "PUSHB[ ]	/* 6 values pushed */
40 1 6 2 1 76
MPPEM[ ]	/* MeasurePixelPerEm */
PUSHB[ ]	/* 1 value pushed */
41
LT[ ]	/* LessThan */
IF[ ]	/* If */
NPUSHB[ ]	/* 41 values pushed */
0 4 5 2 5 4 2 128 0 3 3 0 97 0 0 0 39 77 0 2 2 5 97 0 5 5 36 77 8 1 6 6 1 98 7 1 1 1 40 1 78
ELSE[ ]	/* Else */
NPUSHB[ ]	/* 39 values pushed */
0 4 5 2 5 4 2 128 0 5 0 2 6 5 2 103 0 3 3 0 97 0 0 0 39 77 8 1 6 6 1 98 7 1 1 1 40 1 78
EIF[ ]	/* EndIf */
NPUSHB[ ]	/* 24 values pushed */
16 16 0 0 16 41 16 41 33 31 29 28 26 24 18 17 0 15 0 14 38 9 8 23
CALL[ ]	/* CallFunction */";
};
width = 778;
}
);
note = uni278B;
unicode = 10123;
},
{
glyphname = uni278C;
layers = (
{
layerId = m01;
shapes = (
{
closed = 1;
nodes = (
(487,-12,o),
(654,85,o),
(751,252,o),
(751,350,qs),
(751,448,o),
(654,615,o),
(487,712,o),
(389,712,qs),
(291,712,o),
(124,615,o),
(27,448,o),
(27,350,qs),
(27,252,o),
(124,85,o),
(291,-12,o),
(389,-12,qs)
);
},
{
closed = 1;
nodes = (
(334,158,o),
(263,218,o),
(261,275,q),
(325,275,l),
(325,248,o),
(362,214,o),
(390,214,qs),
(422,214,o),
(455,249,o),
(455,277,qs),
(455,306,o),
(418,337,o),
(391,337,qs),
(372,337,o),
(353,326,q),
(317,368,l),
(425,467,l),
(272,467,l),
(272,522,l),
(506,522,l),
(506,468,l),
(415,386,l),
(466,382,o),
(518,320,o),
(518,277,qs),
(518,227,o),
(450,158,o),
(390,158,qs)
);
}
);
userData = {
assembly = "NPUSHB[ ]	/* 80 values pushed */
22 1 3 2 27 21 2 4 3 28 1 6 4 3 76 0 3 0 6 5 3 6 103 0 4 0 5 7 4 5 105 0 2 2 0 97 0 0 0 39 77 9 1 7 7 1 97 8 1 1 1 40 1 78 16 16 0 0 16 43 16 42 40 39 37 35 31 29 26 25 24 23 0 15 0 14 38 10 8 23
CALL[ ]	/* CallFunction */";
};
width = 778;
}
);
note = uni278C;
unicode = 10124;
},
{
glyphname = uni278D;
layers = (
{
layerId = m01;
shapes = (
{
closed = 1;
nodes = (
(487,-12,o),
(654,85,o),
(751,252,o),
(751,350,qs),
(751,448,o),
(654,615,o),
(487,712,o),
(389,712,qs),
(291,712,o),
(124,615,o),
(27,448,o),
(27,350,qs),
(27,252,o),
(124,85,o),
(291,-12,o),
(389,-12,qs)
);
},
{
closed = 1;
nodes = (
(405,242,l),
(242,242,l),
(242,294,l),
(362,533,l),
(426,533,l),
(311,299,l),
(410,299,l),
(410,392,l),
(471,392,l),
(471,299,l),
(512,299,l),
(512,242,l),
(471,242,l),
(471,176,l),
(405,176,l)
);
}
);
userData = {
assembly = "PUSHB[ ]	/* 6 values pushed */
27 1 2 3 1 76
MPPEM[ ]	/* MeasurePixelPerEm */
PUSHB[ ]	/* 1 value pushed */
9
LT[ ]	/* LessThan */
IF[ ]	/* If */
NPUSHB[ ]	/* 45 values pushed */
0 4 6 3 6 4 114 5 1 3 2 6 3 2 126 7 1 2 8 8 2 112 0 6 6 0 97 0 0 0 39 77 10 1 8 8 1 98 9 1 1 1 40 1 78
ELSE[ ]	/* Else */
MPPEM[ ]	/* MeasurePixelPerEm */
PUSHB[ ]	/* 1 value pushed */
19
LT[ ]	/* LessThan */
IF[ ]	/* If */
NPUSHB[ ]	/* 46 values pushed */
0 4 6 3 6 4 3 128 5 1 3 2 6 3 2 126 7 1 2 8 8 2 112 0 6 6 0 97 0 0 0 39 77 10 1 8 8 1 98 9 1 1 1 40 1 78
ELSE[ ]	/* Else */
NPUSHB[ ]	/* 47 values pushed */
0 4 6 3 6 4 3 128 5 1 3 2 6 3 2 126 7 1 2 8 6 2 8 126 0 6 6 0 97 0 0 0 39 77 10 1 8 8 1 98 9 1 1 1 40 1 78
EIF[ ]	/* EndIf */
EIF[ ]	/* EndIf */
NPUSHB[ ]	/* 28 values pushed */
16 16 0 0 16 30 16 30 29 28 26 25 24 23 22 21 20 19 18 17 0 15 0 14 38 11 8 23
CALL[ ]	/* CallFunction */";
};
width = 778;
}
);
note = uni278D;
unicode = 10125;
},
{
glyphname = uni278E;
layers = (
{
layerId = m01;
shapes = (
{
closed = 1;
nodes = (
(487,-12,o),
(654,85,o),
(751,252,o),
(751,350,qs),
(751,448,o),
(654,615,o),
(487,712,o),
(389,712,qs),
(291,712,o),
(125,615,o),
(27,448,o),
(27,350,qs),
(27,252,o),
(125,85,o),
(291,-12,o),
(389,-12,qs)
);
},
{
closed = 1;
nodes = (
(338,160,o),
(264,220,o),
(262,267,q),
(326,267,l),
(331,243,o),
(367,216,o),
(393,216,qs),
(421,216,o),
(457,259,o),
(457,289,qs),
(457,320,o),
(423,359,o),
(394,359,qs),
(373,359,o),
(338,338,o),
(330,320,q),
(267,320,l),
(297,524,l),
(496,524,l),
(496,467,l),
(347,467,l),
(330,384,l),
(343,398,o),
(383,413,o),
(404,413,qs),
(459,413,o),
(520,343,o),
(520,290,qs),
(520,232,o),
(449,160,o),
(393,160,qs)
);
}
);
userData = {
assembly = "NPUSHB[ ]	/* 83 values pushed */
24 1 6 2 1 76 0 3 0 2 6 3 2 105 0 5 0 8 7 5 8 103 0 6 0 7 9 6 7 105 0 4 4 0 97 0 0 0 39 77 11 1 9 9 1 97 10 1 1 1 40 1 78 16 16 0 0 16 46 16 45 43 42 40 38 34 32 30 29 28 27 26 25 22 20 0 15 0 14 38 12 8 23
CALL[ ]	/* CallFunction */";
};
width = 778;
}
);
note = uni278E;
unicode = 10126;
},
{
glyphname = uni278F;
layers = (
{
layerId = m01;
shapes = (
{
closed = 1;
nodes = (
(487,-12,o),
(654,85,o),
(751,252,o),
(751,350,qs),
(751,448,o),
(654,615,o),
(487,712,o),
(389,712,qs),
(291,712,o),
(124,615,o),
(27,448,o),
(27,350,qs),
(27,252,o),
(124,85,o),
(291,-12,o),
(389,-12,qs)
);
},
{
closed = 1;
nodes = (
(416,221,o),
(452,256,o),
(452,284,qs),
(452,311,o),
(418,347,o),
(391,347,qs),
(366,347,o),
(330,311,o),
(330,285,qs),
(330,258,o),
(365,221,o),
(392,221,qs)
);
},
{
closed = 1;
nodes = (
(324,165,o),
(258,265,o),
(258,338,qs),
(258,420,o),
(324,535,o),
(393,535,qs),
(444,535,o),
(505,473,o),
(507,432,q),
(447,432,l),
(438,481,o),
(393,481,qs),
(354,481,o),
(322,406,o),
(322,354,q),
(333,375,o),
(379,402,o),
(406,402,qs),
(453,402,o),
(514,335,o),
(514,286,qs),
(514,237,o),
(448,165,o),
(395,165,qs)
);
}
);
userData = {
assembly = "PUSHB[ ]	/* 6 values pushed */
36 1 2 4 1 76
MPPEM[ ]	/* MeasurePixelPerEm */
PUSHB[ ]	/* 1 value pushed */
25
LT[ ]	/* LessThan */
IF[ ]	/* If */
NPUSHB[ ]	/* 49 values pushed */
0 6 5 4 5 6 114 0 2 10 1 3 8 2 3 105 0 7 7 0 97 0 0 0 39 77 0 4 4 5 97 0 5 5 36 77 11 1 8 8 1 97 9 1 1 1 40 1 78
ELSE[ ]	/* Else */
MPPEM[ ]	/* MeasurePixelPerEm */
PUSHB[ ]	/* 1 value pushed */
33
LT[ ]	/* LessThan */
IF[ ]	/* If */
NPUSHB[ ]	/* 50 values pushed */
0 6 5 4 5 6 4 128 0 2 10 1 3 8 2 3 105 0 7 7 0 97 0 0 0 39 77 0 4 4 5 97 0 5 5 36 77 11 1 8 8 1 97 9 1 1 1 40 1 78
ELSE[ ]	/* Else */
NPUSHB[ ]	/* 48 values pushed */
0 6 5 4 5 6 4 128 0 5 0 4 2 5 4 105 0 2 10 1 3 8 2 3 105 0 7 7 0 97 0 0 0 39 77 11 1 8 8 1 97 9 1 1 1 40 1 78
EIF[ ]	/* EndIf */
EIF[ ]	/* EndIf */
NPUSHB[ ]	/* 32 values pushed */
28 28 16 16 0 0 28 51 28 50 46 44 42 41 40 38 34 32 16 27 16 26 22 20 0 15 0 14 38 12 8 23
CALL[ ]	/* CallFunction */";
};
width = 778;
}
);
note = uni278F;
unicode = 10127;
},
{
glyphname = uni2790;
layers = (
{
layerId = m01;
shapes = (
{
closed = 1;
nodes = (
(487,-12,o),
(654,85,o),
(751,252,o),
(751,350,qs),
(751,448,o),
(654,615,o),
(487,712,o),
(389,712,qs),
(291,712,o),
(124,615,o),
(27,448,o),
(27,350,qs),
(27,252,o),
(124,85,o),
(291,-12,o),
(389,-12,qs)
);
},
{
closed = 1;
nodes = (
(453,469,l),
(261,469,l),
(261,524,l),
(522,524,l),
(522,478,l),
(379,167,l),
(311,167,l)
);
}
);
userData = {
assembly = "NPUSHB[ ]	/* 57 values pushed */
17 1 3 2 1 76 0 3 2 4 2 3 4 128 0 2 2 0 97 0 0 0 39 77 6 1 4 4 1 98 5 1 1 1 40 1 78 16 16 0 0 16 22 16 22 21 20 19 18 0 15 0 14 38 7 8 23
CALL[ ]	/* CallFunction */";
};
width = 778;
}
);
note = uni2790;
unicode = 10128;
},
{
glyphname = uni2791;
layers = (
{
layerId = m01;
shapes = (
{
closed = 1;
nodes = (
(487,-12,o),
(654,85,o),
(751,252,o),
(751,350,qs),
(751,448,o),
(654,615,o),
(487,712,o),
(389,712,qs),
(291,712,o),
(124,615,o),
(27,448,o),
(27,350,qs),
(27,252,o),
(124,85,o),
(291,-12,o),
(389,-12,qs)
);
},
{
closed = 1;
nodes = (
(338,165,o),
(264,222,o),
(264,271,qs),
(264,302,o),
(296,354,o),
(324,363,q),
(273,387,o),
(273,439,qs),
(273,483,o),
(337,535,o),
(389,535,qs),
(440,535,o),
(506,482,o),
(506,439,qs),
(506,417,o),
(481,375,o),
(455,363,q),
(483,353,o),
(514,303,o),
(514,271,qs),
(514,221,o),
(441,165,o),
(389,165,qs)
);
},
{
closed = 1;
nodes = (
(417,220,o),
(450,249,o),
(450,276,qs),
(450,305,o),
(417,334,o),
(390,334,qs),
(363,334,o),
(329,306,o),
(329,276,qs),
(329,249,o),
(360,220,o),
(390,220,qs)
);
},
{
closed = 1;
nodes = (
(416,383,o),
(441,411,o),
(441,432,qs),
(441,456,o),
(413,482,o),
(389,482,qs),
(338,482,o),
(338,432,qs),
(338,410,o),
(365,383,o),
(389,383,qs)
);
}
);
userData = {
assembly = "PUSHB[ ]	/* 7 values pushed */
32 21 2 4 7 1 76
MPPEM[ ]	/* MeasurePixelPerEm */
PUSHB[ ]	/* 1 value pushed */
35
LT[ ]	/* LessThan */
IF[ ]	/* If */
NPUSHB[ ]	/* 43 values pushed */
0 4 10 1 5 3 4 5 105 0 2 2 0 97 0 0 0 39 77 11 1 7 7 6 97 0 6 6 36 77 9 1 3 3 1 97 8 1 1 1 40 1 78
ELSE[ ]	/* Else */
NPUSHB[ ]	/* 41 values pushed */
0 6 11 1 7 4 6 7 105 0 4 10 1 5 3 4 5 105 0 2 2 0 97 0 0 0 39 77 9 1 3 3 1 97 8 1 1 1 40 1 78
EIF[ ]	/* EndIf */
NPUSHB[ ]	/* 34 values pushed */
51 51 39 39 16 16 0 0 51 61 51 60 56 54 39 50 39 49 45 43 16 38 16 37 28 26 0 15 0 14 38 12 8 23
CALL[ ]	/* CallFunction */";
};
width = 778;
}
);
note = uni2791;
unicode = 10129;
},
{
glyphname = uni2792;
layers = (
{
layerId = m01;
shapes = (
{
closed = 1;
nodes = (
(487,-12,o),
(654,85,o),
(751,252,o),
(751,350,qs),
(751,448,o),
(654,615,o),
(487,712,o),
(389,712,qs),
(291,712,o),
(124,615,o),
(27,448,o),
(27,350,qs),
(27,252,o),
(124,85,o),
(291,-12,o),
(389,-12,qs)
);
},
{
closed = 1;
nodes = (
(336,165,o),
(276,222,o),
(271,268,q),
(331,268,l),
(341,219,o),
(386,219,qs),
(424,219,o),
(456,294,o),
(457,346,q),
(445,326,o),
(401,298,o),
(372,298,qs),
(327,298,o),
(264,364,o),
(264,414,qs),
(264,463,o),
(331,535,o),
(383,535,qs),
(456,535,o),
(521,432,o),
(521,362,qs),
(521,279,o),
(454,165,o),
(385,165,qs)
);
},
{
closed = 1;
nodes = (
(414,353,o),
(448,389,o),
(448,415,qs),
(448,443,o),
(414,479,o),
(387,479,qs),
(360,479,o),
(327,443,o),
(327,416,qs),
(327,388,o),
(360,353,o),
(388,353,qs)
);
}
);
userData = {
assembly = "PUSHB[ ]	/* 6 values pushed */
30 1 3 8 1 76
MPPEM[ ]	/* MeasurePixelPerEm */
PUSHB[ ]	/* 1 value pushed */
25
LT[ ]	/* LessThan */
IF[ ]	/* If */
NPUSHB[ ]	/* 49 values pushed */
0 5 3 4 4 5 114 0 3 0 4 6 3 4 105 0 2 2 0 97 0 0 0 39 77 11 1 8 8 7 97 0 7 7 36 77 10 1 6 6 1 97 9 1 1 1 40 1 78
ELSE[ ]	/* Else */
MPPEM[ ]	/* MeasurePixelPerEm */
PUSHB[ ]	/* 1 value pushed */
29
LT[ ]	/* LessThan */
IF[ ]	/* If */
NPUSHB[ ]	/* 50 values pushed */
0 5 3 4 3 5 4 128 0 3 0 4 6 3 4 105 0 2 2 0 97 0 0 0 39 77 11 1 8 8 7 97 0 7 7 36 77 10 1 6 6 1 97 9 1 1 1 40 1 78
ELSE[ ]	/* Else */
NPUSHB[ ]	/* 48 values pushed */
0 5 3 4 3 5 4 128 0 7 11 1 8 3 7 8 105 0 3 0 4 6 3 4 105 0 2 2 0 97 0 0 0 39 77 10 1 6 6 1 97 9 1 1 1 40 1 78
EIF[ ]	/* EndIf */
EIF[ ]	/* EndIf */
NPUSHB[ ]	/* 32 values pushed */
40 40 16 16 0 0 40 51 40 50 46 44 16 39 16 38 36 35 34 32 28 26 22 20 0 15 0 14 38 12 8 23
CALL[ ]	/* CallFunction */";
};
width = 778;
}
);
note = uni2792;
unicode = 10130;
},
{
glyphname = uni24EA.solid;
layers = (
{
layerId = m01;
shapes = (
{
closed = 1;
nodes = (
(487,-12,o),
(654,85,o),
(751,252,o),
(751,350,qs),
(751,448,o),
(654,615,o),
(487,712,o),
(389,712,qs),
(291,712,o),
(124,615,o),
(27,448,o),
(27,350,qs),
(27,252,o),
(124,85,o),
(291,-12,o),
(389,-12,qs)
);
},
{
closed = 1;
nodes = (
(320,165,o),
(287,216,qs),
(254,266,o),
(254,350,qs),
(254,435,o),
(287,484,qs),
(320,535,o),
(389,535,qs),
(459,535,o),
(491,485,qs),
(524,436,o),
(524,350,qs),
(524,265,o),
(491,215,qs),
(459,165,o),
(389,165,qs)
);
},
{
closed = 1;
nodes = (
(424,223,o),
(440,256,qs),
(457,289,o),
(457,350,qs),
(457,411,o),
(440,444,qs),
(424,477,o),
(389,477,qs),
(355,477,o),
(338,444,qs),
(321,411,o),
(321,350,qs),
(321,289,o),
(338,256,qs),
(355,223,o),
(389,223,qs)
);
}
);
userData = {
assembly = "MPPEM[ ]	/* MeasurePixelPerEm */
PUSHB[ ]	/* 1 value pushed */
27
LT[ ]	/* LessThan */
IF[ ]	/* If */
NPUSHB[ ]	/* 34 values pushed */
0 2 2 0 97 0 0 0 39 77 8 1 5 5 4 97 0 4 4 36 77 7 1 3 3 1 97 6 1 1 1 40 1 78
ELSE[ ]	/* Else */
NPUSHB[ ]	/* 32 values pushed */
0 4 8 1 5 3 4 5 105 0 2 2 0 97 0 0 0 39 77 7 1 3 3 1 97 6 1 1 1 40 1 78
EIF[ ]	/* EndIf */
NPUSHB[ ]	/* 26 values pushed */
32 32 16 16 0 0 32 47 32 46 40 38 16 31 16 30 24 22 0 15 0 14 38 9 8 23
CALL[ ]	/* CallFunction */";
};
width = 778;
}
);
note = uni24EA.solid;
},
{
glyphname = zero.dnom;
layers = (
{
layerId = m01;
shapes = (
{
closed = 1;
nodes = (
(231,-5,o),
(294,93,o),
(294,177,qs),
(294,260,o),
(230,358,o),
(162,358,qs),
(94,358,o),
(30,259,o),
(30,177,qs),
(30,95,o),
(94,-5,o),
(162,-5,qs)
);
},
{
closed = 1;
nodes = (
(128,52,o),
(95,118,o),
(95,177,qs),
(95,236,o),
(128,301,o),
(162,301,qs),
(196,301,o),
(229,236,o),
(229,177,qs),
(229,118,o),
(196,52,o),
(162,52,qs)
);
}
);
userData = {
assembly = "NPUSHB[ ]	/* 39 values pushed */
0 0 0 2 3 0 2 105 5 1 3 3 1 97 4 1 1 1 34 1 78 12 12 0 0 12 23 12 22 18 16 0 11 0 10 36 6 8 23
CALL[ ]	/* CallFunction */";
};
width = 324;
}
);
note = zero.dnom;
},
{
glyphname = one.dnom;
layers = (
{
layerId = m01;
shapes = (
{
closed = 1;
nodes = (
(281,0,l),
(281,55,l),
(198,55,l),
(198,353,l),
(164,353,l),
(45,309,l),
(45,260,l),
(137,281,l),
(137,55,l),
(42,55,l),
(42,0,l)
);
}
);
userData = {
assembly = "NPUSHB[ ]	/* 32 values pushed */
4 3 2 3 0 1 1 76 0 1 0 1 133 2 1 0 0 3 96 0 3 3 34 3 78 17 17 20 16 4 8 26
CALL[ ]	/* CallFunction */";
};
width = 316;
}
);
note = one.dnom;
},
{
glyphname = two.dnom;
layers = (
{
layerId = m01;
shapes = (
{
closed = 1;
nodes = (
(33,0,l),
(275,0,l),
(275,55,l),
(118,55,l),
(186,123,ls),
(220,158,o),
(246,189,o),
(267,230,o),
(267,253,qs),
(267,299,o),
(209,358,o),
(153,358,qs),
(99,358,o),
(34,298,o),
(33,242,q),
(96,242,l),
(96,268,o),
(125,304,o),
(151,304,qs),
(175,304,o),
(204,275,o),
(204,252,qs),
(204,232,o),
(172,191,o),
(136,155,qs),
(121,139,l),
(33,47,l)
);
}
);
userData = {
assembly = "NPUSHB[ ]	/* 41 values pushed */
26 1 4 3 1 76 0 1 0 3 0 1 3 128 0 2 0 0 1 2 0 105 0 3 3 4 95 0 4 4 34 4 78 17 23 34 18 38 5 8 27
CALL[ ]	/* CallFunction */";
};
width = 310;
}
);
note = two.dnom;
},
{
glyphname = three.dnom;
layers = (
{
layerId = m01;
shapes = (
{
closed = 1;
nodes = (
(217,-5,o),
(286,57,o),
(286,112,qs),
(286,155,o),
(234,215,o),
(186,219,q),
(275,300,l),
(275,353,l),
(45,353,l),
(45,298,l),
(196,298,l),
(88,202,l),
(124,160,l),
(142,170,o),
(161,170,qs),
(190,170,o),
(224,140,o),
(224,112,qs),
(224,82,o),
(190,50,o),
(161,50,qs),
(131,50,o),
(97,83,o),
(97,110,q),
(34,110,l),
(36,55,o),
(104,-5,o),
(161,-5,qs)
);
}
);
userData = {
assembly = "NPUSHB[ ]	/* 15 values pushed */
20 1 3 4 21 15 2 2 3 14 1 0 2 3 76
MPPEM[ ]	/* MeasurePixelPerEm */
PUSHB[ ]	/* 1 value pushed */
9
LT[ ]	/* LessThan */
IF[ ]	/* If */
NPUSHB[ ]	/* 34 values pushed */
0 2 3 0 3 2 114 0 0 1 3 0 1 126 0 4 0 3 2 4 3 103 0 1 1 5 97 6 1 5 5 34 5 78
ELSE[ ]	/* Else */
NPUSHB[ ]	/* 35 values pushed */
0 2 3 0 3 2 0 128 0 0 1 3 0 1 126 0 4 0 3 2 4 3 103 0 1 1 5 97 6 1 5 5 34 5 78
EIF[ ]	/* EndIf */
NPUSHB[ ]	/* 14 values pushed */
0 0 0 27 0 26 17 19 36 34 18 7 8 27
CALL[ ]	/* CallFunction */";
};
width = 320;
}
);
note = three.dnom;
},
{
glyphname = four.dnom;
layers = (
{
layerId = m01;
shapes = (
{
closed = 1;
nodes = (
(247,0,l),
(247,66,l),
(288,66,l),
(288,122,l),
(247,122,l),
(247,213,l),
(187,213,l),
(187,122,l),
(90,122,l),
(204,353,l),
(140,353,l),
(21,117,l),
(21,66,l),
(183,66,l),
(183,0,l)
);
}
);
userData = {
assembly = "PUSHB[ ]	/* 6 values pushed */
2 1 0 2 1 76
MPPEM[ ]	/* MeasurePixelPerEm */
PUSHB[ ]	/* 1 value pushed */
13
LT[ ]	/* LessThan */
IF[ ]	/* If */
NPUSHB[ ]	/* 27 values pushed */
0 1 3 1 133 0 3 2 2 3 112 4 1 2 5 1 0 6 2 0 104 0 6 6 34 6 78
ELSE[ ]	/* Else */
NPUSHB[ ]	/* 26 values pushed */
0 1 3 1 133 0 3 2 3 133 4 1 2 5 1 0 6 2 0 104 0 6 6 34 6 78
EIF[ ]	/* EndIf */
NPUSHB[ ]	/* 10 values pushed */
17 17 17 17 17 18 16 7 8 29
CALL[ ]	/* CallFunction */";
};
width = 304;
}
);
note = four.dnom;
},
{
glyphname = five.dnom;
layers = (
{
layerId = m01;
shapes = (
{
closed = 1;
nodes = (
(211,-5,o),
(282,66,o),
(282,122,qs),
(282,173,o),
(221,243,o),
(168,243,qs),
(145,243,o),
(107,228,o),
(95,215,q),
(111,297,l),
(258,297,l),
(258,353,l),
(63,353,l),
(33,152,l),
(95,152,l),
(102,169,o),
(135,191,o),
(157,191,qs),
(185,191,o),
(220,153,o),
(220,122,qs),
(220,91,o),
(184,50,o),
(156,50,qs),
(131,50,o),
(96,78,o),
(91,100,q),
(28,100,l),
(30,57,o),
(98,-5,o),
(156,-5,qs)
);
}
);
userData = {
assembly = "PUSHB[ ]	/* 6 values pushed */
21 1 2 6 1 76
MPPEM[ ]	/* MeasurePixelPerEm */
PUSHB[ ]	/* 1 value pushed */
9
LT[ ]	/* LessThan */
IF[ ]	/* If */
NPUSHB[ ]	/* 42 values pushed */
0 3 2 0 5 3 114 0 0 1 2 0 1 126 0 4 0 5 6 4 5 103 0 6 0 2 3 6 2 105 0 1 1 7 97 8 1 7 7 34 7 78
ELSE[ ]	/* Else */
NPUSHB[ ]	/* 43 values pushed */
0 3 2 0 2 3 0 128 0 0 1 2 0 1 126 0 4 0 5 6 4 5 103 0 6 0 2 3 6 2 105 0 1 1 7 97 8 1 7 7 34 7 78
EIF[ ]	/* EndIf */
NPUSHB[ ]	/* 16 values pushed */
0 0 0 30 0 29 35 17 17 18 36 34 18 9 8 29
CALL[ ]	/* CallFunction */";
};
width = 312;
}
);
note = five.dnom;
},
{
glyphname = six.dnom;
layers = (
{
layerId = m01;
shapes = (
{
closed = 1;
nodes = (
(216,-5,o),
(282,66,o),
(282,114,qs),
(282,160,o),
(222,228,o),
(176,228,qs),
(149,228,o),
(104,201,o),
(93,180,q),
(94,242,o),
(130,305,o),
(162,305,qs),
(206,305,o),
(216,257,q),
(275,257,l),
(270,302,o),
(209,358,o),
(163,358,qs),
(95,358,o),
(30,246,o),
(30,165,qs),
(30,91,o),
(98,-5,o),
(165,-5,qs)
);
},
{
closed = 1;
nodes = (
(135,50,o),
(101,85,o),
(101,112,qs),
(101,138,o),
(135,173,o),
(160,173,qs),
(187,173,o),
(220,139,o),
(220,111,qs),
(220,85,o),
(187,50,o),
(161,50,qs)
);
}
);
userData = {
assembly = "NPUSHB[ ]	/* 64 values pushed */
14 1 5 3 1 76 0 1 2 3 2 1 3 128 0 0 0 2 1 0 2 105 0 3 0 5 6 3 5 105 8 1 6 6 4 97 7 1 4 4 34 4 78 24 24 0 0 24 35 24 34 30 28 0 23 0 22 36 33 18 36 9 8 26
CALL[ ]	/* CallFunction */";
};
width = 312;
}
);
note = six.dnom;
},
{
glyphname = seven.dnom;
layers = (
{
layerId = m01;
shapes = (
{
closed = 1;
nodes = (
(147,0,l),
(288,307,l),
(288,353,l),
(30,353,l),
(30,298,l),
(220,298,l),
(80,0,l)
);
}
);
userData = {
assembly = "NPUSHB[ ]	/* 26 values pushed */
4 1 0 1 1 76 0 1 0 0 2 1 0 103 0 2 2 34 2 78 18 17 16 3 8 25
CALL[ ]	/* CallFunction */";
};
width = 318;
}
);
note = seven.dnom;
},
{
glyphname = eight.dnom;
layers = (
{
layerId = m01;
shapes = (
{
closed = 1;
nodes = (
(203,-5,o),
(275,51,o),
(275,99,qs),
(275,130,o),
(245,179,o),
(217,190,q),
(240,200,o),
(267,240,o),
(267,264,qs),
(267,307,o),
(201,358,o),
(153,358,qs),
(105,358,o),
(39,307,o),
(39,264,qs),
(39,240,o),
(65,200,o),
(88,190,q),
(60,178,o),
(30,130,o),
(30,99,qs),
(30,52,o),
(101,-5,o),
(153,-5,qs)
);
},
{
closed = 1;
nodes = (
(124,49,o),
(93,79,o),
(93,104,qs),
(93,131,o),
(126,161,o),
(154,161,qs),
(181,161,o),
(213,131,o),
(213,104,qs),
(213,78,o),
(181,49,o),
(154,49,qs)
);
},
{
closed = 1;
nodes = (
(130,209,o),
(102,235,o),
(102,257,qs),
(102,280,o),
(129,306,o),
(153,306,qs),
(176,306,o),
(204,280,o),
(204,257,qs),
(204,235,o),
(176,209,o),
(153,209,qs)
);
}
);
userData = {
assembly = "NPUSHB[ ]	/* 63 values pushed */
17 5 2 2 5 1 76 0 0 0 4 5 0 4 105 8 1 5 0 2 3 5 2 105 7 1 3 3 1 97 6 1 1 1 34 1 78 36 36 24 24 0 0 36 47 36 46 42 40 24 35 24 34 30 28 0 23 0 22 42 9 8 23
CALL[ ]	/* CallFunction */";
};
width = 305;
}
);
note = eight.dnom;
},
{
glyphname = nine.dnom;
layers = (
{
layerId = m01;
shapes = (
{
closed = 1;
nodes = (
(217,-5,o),
(282,107,o),
(282,188,qs),
(282,262,o),
(214,358,o),
(147,358,qs),
(96,358,o),
(30,287,o),
(30,239,qs),
(30,193,o),
(90,125,o),
(136,125,qs),
(163,125,o),
(208,152,o),
(219,173,q),
(218,111,o),
(182,48,o),
(150,48,qs),
(106,48,o),
(96,96,q),
(37,96,l),
(42,51,o),
(103,-5,o),
(149,-5,qs)
);
},
{
closed = 1;
nodes = (
(125,180,o),
(92,214,o),
(92,242,qs),
(92,268,o),
(125,303,o),
(151,303,qs),
(177,303,o),
(211,268,o),
(211,241,qs),
(211,215,o),
(177,180,o),
(152,180,qs)
);
}
);
userData = {
assembly = "NPUSHB[ ]	/* 64 values pushed */
8 1 2 6 1 76 0 0 2 1 2 0 1 128 0 3 0 5 6 3 5 105 8 1 6 0 2 0 6 2 105 0 1 1 4 97 7 1 4 4 34 4 78 24 24 0 0 24 35 24 34 30 28 0 23 0 22 36 36 33 18 9 8 26
CALL[ ]	/* CallFunction */";
};
width = 312;
}
);
note = nine.dnom;
},
{
glyphname = zero.numr;
layers = (
{
layerId = m01;
shapes = (
{
closed = 1;
nodes = (
(231,342,o),
(294,440,o),
(294,524,qs),
(294,607,o),
(230,705,o),
(162,705,qs),
(94,705,o),
(30,606,o),
(30,524,qs),
(30,442,o),
(94,342,o),
(162,342,qs)
);
},
{
closed = 1;
nodes = (
(128,399,o),
(95,465,o),
(95,524,qs),
(95,583,o),
(128,648,o),
(162,648,qs),
(196,648,o),
(229,583,o),
(229,524,qs),
(229,465,o),
(196,399,o),
(162,399,qs)
);
}
);
userData = {
assembly = "NPUSHB[ ]	/* 38 values pushed */
5 1 3 4 1 1 3 1 101 0 2 2 0 97 0 0 0 33 2 78 12 12 0 0 12 23 12 22 18 16 0 11 0 10 36 6 8 23
CALL[ ]	/* CallFunction */";
};
width = 324;
}
);
note = zero.numr;
},
{
glyphname = one.numr;
layers = (
{
layerId = m01;
shapes = (
{
closed = 1;
nodes = (
(281,347,l),
(281,402,l),
(198,402,l),
(198,700,l),
(164,700,l),
(45,656,l),
(45,607,l),
(137,628,l),
(137,402,l),
(42,402,l),
(42,347,l)
);
}
);
userData = {
assembly = "NPUSHB[ ]	/* 29 values pushed */
4 3 2 3 0 1 1 76 2 1 0 0 3 0 3 100 0 1 1 33 1 78 17 17 20 16 4 8 26
CALL[ ]	/* CallFunction */";
};
width = 316;
}
);
note = one.numr;
},
{
glyphname = two.numr;
layers = (
{
layerId = m01;
shapes = (
{
closed = 1;
nodes = (
(33,347,l),
(275,347,l),
(275,402,l),
(118,402,l),
(186,470,ls),
(220,505,o),
(246,536,o),
(267,577,o),
(267,600,qs),
(267,646,o),
(209,705,o),
(153,705,qs),
(99,705,o),
(34,645,o),
(33,589,q),
(96,589,l),
(96,615,o),
(125,651,o),
(151,651,qs),
(175,651,o),
(204,622,o),
(204,599,qs),
(204,579,o),
(172,538,o),
(136,502,qs),
(121,486,l),
(33,394,l)
);
}
);
userData = {
assembly = "NPUSHB[ ]	/* 40 values pushed */
26 1 4 3 1 76 0 1 0 3 0 1 3 128 0 3 0 4 3 4 99 0 0 0 2 97 0 2 2 33 0 78 17 23 34 18 38 5 8 27
CALL[ ]	/* CallFunction */";
};
width = 310;
}
);
note = two.numr;
},
{
glyphname = three.numr;
layers = (
{
layerId = m01;
shapes = (
{
closed = 1;
nodes = (
(217,342,o),
(286,404,o),
(286,459,qs),
(286,502,o),
(234,562,o),
(186,566,q),
(275,647,l),
(275,700,l),
(45,700,l),
(45,645,l),
(196,645,l),
(88,549,l),
(124,507,l),
(142,517,o),
(161,517,qs),
(190,517,o),
(224,487,o),
(224,459,qs),
(224,429,o),
(190,397,o),
(161,397,qs),
(131,397,o),
(97,430,o),
(97,457,q),
(34,457,l),
(36,402,o),
(104,342,o),
(161,342,qs)
);
}
);
userData = {
assembly = "NPUSHB[ ]	/* 15 values pushed */
20 1 3 4 21 15 2 2 3 14 1 0 2 3 76
MPPEM[ ]	/* MeasurePixelPerEm */
PUSHB[ ]	/* 1 value pushed */
9
LT[ ]	/* LessThan */
IF[ ]	/* If */
NPUSHB[ ]	/* 33 values pushed */
0 2 3 0 3 2 114 0 0 1 3 0 1 126 0 1 6 1 5 1 5 101 0 3 3 4 95 0 4 4 33 3 78
ELSE[ ]	/* Else */
NPUSHB[ ]	/* 34 values pushed */
0 2 3 0 3 2 0 128 0 0 1 3 0 1 126 0 1 6 1 5 1 5 101 0 3 3 4 95 0 4 4 33 3 78
EIF[ ]	/* EndIf */
NPUSHB[ ]	/* 14 values pushed */
0 0 0 27 0 26 17 19 36 34 18 7 8 27
CALL[ ]	/* CallFunction */";
};
width = 320;
}
);
note = three.numr;
},
{
glyphname = four.numr;
layers = (
{
layerId = m01;
shapes = (
{
closed = 1;
nodes = (
(247,347,l),
(247,413,l),
(288,413,l),
(288,469,l),
(247,469,l),
(247,560,l),
(187,560,l),
(187,469,l),
(90,469,l),
(204,700,l),
(140,700,l),
(21,464,l),
(21,413,l),
(183,413,l),
(183,347,l)
);
}
);
userData = {
assembly = "PUSHB[ ]	/* 6 values pushed */
2 1 0 2 1 76
MPPEM[ ]	/* MeasurePixelPerEm */
PUSHB[ ]	/* 1 value pushed */
13
LT[ ]	/* LessThan */
IF[ ]	/* If */
NPUSHB[ ]	/* 29 values pushed */
0 3 1 2 2 3 114 0 6 0 0 6 113 4 1 2 5 1 0 6 2 0 104 0 1 1 33 1 78
ELSE[ ]	/* Else */
MPPEM[ ]	/* MeasurePixelPerEm */
PUSHB[ ]	/* 1 value pushed */
19
LT[ ]	/* LessThan */
IF[ ]	/* If */
NPUSHB[ ]	/* 30 values pushed */
0 3 1 2 1 3 2 128 0 6 0 0 6 113 4 1 2 5 1 0 6 2 0 104 0 1 1 33 1 78
ELSE[ ]	/* Else */
NPUSHB[ ]	/* 29 values pushed */
0 3 1 2 1 3 2 128 0 6 0 6 134 4 1 2 5 1 0 6 2 0 104 0 1 1 33 1 78
EIF[ ]	/* EndIf */
EIF[ ]	/* EndIf */
NPUSHB[ ]	/* 10 values pushed */
17 17 17 17 17 18 16 7 8 29
CALL[ ]	/* CallFunction */";
};
width = 304;
}
);
note = four.numr;
},
{
glyphname = five.numr;
layers = (
{
layerId = m01;
shapes = (
{
closed = 1;
nodes = (
(211,342,o),
(282,413,o),
(282,469,qs),
(282,520,o),
(221,590,o),
(168,590,qs),
(145,590,o),
(107,575,o),
(95,562,q),
(111,644,l),
(258,644,l),
(258,700,l),
(63,700,l),
(33,499,l),
(95,499,l),
(102,516,o),
(135,538,o),
(157,538,qs),
(185,538,o),
(220,500,o),
(220,469,qs),
(220,438,o),
(184,397,o),
(156,397,qs),
(131,397,o),
(96,425,o),
(91,447,q),
(28,447,l),
(30,404,o),
(98,342,o),
(156,342,qs)
);
}
);
userData = {
assembly = "PUSHB[ ]	/* 6 values pushed */
21 1 2 6 1 76
MPPEM[ ]	/* MeasurePixelPerEm */
PUSHB[ ]	/* 1 value pushed */
9
LT[ ]	/* LessThan */
IF[ ]	/* If */
NPUSHB[ ]	/* 41 values pushed */
0 3 2 0 5 3 114 0 0 1 2 0 1 126 0 6 0 2 3 6 2 105 0 1 8 1 7 1 7 101 0 5 5 4 95 0 4 4 33 5 78
ELSE[ ]	/* Else */
NPUSHB[ ]	/* 42 values pushed */
0 3 2 0 2 3 0 128 0 0 1 2 0 1 126 0 6 0 2 3 6 2 105 0 1 8 1 7 1 7 101 0 5 5 4 95 0 4 4 33 5 78
EIF[ ]	/* EndIf */
NPUSHB[ ]	/* 16 values pushed */
0 0 0 30 0 29 35 17 17 18 36 34 18 9 8 29
CALL[ ]	/* CallFunction */";
};
width = 312;
}
);
note = five.numr;
},
{
glyphname = six.numr;
layers = (
{
layerId = m01;
shapes = (
{
closed = 1;
nodes = (
(216,342,o),
(282,413,o),
(282,461,qs),
(282,507,o),
(222,575,o),
(176,575,qs),
(149,575,o),
(104,548,o),
(93,527,q),
(94,589,o),
(130,652,o),
(162,652,qs),
(206,652,o),
(216,604,q),
(275,604,l),
(270,649,o),
(209,705,o),
(163,705,qs),
(95,705,o),
(30,593,o),
(30,512,qs),
(30,438,o),
(98,342,o),
(165,342,qs)
);
},
{
closed = 1;
nodes = (
(135,397,o),
(101,432,o),
(101,459,qs),
(101,485,o),
(135,520,o),
(160,520,qs),
(187,520,o),
(220,486,o),
(220,458,qs),
(220,432,o),
(187,397,o),
(161,397,qs)
);
}
);
userData = {
assembly = "NPUSHB[ ]	/* 63 values pushed */
14 1 5 3 1 76 0 1 2 3 2 1 3 128 0 3 0 5 6 3 5 105 8 1 6 7 1 4 6 4 101 0 2 2 0 97 0 0 0 33 2 78 24 24 0 0 24 35 24 34 30 28 0 23 0 22 36 33 18 36 9 8 26
CALL[ ]	/* CallFunction */";
};
width = 312;
}
);
note = six.numr;
},
{
glyphname = seven.numr;
layers = (
{
layerId = m01;
shapes = (
{
closed = 1;
nodes = (
(147,347,l),
(288,654,l),
(288,700,l),
(30,700,l),
(30,645,l),
(220,645,l),
(80,347,l)
);
}
);
userData = {
assembly = "NPUSHB[ ]	/* 28 values pushed */
4 1 0 1 1 76 0 2 0 2 134 0 0 0 1 95 0 1 1 33 0 78 18 17 16 3 8 25
CALL[ ]	/* CallFunction */";
};
width = 318;
}
);
note = seven.numr;
},
{
glyphname = eight.numr;
layers = (
{
layerId = m01;
shapes = (
{
closed = 1;
nodes = (
(203,342,o),
(275,398,o),
(275,446,qs),
(275,477,o),
(245,526,o),
(217,537,q),
(240,547,o),
(267,587,o),
(267,611,qs),
(267,654,o),
(201,705,o),
(153,705,qs),
(105,705,o),
(39,654,o),
(39,611,qs),
(39,587,o),
(65,547,o),
(88,537,q),
(60,525,o),
(30,477,o),
(30,446,qs),
(30,399,o),
(101,342,o),
(153,342,qs)
);
},
{
closed = 1;
nodes = (
(124,396,o),
(93,426,o),
(93,451,qs),
(93,478,o),
(126,508,o),
(154,508,qs),
(181,508,o),
(213,478,o),
(213,451,qs),
(213,425,o),
(181,396,o),
(154,396,qs)
);
},
{
closed = 1;
nodes = (
(130,556,o),
(102,582,o),
(102,604,qs),
(102,627,o),
(129,653,o),
(153,653,qs),
(176,653,o),
(204,627,o),
(204,604,qs),
(204,582,o),
(176,556,o),
(153,556,qs)
);
}
);
userData = {
assembly = "NPUSHB[ ]	/* 62 values pushed */
17 5 2 2 5 1 76 8 1 5 0 2 3 5 2 105 7 1 3 6 1 1 3 1 101 0 4 4 0 97 0 0 0 33 4 78 36 36 24 24 0 0 36 47 36 46 42 40 24 35 24 34 30 28 0 23 0 22 42 9 8 23
CALL[ ]	/* CallFunction */";
};
width = 305;
}
);
note = eight.numr;
},
{
glyphname = nine.numr;
layers = (
{
layerId = m01;
shapes = (
{
closed = 1;
nodes = (
(217,342,o),
(282,454,o),
(282,535,qs),
(282,609,o),
(214,705,o),
(147,705,qs),
(96,705,o),
(30,634,o),
(30,586,qs),
(30,540,o),
(90,472,o),
(136,472,qs),
(163,472,o),
(208,499,o),
(219,520,q),
(218,458,o),
(182,395,o),
(150,395,qs),
(106,395,o),
(96,443,q),
(37,443,l),
(42,398,o),
(103,342,o),
(149,342,qs)
);
},
{
closed = 1;
nodes = (
(125,527,o),
(92,561,o),
(92,589,qs),
(92,615,o),
(125,650,o),
(151,650,qs),
(177,650,o),
(211,615,o),
(211,588,qs),
(211,562,o),
(177,527,o),
(152,527,qs)
);
}
);
userData = {
assembly = "PUSHB[ ]	/* 6 values pushed */
8 1 2 6 1 76
MPPEM[ ]	/* MeasurePixelPerEm */
PUSHB[ ]	/* 1 value pushed */
27
LT[ ]	/* LessThan */
IF[ ]	/* If */
NPUSHB[ ]	/* 38 values pushed */
0 0 2 1 2 0 1 128 0 1 7 1 4 1 4 101 0 5 5 3 97 0 3 3 33 77 0 2 2 6 97 8 1 6 6 42 2 78
ELSE[ ]	/* Else */
NPUSHB[ ]	/* 36 values pushed */
0 0 2 1 2 0 1 128 8 1 6 0 2 0 6 2 105 0 1 7 1 4 1 4 101 0 5 5 3 97 0 3 3 33 5 78
EIF[ ]	/* EndIf */
NPUSHB[ ]	/* 21 values pushed */
24 24 0 0 24 35 24 34 30 28 0 23 0 22 36 36 33 18 9 8 26
CALL[ ]	/* CallFunction */";
};
width = 312;
}
);
note = nine.numr;
},
{
glyphname = fraction;
layers = (
{
layerId = m01;
shapes = (
{
closed = 1;
nodes = (
(63,0,l),
(583,700,l),
(512,700,l),
(-7,0,l)
);
}
);
userData = {
assembly = "NPUSHB[ ]	/* 16 values pushed */
0 0 0 33 77 0 1 1 34 1 78 17 16 2 8 24
CALL[ ]	/* CallFunction */";
};
width = 571;
}
);
note = fraction;
unicode = 8260;
},
{
glyphname = onehalf;
layers = (
{
layerId = m01;
shapes = (
{
closed = 1;
nodes = (
(279,347,l),
(279,402,l),
(196,402,l),
(196,700,l),
(162,700,l),
(43,657,l),
(43,607,l),
(135,628,l),
(135,402,l),
(40,402,l),
(40,347,l)
);
},
{
closed = 1;
nodes = (
(168,0,l),
(688,700,l),
(617,700,l),
(98,0,l)
);
},
{
closed = 1;
nodes = (
(720,0,l),
(720,55,l),
(563,55,l),
(631,123,ls),
(665,159,o),
(691,189,o),
(712,229,o),
(712,252,qs),
(712,298,o),
(654,358,o),
(598,358,qs),
(544,358,o),
(479,297,o),
(478,242,q),
(541,242,l),
(541,268,o),
(570,304,o),
(596,304,qs),
(620,304,o),
(649,275,o),
(649,251,qs),
(649,233,o),
(619,193,o),
(586,159,qs),
(566,139,l),
(478,46,l),
(478,0,l)
);
}
);
userData = {
assembly = "PUSHB[ ]	/* 2 values pushed */
6 100
WCVTP[ ]	/* WriteCVTInPixels */
NPUSHB[ ]	/* 76 values pushed */
4 3 2 3 0 1 15 1 5 9 2 76 4 1 1 0 1 133 0 7 6 9 6 7 9 128 2 1 0 0 3 6 0 3 104 0 8 0 6 7 8 6 105 0 9 5 5 9 87 0 9 9 5 95 10 1 5 9 5 79 41 40 39 38 34 18 40 17 17 17 17 20 16 11 8 31
CALL[ ]	/* CallFunction */
PUSHB[ ]	/* 2 values pushed */
6 0
WCVTP[ ]	/* WriteCVTInPixels */";
};
width = 765;
}
);
note = onehalf;
unicode = 189;
},
{
glyphname = onequarter;
layers = (
{
layerId = m01;
shapes = (
{
closed = 1;
nodes = (
(168,0,l),
(688,700,l),
(617,700,l),
(98,0,l)
);
},
{
closed = 1;
nodes = (
(279,347,l),
(279,402,l),
(196,402,l),
(196,700,l),
(162,700,l),
(43,657,l),
(43,607,l),
(135,628,l),
(135,402,l),
(40,402,l),
(40,347,l)
);
},
{
closed = 1;
nodes = (
(678,0,l),
(678,66,l),
(719,66,l),
(719,122,l),
(678,122,l),
(678,213,l),
(618,213,l),
(618,122,l),
(521,122,l),
(635,353,l),
(571,353,l),
(452,117,l),
(452,66,l),
(614,66,l),
(614,0,l)
);
}
);
userData = {
assembly = "PUSHB[ ]	/* 2 values pushed */
6 100
WCVTP[ ]	/* WriteCVTInPixels */
NPUSHB[ ]	/* 12 values pushed */
8 7 6 3 2 0 17 1 6 8 2 76
MPPEM[ ]	/* MeasurePixelPerEm */
PUSHB[ ]	/* 1 value pushed */
13
LT[ ]	/* LessThan */
IF[ ]	/* If */
NPUSHB[ ]	/* 56 values pushed */
3 1 0 2 0 133 0 7 2 5 2 7 5 128 0 9 5 8 8 9 114 12 1 1 6 6 1 113 4 1 2 0 5 9 2 5 104 10 1 8 6 6 8 87 10 1 8 8 6 96 11 1 6 8 6 80
ELSE[ ]	/* Else */
MPPEM[ ]	/* MeasurePixelPerEm */
PUSHB[ ]	/* 1 value pushed */
19
LT[ ]	/* LessThan */
IF[ ]	/* If */
NPUSHB[ ]	/* 57 values pushed */
3 1 0 2 0 133 0 7 2 5 2 7 5 128 0 9 5 8 5 9 8 128 12 1 1 6 6 1 113 4 1 2 0 5 9 2 5 104 10 1 8 6 6 8 87 10 1 8 8 6 96 11 1 6 8 6 80
ELSE[ ]	/* Else */
NPUSHB[ ]	/* 56 values pushed */
3 1 0 2 0 133 0 7 2 5 2 7 5 128 0 9 5 8 5 9 8 128 12 1 1 6 1 134 4 1 2 0 5 9 2 5 104 10 1 8 6 6 8 87 10 1 8 8 6 96 11 1 6 8 6 80
EIF[ ]	/* EndIf */
EIF[ ]	/* EndIf */
NPUSHB[ ]	/* 20 values pushed */
29 28 27 26 25 24 23 22 17 18 17 17 17 20 17 17 16 13 8 31
CALL[ ]	/* CallFunction */
PUSHB[ ]	/* 2 values pushed */
6 0
WCVTP[ ]	/* WriteCVTInPixels */";
};
width = 759;
}
);
note = onequarter;
unicode = 188;
},
{
glyphname = threequarters;
layers = (
{
layerId = m01;
shapes = (
{
closed = 1;
nodes = (
(167,0,l),
(687,700,l),
(616,700,l),
(97,0,l)
);
},
{
closed = 1;
nodes = (
(677,0,l),
(677,66,l),
(718,66,l),
(718,122,l),
(677,122,l),
(677,213,l),
(617,213,l),
(617,122,l),
(520,122,l),
(634,353,l),
(570,353,l),
(451,117,l),
(451,66,l),
(613,66,l),
(613,0,l)
);
},
{
closed = 1;
nodes = (
(223,342,o),
(292,404,o),
(292,459,qs),
(292,502,o),
(240,562,o),
(192,566,q),
(281,647,l),
(281,700,l),
(51,700,l),
(51,645,l),
(202,645,l),
(94,549,l),
(130,507,l),
(148,517,o),
(167,517,qs),
(196,517,o),
(230,487,o),
(230,459,qs),
(230,429,o),
(196,397,o),
(167,397,qs),
(137,397,o),
(103,430,o),
(103,457,q),
(40,457,l),
(42,402,o),
(110,342,o),
(167,342,qs)
);
}
);
userData = {
assembly = "PUSHB[ ]	/* 2 values pushed */
6 100
WCVTP[ ]	/* WriteCVTInPixels */
NPUSHB[ ]	/* 19 values pushed */
39 1 12 0 40 34 2 11 12 33 1 9 11 6 1 2 4 4 76
MPPEM[ ]	/* MeasurePixelPerEm */
PUSHB[ ]	/* 1 value pushed */
9
LT[ ]	/* LessThan */
IF[ ]	/* If */
NPUSHB[ ]	/* 73 values pushed */
0 11 12 9 12 11 114 0 9 10 12 9 10 126 0 3 10 14 10 3 14 128 0 5 14 4 4 5 114 8 1 1 2 2 1 113 13 1 0 0 12 11 0 12 103 0 10 15 1 14 5 10 14 105 6 1 4 2 2 4 87 6 1 4 4 2 96 7 1 2 4 2 80
ELSE[ ]	/* Else */
MPPEM[ ]	/* MeasurePixelPerEm */
PUSHB[ ]	/* 1 value pushed */
13
LT[ ]	/* LessThan */
IF[ ]	/* If */
NPUSHB[ ]	/* 74 values pushed */
0 11 12 9 12 11 9 128 0 9 10 12 9 10 126 0 3 10 14 10 3 14 128 0 5 14 4 4 5 114 8 1 1 2 2 1 113 13 1 0 0 12 11 0 12 103 0 10 15 1 14 5 10 14 105 6 1 4 2 2 4 87 6 1 4 4 2 96 7 1 2 4 2 80
ELSE[ ]	/* Else */
MPPEM[ ]	/* MeasurePixelPerEm */
PUSHB[ ]	/* 1 value pushed */
19
LT[ ]	/* LessThan */
IF[ ]	/* If */
NPUSHB[ ]	/* 75 values pushed */
0 11 12 9 12 11 9 128 0 9 10 12 9 10 126 0 3 10 14 10 3 14 128 0 5 14 4 14 5 4 128 8 1 1 2 2 1 113 13 1 0 0 12 11 0 12 103 0 10 15 1 14 5 10 14 105 6 1 4 2 2 4 87 6 1 4 4 2 96 7 1 2 4 2 80
ELSE[ ]	/* Else */
NPUSHB[ ]	/* 74 values pushed */
0 11 12 9 12 11 9 128 0 9 10 12 9 10 126 0 3 10 14 10 3 14 128 0 5 14 4 14 5 4 128 8 1 1 2 1 134 13 1 0 0 12 11 0 12 103 0 10 15 1 14 5 10 14 105 6 1 4 2 2 4 87 6 1 4 4 2 96 7 1 2 4 2 80
EIF[ ]	/* EndIf */
EIF[ ]	/* EndIf */
EIF[ ]	/* EndIf */
NPUSHB[ ]	/* 28 values pushed */
19 19 19 46 19 45 38 37 36 35 32 30 26 24 22 21 17 17 17 17 17 18 17 17 16 16 8 31
CALL[ ]	/* CallFunction */
PUSHB[ ]	/* 2 values pushed */
6 0
WCVTP[ ]	/* WriteCVTInPixels */";
};
width = 758;
}
);
note = threequarters;
unicode = 190;
},
{
glyphname = oneeighth;
layers = (
{
layerId = m01;
shapes = (
{
closed = 1;
nodes = (
(168,0,l),
(688,700,l),
(617,700,l),
(98,0,l)
);
},
{
closed = 1;
nodes = (
(279,347,l),
(279,402,l),
(196,402,l),
(196,700,l),
(162,700,l),
(43,657,l),
(43,607,l),
(135,628,l),
(135,402,l),
(40,402,l),
(40,347,l)
);
},
{
closed = 1;
nodes = (
(565,49,o),
(534,79,o),
(534,104,qs),
(534,131,o),
(567,161,o),
(595,161,qs),
(622,161,o),
(654,131,o),
(654,104,qs),
(654,78,o),
(622,49,o),
(595,49,qs)
);
},
{
closed = 1;
nodes = (
(644,-5,o),
(716,51,o),
(716,99,qs),
(716,130,o),
(686,179,o),
(658,190,q),
(681,200,o),
(708,240,o),
(708,264,qs),
(708,307,o),
(642,358,o),
(594,358,qs),
(546,358,o),
(480,307,o),
(480,264,qs),
(480,240,o),
(506,200,o),
(529,190,q),
(501,178,o),
(471,130,o),
(471,99,qs),
(471,52,o),
(542,-5,o),
(594,-5,qs)
);
},
{
closed = 1;
nodes = (
(571,209,o),
(543,235,o),
(543,257,qs),
(543,280,o),
(570,306,o),
(594,306,qs),
(617,306,o),
(645,280,o),
(645,257,qs),
(645,235,o),
(617,209,o),
(594,209,qs)
);
}
);
userData = {
assembly = "NPUSHB[ ]	/* 13 values pushed */
8 7 6 3 2 0 44 32 2 6 11 2 76
MPPEM[ ]	/* MeasurePixelPerEm */
PUSHB[ ]	/* 1 value pushed */
46
LT[ ]	/* LessThan */
IF[ ]	/* If */
NPUSHB[ ]	/* 46 values pushed */
4 1 2 0 5 10 2 5 104 0 8 0 10 11 8 10 105 14 1 11 0 6 7 11 6 106 3 1 0 0 33 77 12 1 7 7 1 97 13 9 2 1 1 34 1 78
ELSE[ ]	/* Else */
NPUSHB[ ]	/* 50 values pushed */
4 1 2 0 5 10 2 5 104 0 8 0 10 11 8 10 105 14 1 11 0 6 7 11 6 106 3 1 0 0 33 77 0 1 1 34 77 12 1 7 7 9 97 13 1 9 9 34 9 78
EIF[ ]	/* EndIf */
NPUSHB[ ]	/* 32 values pushed */
51 51 27 27 15 15 51 62 51 61 57 55 27 50 27 49 39 37 15 26 15 25 37 17 17 20 17 17 16 15 8 29
CALL[ ]	/* CallFunction */";
};
width = 762;
}
);
note = oneeighth;
unicode = 8539;
},
{
glyphname = threeeighths;
layers = (
{
layerId = m01;
shapes = (
{
closed = 1;
nodes = (
(168,0,l),
(688,700,l),
(617,700,l),
(98,0,l)
);
},
{
closed = 1;
nodes = (
(222,342,o),
(291,404,o),
(291,459,qs),
(291,502,o),
(239,562,o),
(191,566,q),
(280,647,l),
(280,700,l),
(50,700,l),
(50,645,l),
(201,645,l),
(93,549,l),
(129,507,l),
(147,517,o),
(166,517,qs),
(195,517,o),
(229,487,o),
(229,459,qs),
(229,429,o),
(195,397,o),
(166,397,qs),
(136,397,o),
(102,430,o),
(102,457,q),
(39,457,l),
(41,402,o),
(109,342,o),
(166,342,qs)
);
},
{
closed = 1;
nodes = (
(565,49,o),
(534,79,o),
(534,104,qs),
(534,131,o),
(567,161,o),
(595,161,qs),
(622,161,o),
(654,131,o),
(654,104,qs),
(654,78,o),
(622,49,o),
(595,49,qs)
);
},
{
closed = 1;
nodes = (
(644,-5,o),
(716,51,o),
(716,99,qs),
(716,130,o),
(686,179,o),
(658,190,q),
(681,200,o),
(708,240,o),
(708,264,qs),
(708,307,o),
(642,358,o),
(594,358,qs),
(546,358,o),
(480,307,o),
(480,264,qs),
(480,240,o),
(506,200,o),
(529,190,q),
(501,178,o),
(471,130,o),
(471,99,qs),
(471,52,o),
(542,-5,o),
(594,-5,qs)
);
},
{
closed = 1;
nodes = (
(571,209,o),
(543,235,o),
(543,257,qs),
(543,280,o),
(570,306,o),
(594,306,qs),
(617,306,o),
(645,280,o),
(645,257,qs),
(645,235,o),
(617,209,o),
(594,209,qs)
);
}
);
userData = {
assembly = "NPUSHB[ ]	/* 20 values pushed */
24 1 5 0 25 19 2 4 5 18 1 2 4 61 49 2 8 13 4 76
MPPEM[ ]	/* MeasurePixelPerEm */
PUSHB[ ]	/* 1 value pushed */
9
LT[ ]	/* LessThan */
IF[ ]	/* If */
NPUSHB[ ]	/* 65 values pushed */
0 4 5 2 5 4 114 0 2 3 5 2 3 126 0 3 14 1 7 12 3 7 105 0 10 0 12 13 10 12 105 17 1 13 0 8 9 13 8 106 0 5 5 0 95 6 1 0 0 33 77 15 1 9 9 1 97 16 11 2 1 1 34 1 78
ELSE[ ]	/* Else */
MPPEM[ ]	/* MeasurePixelPerEm */
PUSHB[ ]	/* 1 value pushed */
46
LT[ ]	/* LessThan */
IF[ ]	/* If */
NPUSHB[ ]	/* 66 values pushed */
0 4 5 2 5 4 2 128 0 2 3 5 2 3 126 0 3 14 1 7 12 3 7 105 0 10 0 12 13 10 12 105 17 1 13 0 8 9 13 8 106 0 5 5 0 95 6 1 0 0 33 77 15 1 9 9 1 97 16 11 2 1 1 34 1 78
ELSE[ ]	/* Else */
NPUSHB[ ]	/* 70 values pushed */
0 4 5 2 5 4 2 128 0 2 3 5 2 3 126 0 3 14 1 7 12 3 7 105 0 10 0 12 13 10 12 105 17 1 13 0 8 9 13 8 106 0 5 5 0 95 6 1 0 0 33 77 0 1 1 34 77 15 1 9 9 11 97 16 1 11 11 34 11 78
EIF[ ]	/* EndIf */
EIF[ ]	/* EndIf */
NPUSHB[ ]	/* 40 values pushed */
68 68 44 44 32 32 4 4 68 79 68 78 74 72 44 67 44 66 56 54 32 43 32 42 38 36 4 31 4 30 17 19 36 34 19 17 16 18 8 29
CALL[ ]	/* CallFunction */";
};
width = 762;
}
);
note = threeeighths;
unicode = 8540;
},
{
glyphname = fiveeighths;
layers = (
{
layerId = m01;
shapes = (
{
closed = 1;
nodes = (
(172,0,l),
(692,700,l),
(621,700,l),
(102,0,l)
);
},
{
closed = 1;
nodes = (
(227,342,o),
(298,413,o),
(298,469,qs),
(298,520,o),
(237,590,o),
(184,590,qs),
(161,590,o),
(123,575,o),
(111,562,q),
(127,644,l),
(274,644,l),
(274,700,l),
(79,700,l),
(49,499,l),
(111,499,l),
(118,516,o),
(151,538,o),
(173,538,qs),
(201,538,o),
(236,500,o),
(236,469,qs),
(236,438,o),
(200,397,o),
(172,397,qs),
(147,397,o),
(112,425,o),
(107,447,q),
(44,447,l),
(46,404,o),
(114,342,o),
(172,342,qs)
);
},
{
closed = 1;
nodes = (
(569,49,o),
(538,79,o),
(538,104,qs),
(538,131,o),
(571,161,o),
(599,161,qs),
(626,161,o),
(658,131,o),
(658,104,qs),
(658,78,o),
(626,49,o),
(599,49,qs)
);
},
{
closed = 1;
nodes = (
(648,-5,o),
(720,52,o),
(720,100,qs),
(720,131,o),
(690,179,o),
(662,190,q),
(685,200,o),
(712,240,o),
(712,264,qs),
(712,307,o),
(646,358,o),
(598,358,qs),
(550,358,o),
(484,307,o),
(484,264,qs),
(484,240,o),
(510,200,o),
(533,190,q),
(505,178,o),
(475,130,o),
(475,99,qs),
(475,52,o),
(546,-5,o),
(598,-5,qs)
);
},
{
closed = 1;
nodes = (
(575,209,o),
(547,235,o),
(547,257,qs),
(547,280,o),
(574,306,o),
(598,306,qs),
(621,306,o),
(649,280,o),
(649,257,qs),
(649,235,o),
(621,209,o),
(598,209,qs)
);
}
);
userData = {
assembly = "NPUSHB[ ]	/* 11 values pushed */
25 1 4 8 64 52 2 10 15 2 76
MPPEM[ ]	/* MeasurePixelPerEm */
PUSHB[ ]	/* 1 value pushed */
9
LT[ ]	/* LessThan */
IF[ ]	/* If */
NPUSHB[ ]	/* 73 values pushed */
0 5 4 2 7 5 114 0 2 3 4 2 3 126 0 8 0 4 5 8 4 105 0 3 16 1 9 14 3 9 105 0 12 0 14 15 12 14 105 19 1 15 0 10 11 15 10 106 0 7 7 0 95 6 1 0 0 33 77 17 1 11 11 1 97 18 13 2 1 1 34 1 78
ELSE[ ]	/* Else */
MPPEM[ ]	/* MeasurePixelPerEm */
PUSHB[ ]	/* 1 value pushed */
46
LT[ ]	/* LessThan */
IF[ ]	/* If */
NPUSHB[ ]	/* 74 values pushed */
0 5 4 2 4 5 2 128 0 2 3 4 2 3 126 0 8 0 4 5 8 4 105 0 3 16 1 9 14 3 9 105 0 12 0 14 15 12 14 105 19 1 15 0 10 11 15 10 106 0 7 7 0 95 6 1 0 0 33 77 17 1 11 11 1 97 18 13 2 1 1 34 1 78
ELSE[ ]	/* Else */
NPUSHB[ ]	/* 78 values pushed */
0 5 4 2 4 5 2 128 0 2 3 4 2 3 126 0 8 0 4 5 8 4 105 0 3 16 1 9 14 3 9 105 0 12 0 14 15 12 14 105 19 1 15 0 10 11 15 10 106 0 7 7 0 95 6 1 0 0 33 77 0 1 1 34 77 17 1 11 11 13 97 18 1 13 13 34 13 78
EIF[ ]	/* EndIf */
EIF[ ]	/* EndIf */
NPUSHB[ ]	/* 42 values pushed */
71 71 47 47 35 35 4 4 71 82 71 81 77 75 47 70 47 69 59 57 35 46 35 45 41 39 4 34 4 33 35 17 17 18 36 34 19 17 16 20 8 31
CALL[ ]	/* CallFunction */";
};
width = 766;
}
);
note = fiveeighths;
unicode = 8541;
},
{
glyphname = seveneighths;
layers = (
{
layerId = m01;
shapes = (
{
closed = 1;
nodes = (
(138,0,l),
(658,700,l),
(587,700,l),
(68,0,l)
);
},
{
closed = 1;
nodes = (
(545,49,o),
(514,79,o),
(514,104,qs),
(514,131,o),
(547,161,o),
(575,161,qs),
(602,161,o),
(634,131,o),
(634,104,qs),
(634,78,o),
(602,49,o),
(575,49,qs)
);
},
{
closed = 1;
nodes = (
(176,347,l),
(317,654,l),
(317,700,l),
(59,700,l),
(59,645,l),
(249,645,l),
(109,347,l)
);
},
{
closed = 1;
nodes = (
(624,-5,o),
(696,51,o),
(696,99,qs),
(696,130,o),
(666,179,o),
(638,190,q),
(661,200,o),
(688,240,o),
(688,264,qs),
(688,307,o),
(622,358,o),
(574,358,qs),
(526,358,o),
(460,307,o),
(460,264,qs),
(460,240,o),
(486,200,o),
(509,190,q),
(481,178,o),
(451,130,o),
(451,99,qs),
(451,52,o),
(522,-5,o),
(574,-5,qs)
);
},
{
closed = 1;
nodes = (
(551,209,o),
(523,235,o),
(523,257,qs),
(523,280,o),
(550,306,o),
(574,306,qs),
(597,306,o),
(625,280,o),
(625,257,qs),
(625,235,o),
(597,209,o),
(574,209,qs)
);
}
);
userData = {
assembly = "NPUSHB[ ]	/* 11 values pushed */
20 1 4 0 40 28 2 2 10 2 76
MPPEM[ ]	/* MeasurePixelPerEm */
PUSHB[ ]	/* 1 value pushed */
46
LT[ ]	/* LessThan */
IF[ ]	/* If */
NPUSHB[ ]	/* 50 values pushed */
0 6 7 9 7 6 9 128 0 7 0 9 10 7 9 106 13 1 10 0 2 3 10 2 105 0 4 4 0 95 5 1 0 0 33 77 11 1 3 3 1 97 12 8 2 1 1 34 1 78
ELSE[ ]	/* Else */
NPUSHB[ ]	/* 54 values pushed */
0 6 7 9 7 6 9 128 0 7 0 9 10 7 9 106 13 1 10 0 2 3 10 2 105 0 4 4 0 95 5 1 0 0 33 77 0 1 1 34 77 11 1 3 3 8 97 12 1 8 8 34 8 78
EIF[ ]	/* EndIf */
NPUSHB[ ]	/* 34 values pushed */
47 47 23 23 4 4 47 58 47 57 53 51 23 46 23 45 35 33 22 21 19 18 17 16 4 15 4 14 37 17 16 14 8 25
CALL[ ]	/* CallFunction */";
};
width = 742;
}
);
note = seveneighths;
unicode = 8542;
},
{
glyphname = uni2080;
layers = (
{
layerId = m01;
shapes = (
{
closed = 1;
nodes = (
(231,-5,o),
(294,93,o),
(294,177,qs),
(294,260,o),
(230,358,o),
(162,358,qs),
(94,358,o),
(30,259,o),
(30,177,qs),
(30,95,o),
(94,-5,o),
(162,-5,qs)
);
},
{
closed = 1;
nodes = (
(128,52,o),
(95,118,o),
(95,177,qs),
(95,236,o),
(128,301,o),
(162,301,qs),
(196,301,o),
(229,236,o),
(229,177,qs),
(229,118,o),
(196,52,o),
(162,52,qs)
);
}
);
userData = {
assembly = "NPUSHB[ ]	/* 41 values pushed */
0 2 2 0 97 0 0 0 51 77 5 1 3 3 1 97 4 1 1 1 52 1 78 12 12 0 0 12 23 12 22 18 16 0 11 0 10 36 6 9 23
CALL[ ]	/* CallFunction */";
};
width = 324;
}
);
note = uni2080;
unicode = 8320;
},
{
glyphname = uni2081;
layers = (
{
layerId = m01;
shapes = (
{
closed = 1;
nodes = (
(281,0,l),
(281,55,l),
(198,55,l),
(198,353,l),
(164,353,l),
(45,309,l),
(45,260,l),
(137,281,l),
(137,55,l),
(42,55,l),
(42,0,l)
);
}
);
userData = {
assembly = "NPUSHB[ ]	/* 32 values pushed */
4 3 2 3 0 1 1 76 0 1 1 49 77 2 1 0 0 3 96 0 3 3 50 3 78 17 17 20 16 4 9 26
CALL[ ]	/* CallFunction */";
};
width = 316;
}
);
note = uni2081;
unicode = 8321;
},
{
glyphname = uni2082;
layers = (
{
layerId = m01;
shapes = (
{
closed = 1;
nodes = (
(33,0,l),
(275,0,l),
(275,55,l),
(118,55,l),
(186,123,ls),
(220,158,o),
(246,189,o),
(267,230,o),
(267,253,qs),
(267,299,o),
(209,358,o),
(153,358,qs),
(99,358,o),
(34,298,o),
(33,242,q),
(96,242,l),
(96,268,o),
(125,304,o),
(151,304,qs),
(175,304,o),
(204,275,o),
(204,252,qs),
(204,232,o),
(172,191,o),
(136,155,qs),
(121,139,l),
(33,47,l)
);
}
);
userData = {
assembly = "NPUSHB[ ]	/* 43 values pushed */
26 1 4 3 1 76 0 1 0 3 0 1 3 128 0 0 0 2 97 0 2 2 51 77 0 3 3 4 95 0 4 4 50 4 78 17 23 34 18 38 5 9 27
CALL[ ]	/* CallFunction */";
};
width = 310;
}
);
note = uni2082;
unicode = 8322;
},
{
glyphname = uni2083;
layers = (
{
layerId = m01;
shapes = (
{
closed = 1;
nodes = (
(217,-5,o),
(286,57,o),
(286,112,qs),
(286,155,o),
(234,215,o),
(186,219,q),
(275,300,l),
(275,353,l),
(45,353,l),
(45,298,l),
(196,298,l),
(88,202,l),
(124,160,l),
(142,170,o),
(161,170,qs),
(190,170,o),
(224,140,o),
(224,112,qs),
(224,82,o),
(190,50,o),
(161,50,qs),
(131,50,o),
(97,83,o),
(97,110,q),
(34,110,l),
(36,55,o),
(104,-5,o),
(161,-5,qs)
);
}
);
userData = {
assembly = "NPUSHB[ ]	/* 15 values pushed */
20 1 3 4 21 15 2 2 3 14 1 0 2 3 76
MPPEM[ ]	/* MeasurePixelPerEm */
PUSHB[ ]	/* 1 value pushed */
10
LT[ ]	/* LessThan */
IF[ ]	/* If */
NPUSHB[ ]	/* 36 values pushed */
0 2 3 0 3 2 114 0 0 1 3 0 1 126 0 3 3 4 95 0 4 4 49 77 0 1 1 5 97 6 1 5 5 52 5 78
ELSE[ ]	/* Else */
NPUSHB[ ]	/* 37 values pushed */
0 2 3 0 3 2 0 128 0 0 1 3 0 1 126 0 3 3 4 95 0 4 4 49 77 0 1 1 5 97 6 1 5 5 52 5 78
EIF[ ]	/* EndIf */
NPUSHB[ ]	/* 14 values pushed */
0 0 0 27 0 26 17 19 36 34 18 7 9 27
CALL[ ]	/* CallFunction */";
};
width = 320;
}
);
note = uni2083;
unicode = 8323;
},
{
glyphname = uni2084;
layers = (
{
layerId = m01;
shapes = (
{
closed = 1;
nodes = (
(247,0,l),
(247,66,l),
(288,66,l),
(288,122,l),
(247,122,l),
(247,213,l),
(187,213,l),
(187,122,l),
(90,122,l),
(204,353,l),
(140,353,l),
(21,117,l),
(21,66,l),
(183,66,l),
(183,0,l)
);
}
);
userData = {
assembly = "PUSHB[ ]	/* 6 values pushed */
2 1 0 2 1 76
MPPEM[ ]	/* MeasurePixelPerEm */
PUSHB[ ]	/* 1 value pushed */
14
LT[ ]	/* LessThan */
IF[ ]	/* If */
NPUSHB[ ]	/* 28 values pushed */
0 3 1 2 2 3 114 4 1 2 5 1 0 6 2 0 104 0 1 1 49 77 0 6 6 50 6 78
ELSE[ ]	/* Else */
NPUSHB[ ]	/* 29 values pushed */
0 3 1 2 1 3 2 128 4 1 2 5 1 0 6 2 0 104 0 1 1 49 77 0 6 6 50 6 78
EIF[ ]	/* EndIf */
NPUSHB[ ]	/* 10 values pushed */
17 17 17 17 17 18 16 7 9 29
CALL[ ]	/* CallFunction */";
};
width = 304;
}
);
note = uni2084;
unicode = 8324;
},
{
glyphname = uni2085;
layers = (
{
layerId = m01;
shapes = (
{
closed = 1;
nodes = (
(211,-5,o),
(282,66,o),
(282,122,qs),
(282,173,o),
(221,243,o),
(168,243,qs),
(145,243,o),
(107,228,o),
(95,215,q),
(111,297,l),
(258,297,l),
(258,353,l),
(63,353,l),
(33,152,l),
(95,152,l),
(102,169,o),
(135,191,o),
(157,191,qs),
(185,191,o),
(220,153,o),
(220,122,qs),
(220,91,o),
(184,50,o),
(156,50,qs),
(131,50,o),
(96,78,o),
(91,100,q),
(28,100,l),
(30,57,o),
(98,-5,o),
(156,-5,qs)
);
}
);
userData = {
assembly = "PUSHB[ ]	/* 6 values pushed */
21 1 2 6 1 76
MPPEM[ ]	/* MeasurePixelPerEm */
PUSHB[ ]	/* 1 value pushed */
9
LT[ ]	/* LessThan */
IF[ ]	/* If */
NPUSHB[ ]	/* 44 values pushed */
0 3 2 0 5 3 114 0 0 1 2 0 1 126 0 6 0 2 3 6 2 105 0 5 5 4 95 0 4 4 49 77 0 1 1 7 97 8 1 7 7 52 7 78
ELSE[ ]	/* Else */
NPUSHB[ ]	/* 45 values pushed */
0 3 2 0 2 3 0 128 0 0 1 2 0 1 126 0 6 0 2 3 6 2 105 0 5 5 4 95 0 4 4 49 77 0 1 1 7 97 8 1 7 7 52 7 78
EIF[ ]	/* EndIf */
NPUSHB[ ]	/* 16 values pushed */
0 0 0 30 0 29 35 17 17 18 36 34 18 9 9 29
CALL[ ]	/* CallFunction */";
};
width = 312;
}
);
note = uni2085;
unicode = 8325;
},
{
glyphname = uni2086;
layers = (
{
layerId = m01;
shapes = (
{
closed = 1;
nodes = (
(216,-5,o),
(282,66,o),
(282,114,qs),
(282,160,o),
(222,228,o),
(176,228,qs),
(149,228,o),
(104,201,o),
(93,180,q),
(94,242,o),
(130,305,o),
(162,305,qs),
(206,305,o),
(216,257,q),
(275,257,l),
(270,302,o),
(209,358,o),
(163,358,qs),
(95,358,o),
(30,246,o),
(30,165,qs),
(30,91,o),
(98,-5,o),
(165,-5,qs)
);
},
{
closed = 1;
nodes = (
(135,50,o),
(101,85,o),
(101,112,qs),
(101,138,o),
(135,173,o),
(160,173,qs),
(187,173,o),
(220,139,o),
(220,111,qs),
(220,85,o),
(187,50,o),
(161,50,qs)
);
}
);
userData = {
assembly = "NPUSHB[ ]	/* 66 values pushed */
14 1 5 3 1 76 0 1 2 3 2 1 3 128 0 3 0 5 6 3 5 105 0 2 2 0 97 0 0 0 51 77 8 1 6 6 4 97 7 1 4 4 52 4 78 24 24 0 0 24 35 24 34 30 28 0 23 0 22 36 33 18 36 9 9 26
CALL[ ]	/* CallFunction */";
};
width = 312;
}
);
note = uni2086;
unicode = 8326;
},
{
glyphname = uni2087;
layers = (
{
layerId = m01;
shapes = (
{
closed = 1;
nodes = (
(147,0,l),
(288,307,l),
(288,353,l),
(30,353,l),
(30,298,l),
(220,298,l),
(80,0,l)
);
}
);
userData = {
assembly = "NPUSHB[ ]	/* 28 values pushed */
4 1 0 1 1 76 0 0 0 1 95 0 1 1 49 77 0 2 2 50 2 78 18 17 16 3 9 25
CALL[ ]	/* CallFunction */";
};
width = 318;
}
);
note = uni2087;
unicode = 8327;
},
{
glyphname = uni2088;
layers = (
{
layerId = m01;
shapes = (
{
closed = 1;
nodes = (
(203,-5,o),
(275,51,o),
(275,99,qs),
(275,130,o),
(245,179,o),
(217,190,q),
(240,200,o),
(267,240,o),
(267,264,qs),
(267,307,o),
(201,358,o),
(153,358,qs),
(105,358,o),
(39,307,o),
(39,264,qs),
(39,240,o),
(65,200,o),
(88,190,q),
(60,178,o),
(30,130,o),
(30,99,qs),
(30,52,o),
(101,-5,o),
(153,-5,qs)
);
},
{
closed = 1;
nodes = (
(124,49,o),
(93,79,o),
(93,104,qs),
(93,131,o),
(126,161,o),
(154,161,qs),
(181,161,o),
(213,131,o),
(213,104,qs),
(213,78,o),
(181,49,o),
(154,49,qs)
);
},
{
closed = 1;
nodes = (
(130,209,o),
(102,235,o),
(102,257,qs),
(102,280,o),
(129,306,o),
(153,306,qs),
(176,306,o),
(204,280,o),
(204,257,qs),
(204,235,o),
(176,209,o),
(153,209,qs)
);
}
);
userData = {
assembly = "NPUSHB[ ]	/* 65 values pushed */
17 5 2 2 5 1 76 8 1 5 0 2 3 5 2 105 0 4 4 0 97 0 0 0 51 77 7 1 3 3 1 97 6 1 1 1 52 1 78 36 36 24 24 0 0 36 47 36 46 42 40 24 35 24 34 30 28 0 23 0 22 42 9 9 23
CALL[ ]	/* CallFunction */";
};
width = 305;
}
);
note = uni2088;
unicode = 8328;
},
{
glyphname = uni2089;
layers = (
{
layerId = m01;
shapes = (
{
closed = 1;
nodes = (
(217,-5,o),
(282,107,o),
(282,188,qs),
(282,262,o),
(214,358,o),
(147,358,qs),
(96,358,o),
(30,287,o),
(30,239,qs),
(30,193,o),
(90,125,o),
(136,125,qs),
(163,125,o),
(208,152,o),
(219,173,q),
(218,111,o),
(182,48,o),
(150,48,qs),
(106,48,o),
(96,96,q),
(37,96,l),
(42,51,o),
(103,-5,o),
(149,-5,qs)
);
},
{
closed = 1;
nodes = (
(125,180,o),
(92,214,o),
(92,242,qs),
(92,268,o),
(125,303,o),
(151,303,qs),
(177,303,o),
(211,268,o),
(211,241,qs),
(211,215,o),
(177,180,o),
(152,180,qs)
);
}
);
userData = {
assembly = "NPUSHB[ ]	/* 66 values pushed */
8 1 2 6 1 76 0 0 2 1 2 0 1 128 8 1 6 0 2 0 6 2 105 0 5 5 3 97 0 3 3 51 77 0 1 1 4 97 7 1 4 4 52 4 78 24 24 0 0 24 35 24 34 30 28 0 23 0 22 36 36 33 18 9 9 26
CALL[ ]	/* CallFunction */";
};
width = 312;
}
);
note = uni2089;
unicode = 8329;
},
{
glyphname = uni2070;
layers = (
{
layerId = m01;
shapes = (
{
closed = 1;
nodes = (
(231,342,o),
(294,440,o),
(294,524,qs),
(294,607,o),
(230,705,o),
(162,705,qs),
(94,705,o),
(30,606,o),
(30,524,qs),
(30,442,o),
(94,342,o),
(162,342,qs)
);
},
{
closed = 1;
nodes = (
(128,399,o),
(95,465,o),
(95,524,qs),
(95,583,o),
(128,648,o),
(162,648,qs),
(196,648,o),
(229,583,o),
(229,524,qs),
(229,465,o),
(196,399,o),
(162,399,qs)
);
}
);
userData = {
assembly = "NPUSHB[ ]	/* 41 values pushed */
0 2 2 0 97 0 0 0 59 77 5 1 3 3 1 97 4 1 1 1 60 1 78 12 12 0 0 12 23 12 22 18 16 0 11 0 10 36 6 10 23
CALL[ ]	/* CallFunction */";
};
width = 324;
}
);
note = uni2070;
unicode = 8304;
},
{
glyphname = uni00B9;
layers = (
{
layerId = m01;
shapes = (
{
closed = 1;
nodes = (
(281,347,l),
(281,402,l),
(198,402,l),
(198,700,l),
(164,700,l),
(45,656,l),
(45,607,l),
(137,628,l),
(137,402,l),
(42,402,l),
(42,347,l)
);
}
);
userData = {
assembly = "NPUSHB[ ]	/* 32 values pushed */
4 3 2 3 0 1 1 76 0 1 1 57 77 2 1 0 0 3 96 0 3 3 58 3 78 17 17 20 16 4 10 26
CALL[ ]	/* CallFunction */";
};
width = 316;
}
);
note = uni00B9;
unicode = 185;
},
{
glyphname = uni00B2;
layers = (
{
layerId = m01;
shapes = (
{
closed = 1;
nodes = (
(33,347,l),
(275,347,l),
(275,402,l),
(118,402,l),
(186,470,ls),
(220,505,o),
(246,536,o),
(267,577,o),
(267,600,qs),
(267,646,o),
(209,705,o),
(153,705,qs),
(99,705,o),
(34,645,o),
(33,589,q),
(96,589,l),
(96,615,o),
(125,651,o),
(151,651,qs),
(175,651,o),
(204,622,o),
(204,599,qs),
(204,579,o),
(172,538,o),
(136,502,qs),
(121,486,l),
(33,394,l)
);
}
);
userData = {
assembly = "NPUSHB[ ]	/* 43 values pushed */
26 1 4 3 1 76 0 1 0 3 0 1 3 128 0 0 0 2 97 0 2 2 59 77 0 3 3 4 95 0 4 4 58 4 78 17 23 34 18 38 5 10 27
CALL[ ]	/* CallFunction */";
};
width = 310;
}
);
note = uni00B2;
unicode = 178;
},
{
glyphname = uni00B3;
layers = (
{
layerId = m01;
shapes = (
{
closed = 1;
nodes = (
(217,342,o),
(286,404,o),
(286,459,qs),
(286,502,o),
(234,562,o),
(186,566,q),
(275,647,l),
(275,700,l),
(45,700,l),
(45,645,l),
(196,645,l),
(88,549,l),
(124,507,l),
(142,517,o),
(161,517,qs),
(190,517,o),
(224,487,o),
(224,459,qs),
(224,429,o),
(190,397,o),
(161,397,qs),
(131,397,o),
(97,430,o),
(97,457,q),
(34,457,l),
(36,402,o),
(104,342,o),
(161,342,qs)
);
}
);
userData = {
assembly = "NPUSHB[ ]	/* 15 values pushed */
20 1 3 4 21 15 2 2 3 14 1 0 2 3 76
MPPEM[ ]	/* MeasurePixelPerEm */
PUSHB[ ]	/* 1 value pushed */
10
LT[ ]	/* LessThan */
IF[ ]	/* If */
NPUSHB[ ]	/* 36 values pushed */
0 2 3 0 3 2 114 0 0 1 3 0 1 126 0 3 3 4 95 0 4 4 57 77 0 1 1 5 97 6 1 5 5 60 5 78
ELSE[ ]	/* Else */
NPUSHB[ ]	/* 37 values pushed */
0 2 3 0 3 2 0 128 0 0 1 3 0 1 126 0 3 3 4 95 0 4 4 57 77 0 1 1 5 97 6 1 5 5 60 5 78
EIF[ ]	/* EndIf */
NPUSHB[ ]	/* 14 values pushed */
0 0 0 27 0 26 17 19 36 34 18 7 10 27
CALL[ ]	/* CallFunction */";
};
width = 320;
}
);
note = uni00B3;
unicode = 179;
},
{
glyphname = uni2074;
layers = (
{
layerId = m01;
shapes = (
{
closed = 1;
nodes = (
(247,347,l),
(247,413,l),
(288,413,l),
(288,469,l),
(247,469,l),
(247,560,l),
(187,560,l),
(187,469,l),
(90,469,l),
(204,700,l),
(140,700,l),
(21,464,l),
(21,413,l),
(183,413,l),
(183,347,l)
);
}
);
userData = {
assembly = "PUSHB[ ]	/* 6 values pushed */
2 1 0 2 1 76
MPPEM[ ]	/* MeasurePixelPerEm */
PUSHB[ ]	/* 1 value pushed */
14
LT[ ]	/* LessThan */
IF[ ]	/* If */
NPUSHB[ ]	/* 28 values pushed */
0 3 1 2 2 3 114 4 1 2 5 1 0 6 2 0 104 0 1 1 57 77 0 6 6 58 6 78
ELSE[ ]	/* Else */
NPUSHB[ ]	/* 29 values pushed */
0 3 1 2 1 3 2 128 4 1 2 5 1 0 6 2 0 104 0 1 1 57 77 0 6 6 58 6 78
EIF[ ]	/* EndIf */
NPUSHB[ ]	/* 10 values pushed */
17 17 17 17 17 18 16 7 10 29
CALL[ ]	/* CallFunction */";
};
width = 304;
}
);
note = uni2074;
unicode = 8308;
},
{
glyphname = uni2075;
layers = (
{
layerId = m01;
shapes = (
{
closed = 1;
nodes = (
(211,342,o),
(282,413,o),
(282,469,qs),
(282,520,o),
(221,590,o),
(168,590,qs),
(145,590,o),
(107,575,o),
(95,562,q),
(111,644,l),
(258,644,l),
(258,700,l),
(63,700,l),
(33,499,l),
(95,499,l),
(102,516,o),
(135,538,o),
(157,538,qs),
(185,538,o),
(220,500,o),
(220,469,qs),
(220,438,o),
(184,397,o),
(156,397,qs),
(131,397,o),
(96,425,o),
(91,447,q),
(28,447,l),
(30,404,o),
(98,342,o),
(156,342,qs)
);
}
);
userData = {
assembly = "PUSHB[ ]	/* 6 values pushed */
21 1 2 6 1 76
MPPEM[ ]	/* MeasurePixelPerEm */
PUSHB[ ]	/* 1 value pushed */
9
LT[ ]	/* LessThan */
IF[ ]	/* If */
NPUSHB[ ]	/* 44 values pushed */
0 3 2 0 5 3 114 0 0 1 2 0 1 126 0 6 0 2 3 6 2 105 0 5 5 4 95 0 4 4 57 77 0 1 1 7 97 8 1 7 7 60 7 78
ELSE[ ]	/* Else */
NPUSHB[ ]	/* 45 values pushed */
0 3 2 0 2 3 0 128 0 0 1 2 0 1 126 0 6 0 2 3 6 2 105 0 5 5 4 95 0 4 4 57 77 0 1 1 7 97 8 1 7 7 60 7 78
EIF[ ]	/* EndIf */
NPUSHB[ ]	/* 16 values pushed */
0 0 0 30 0 29 35 17 17 18 36 34 18 9 10 29
CALL[ ]	/* CallFunction */";
};
width = 312;
}
);
note = uni2075;
unicode = 8309;
},
{
glyphname = uni2076;
layers = (
{
layerId = m01;
shapes = (
{
closed = 1;
nodes = (
(216,342,o),
(282,413,o),
(282,461,qs),
(282,507,o),
(222,575,o),
(176,575,qs),
(149,575,o),
(104,548,o),
(93,527,q),
(94,589,o),
(130,652,o),
(162,652,qs),
(206,652,o),
(216,604,q),
(275,604,l),
(270,649,o),
(209,705,o),
(163,705,qs),
(95,705,o),
(30,593,o),
(30,512,qs),
(30,438,o),
(98,342,o),
(165,342,qs)
);
},
{
closed = 1;
nodes = (
(135,397,o),
(101,432,o),
(101,459,qs),
(101,485,o),
(135,520,o),
(160,520,qs),
(187,520,o),
(220,486,o),
(220,458,qs),
(220,432,o),
(187,397,o),
(161,397,qs)
);
}
);
userData = {
assembly = "NPUSHB[ ]	/* 66 values pushed */
14 1 5 3 1 76 0 1 2 3 2 1 3 128 0 3 0 5 6 3 5 105 0 2 2 0 97 0 0 0 59 77 8 1 6 6 4 97 7 1 4 4 60 4 78 24 24 0 0 24 35 24 34 30 28 0 23 0 22 36 33 18 36 9 10 26
CALL[ ]	/* CallFunction */";
};
width = 312;
}
);
note = uni2076;
unicode = 8310;
},
{
glyphname = uni2077;
layers = (
{
layerId = m01;
shapes = (
{
closed = 1;
nodes = (
(147,347,l),
(288,654,l),
(288,700,l),
(30,700,l),
(30,645,l),
(220,645,l),
(80,347,l)
);
}
);
userData = {
assembly = "NPUSHB[ ]	/* 28 values pushed */
4 1 0 1 1 76 0 0 0 1 95 0 1 1 57 77 0 2 2 58 2 78 18 17 16 3 10 25
CALL[ ]	/* CallFunction */";
};
width = 318;
}
);
note = uni2077;
unicode = 8311;
},
{
glyphname = uni2078;
layers = (
{
layerId = m01;
shapes = (
{
closed = 1;
nodes = (
(203,342,o),
(275,398,o),
(275,446,qs),
(275,477,o),
(245,526,o),
(217,537,q),
(240,547,o),
(267,587,o),
(267,611,qs),
(267,654,o),
(201,705,o),
(153,705,qs),
(105,705,o),
(39,654,o),
(39,611,qs),
(39,587,o),
(65,547,o),
(88,537,q),
(60,525,o),
(30,477,o),
(30,446,qs),
(30,399,o),
(101,342,o),
(153,342,qs)
);
},
{
closed = 1;
nodes = (
(124,396,o),
(93,426,o),
(93,451,qs),
(93,478,o),
(126,508,o),
(154,508,qs),
(181,508,o),
(213,478,o),
(213,451,qs),
(213,425,o),
(181,396,o),
(154,396,qs)
);
},
{
closed = 1;
nodes = (
(130,556,o),
(102,582,o),
(102,604,qs),
(102,627,o),
(129,653,o),
(153,653,qs),
(176,653,o),
(204,627,o),
(204,604,qs),
(204,582,o),
(176,556,o),
(153,556,qs)
);
}
);
userData = {
assembly = "NPUSHB[ ]	/* 65 values pushed */
17 5 2 2 5 1 76 8 1 5 0 2 3 5 2 105 0 4 4 0 97 0 0 0 59 77 7 1 3 3 1 97 6 1 1 1 60 1 78 36 36 24 24 0 0 36 47 36 46 42 40 24 35 24 34 30 28 0 23 0 22 42 9 10 23
CALL[ ]	/* CallFunction */";
};
width = 305;
}
);
note = uni2078;
unicode = 8312;
},
{
glyphname = uni2079;
layers = (
{
layerId = m01;
shapes = (
{
closed = 1;
nodes = (
(217,342,o),
(282,454,o),
(282,535,qs),
(282,609,o),
(214,705,o),
(147,705,qs),
(96,705,o),
(30,634,o),
(30,586,qs),
(30,540,o),
(90,472,o),
(136,472,qs),
(163,472,o),
(208,499,o),
(219,520,q),
(218,458,o),
(182,395,o),
(150,395,qs),
(106,395,o),
(96,443,q),
(37,443,l),
(42,398,o),
(103,342,o),
(149,342,qs)
);
},
{
closed = 1;
nodes = (
(125,527,o),
(92,561,o),
(92,589,qs),
(92,615,o),
(125,650,o),
(151,650,qs),
(177,650,o),
(211,615,o),
(211,588,qs),
(211,562,o),
(177,527,o),
(152,527,qs)
);
}
);
userData = {
assembly = "NPUSHB[ ]	/* 66 values pushed */
8 1 2 6 1 76 0 0 2 1 2 0 1 128 8 1 6 0 2 0 6 2 105 0 5 5 3 97 0 3 3 59 77 0 1 1 4 97 7 1 4 4 60 4 78 24 24 0 0 24 35 24 34 30 28 0 23 0 22 36 36 33 18 9 10 26
CALL[ ]	/* CallFunction */";
};
width = 312;
}
);
note = uni2079;
unicode = 8313;
},
{
glyphname = period;
kernLeft = period;
kernRight = period;
layers = (
{
layerId = m01;
shapes = (
{
closed = 1;
nodes = (
(122,-5,o),
(155,28,o),
(155,52,qs),
(155,76,o),
(122,109,o),
(98,109,qs),
(73,109,o),
(40,76,o),
(40,52,qs),
(40,28,o),
(73,-5,o),
(98,-5,qs)
);
}
);
userData = {
assembly = "NPUSHB[ ]	/* 22 values pushed */
0 0 0 1 97 2 1 1 1 34 1 78 0 0 0 11 0 10 36 3 8 23
CALL[ ]	/* CallFunction */";
};
width = 195;
}
);
note = period;
unicode = 46;
},
{
glyphname = comma;
kernLeft = comma;
kernRight = comma;
layers = (
{
layerId = m01;
shapes = (
{
closed = 1;
nodes = (
(60,-119,l),
(147,102,l),
(60,102,l),
(2,-119,l)
);
}
);
userData = {
assembly = "NPUSHB[ ]	/* 14 values pushed */
0 0 1 0 133 0 1 1 118 17 16 2 8 24
CALL[ ]	/* CallFunction */";
};
width = 178;
}
);
note = comma;
unicode = 44;
},
{
glyphname = colon;
kernLeft = colon;
kernRight = colon;
layers = (
{
layerId = m01;
shapes = (
{
closed = 1;
nodes = (
(122,394,o),
(155,427,o),
(155,451,qs),
(155,475,o),
(122,508,o),
(98,508,qs),
(73,508,o),
(40,475,o),
(40,451,qs),
(40,427,o),
(73,394,o),
(98,394,qs)
);
},
{
closed = 1;
nodes = (
(122,-5,o),
(155,28,o),
(155,52,qs),
(155,76,o),
(122,109,o),
(98,109,qs),
(73,109,o),
(40,76,o),
(40,52,qs),
(40,28,o),
(73,-5,o),
(98,-5,qs)
);
}
);
userData = {
assembly = "NPUSHB[ ]	/* 41 values pushed */
4 1 1 1 0 97 0 0 0 42 77 0 2 2 3 97 5 1 3 3 34 3 78 12 12 0 0 12 23 12 22 18 16 0 11 0 10 36 6 8 23
CALL[ ]	/* CallFunction */";
};
width = 199;
}
);
note = colon;
unicode = 58;
},
{
glyphname = semicolon;
kernLeft = semicolon;
kernRight = semicolon;
layers = (
{
layerId = m01;
shapes = (
{
closed = 1;
nodes = (
(81,-119,l),
(168,102,l),
(81,102,l),
(23,-119,l)
);
},
{
closed = 1;
nodes = (
(147,394,o),
(180,427,o),
(180,451,qs),
(180,475,o),
(147,508,o),
(123,508,qs),
(98,508,o),
(65,475,o),
(65,451,qs),
(65,427,o),
(98,394,o),
(123,394,qs)
);
}
);
userData = {
assembly = "NPUSHB[ ]	/* 36 values pushed */
0 0 3 1 3 0 1 128 0 1 1 132 4 1 3 3 2 97 0 2 2 42 3 78 4 4 4 15 4 14 37 17 16 5 8 25
CALL[ ]	/* CallFunction */";
};
width = 223;
}
);
note = semicolon;
unicode = 59;
},
{
glyphname = ellipsis;
kernLeft = period;
kernRight = period;
layers = (
{
layerId = m01;
shapes = (
{
closed = 1;
nodes = (
(490,-5,o),
(523,28,o),
(523,52,qs),
(523,76,o),
(490,109,o),
(466,109,qs),
(441,109,o),
(408,76,o),
(408,52,qs),
(408,28,o),
(441,-5,o),
(466,-5,qs)
);
},
{
closed = 1;
nodes = (
(122,-5,o),
(155,28,o),
(155,52,qs),
(155,76,o),
(122,109,o),
(98,109,qs),
(73,109,o),
(40,76,o),
(40,52,qs),
(40,28,o),
(73,-5,o),
(98,-5,qs)
);
},
{
closed = 1;
nodes = (
(306,-5,o),
(339,28,o),
(339,52,qs),
(339,76,o),
(306,109,o),
(282,109,qs),
(257,109,o),
(224,76,o),
(224,52,qs),
(224,28,o),
(257,-5,o),
(282,-5,qs)
);
}
);
userData = {
assembly = "NPUSHB[ ]	/* 44 values pushed */
4 2 2 0 0 1 97 8 5 7 3 6 5 1 1 34 1 78 24 24 12 12 0 0 24 35 24 34 30 28 12 23 12 22 18 16 0 11 0 10 36 9 8 23
CALL[ ]	/* CallFunction */";
};
width = 563;
}
);
note = ellipsis;
unicode = 8230;
},
{
glyphname = exclam;
layers = (
{
layerId = m01;
shapes = (
{
closed = 1;
nodes = (
(158,194,l),
(168,700,l),
(77,700,l),
(87,194,l)
);
},
{
closed = 1;
nodes = (
(149,-5,o),
(182,28,o),
(182,52,qs),
(182,76,o),
(149,109,o),
(125,109,qs),
(100,109,o),
(67,76,o),
(67,52,qs),
(67,28,o),
(100,-5,o),
(125,-5,qs)
);
}
);
userData = {
assembly = "NPUSHB[ ]	/* 34 values pushed */
0 1 1 0 95 0 0 0 33 77 0 2 2 3 97 4 1 3 3 34 3 78 4 4 4 15 4 14 37 17 16 5 8 25
CALL[ ]	/* CallFunction */";
};
width = 248;
}
);
note = exclam;
unicode = 33;
},
{
glyphname = exclamdown;
kernLeft = exclamdown;
kernRight = exclamdown;
layers = (
{
layerId = m01;
shapes = (
{
closed = 1;
nodes = (
(168,-143,l),
(158,363,l),
(87,363,l),
(77,-143,l)
);
},
{
closed = 1;
nodes = (
(149,448,o),
(182,481,o),
(182,505,qs),
(182,529,o),
(149,562,o),
(125,562,qs),
(100,562,o),
(67,529,o),
(67,505,qs),
(67,481,o),
(100,448,o),
(125,448,qs)
);
}
);
userData = {
assembly = "NPUSHB[ ]	/* 37 values pushed */
0 2 4 1 3 0 2 3 105 0 0 1 1 0 87 0 0 0 1 95 0 1 0 1 79 4 4 4 15 4 14 37 17 16 5 8 25
CALL[ ]	/* CallFunction */";
};
width = 248;
}
);
note = exclamdown;
unicode = 161;
},
{
glyphname = question;
kernLeft = question;
kernRight = question;
layers = (
{
layerId = m01;
shapes = (
{
closed = 1;
nodes = (
(224,196,l),
(227,299,l),
(299,299,o),
(354,320,qs),
(472,365,o),
(472,507,qs),
(472,570,o),
(444,616,qs),
(416,662,o),
(316,712,o),
(251,712,qs),
(186,712,o),
(137,687,qs),
(88,662,o),
(33,571,o),
(33,512,q),
(113,512,l),
(113,571,o),
(187,641,o),
(251,641,qs),
(314,641,o),
(391,569,o),
(391,507,qs),
(391,443,o),
(361,411,qs),
(333,381,o),
(241,357,o),
(178,357,qs),
(147,357,l),
(151,196,l)
);
},
{
closed = 1;
nodes = (
(212,-5,o),
(244,28,o),
(244,52,qs),
(244,76,o),
(212,109,o),
(187,109,qs),
(162,109,o),
(129,76,o),
(129,52,qs),
(129,28,o),
(162,-5,o),
(187,-5,qs)
);
}
);
userData = {
assembly = "MPPEM[ ]	/* MeasurePixelPerEm */
PUSHB[ ]	/* 1 value pushed */
13
LT[ ]	/* LessThan */
IF[ ]	/* If */
NPUSHB[ ]	/* 45 values pushed */
0 2 1 0 1 2 0 128 0 5 4 6 4 5 114 0 0 0 4 5 0 4 105 0 1 1 3 97 0 3 3 39 77 0 6 6 7 97 8 1 7 7 34 7 78
ELSE[ ]	/* Else */
NPUSHB[ ]	/* 46 values pushed */
0 2 1 0 1 2 0 128 0 5 4 6 4 5 6 128 0 0 0 4 5 0 4 105 0 1 1 3 97 0 3 3 39 77 0 6 6 7 97 8 1 7 7 34 7 78
EIF[ ]	/* EndIf */
NPUSHB[ ]	/* 16 values pushed */
30 30 30 41 30 40 37 17 23 36 18 38 32 9 8 29
CALL[ ]	/* CallFunction */";
};
width = 516;
}
);
note = question;
unicode = 63;
},
{
glyphname = questiondown;
kernLeft = questiondown;
kernRight = questiondown;
layers = (
{
layerId = m01;
shapes = (
{
closed = 1;
nodes = (
(330,-164,o),
(379,-139,qs),
(428,-114,o),
(483,-23,o),
(483,36,q),
(403,36,l),
(403,-23,o),
(329,-93,o),
(265,-93,qs),
(202,-93,o),
(125,-21,o),
(125,41,qs),
(125,106,o),
(155,137,qs),
(183,167,o),
(275,191,o),
(338,191,qs),
(369,191,l),
(365,352,l),
(292,352,l),
(289,249,l),
(218,249,o),
(162,228,qs),
(44,183,o),
(44,41,qs),
(44,-22,o),
(72,-68,qs),
(100,-114,o),
(200,-164,o),
(265,-164,qs)
);
},
{
closed = 1;
nodes = (
(354,439,o),
(387,472,o),
(387,496,qs),
(387,520,o),
(354,553,o),
(329,553,qs),
(304,553,o),
(272,520,o),
(272,496,qs),
(272,472,o),
(304,439,o),
(329,439,qs)
);
}
);
userData = {
assembly = "MPPEM[ ]	/* MeasurePixelPerEm */
PUSHB[ ]	/* 1 value pushed */
13
LT[ ]	/* LessThan */
IF[ ]	/* If */
NPUSHB[ ]	/* 49 values pushed */
0 1 7 0 0 1 114 0 4 2 3 2 4 3 128 0 6 9 1 7 1 6 7 105 0 0 0 2 4 0 2 106 0 3 5 5 3 89 0 3 3 5 97 8 1 5 3 5 81
ELSE[ ]	/* Else */
NPUSHB[ ]	/* 50 values pushed */
0 1 7 0 7 1 0 128 0 4 2 3 2 4 3 128 0 6 9 1 7 1 6 7 105 0 0 0 2 4 0 2 106 0 3 5 5 3 89 0 3 3 5 97 8 1 5 3 5 81
EIF[ ]	/* EndIf */
NPUSHB[ ]	/* 22 values pushed */
30 30 0 0 30 41 30 40 36 34 0 29 0 28 18 38 33 17 23 10 8 27
CALL[ ]	/* CallFunction */";
};
width = 516;
}
);
note = questiondown;
unicode = 191;
},
{
glyphname = periodcentered;
layers = (
{
layerId = m01;
shapes = (
{
closed = 1;
nodes = (
(122,285,o),
(155,318,o),
(155,342,qs),
(155,367,o),
(122,399,o),
(98,399,qs),
(73,399,o),
(40,367,o),
(40,342,qs),
(40,318,o),
(73,285,o),
(98,285,qs)
);
}
);
userData = {
assembly = "NPUSHB[ ]	/* 27 values pushed */
0 0 1 1 0 89 0 0 0 1 97 2 1 1 0 1 81 0 0 0 11 0 10 36 3 8 23
CALL[ ]	/* CallFunction */";
};
width = 195;
}
);
note = periodcentered;
unicode = 183;
},
{
glyphname = bullet;
layers = (
{
layerId = m01;
shapes = (
{
closed = 1;
nodes = (
(229,213,o),
(299,283,o),
(299,333,qs),
(299,384,o),
(229,454,o),
(178,454,qs),
(128,454,o),
(59,384,o),
(59,333,qs),
(59,283,o),
(128,213,o),
(178,213,qs)
);
}
);
userData = {
assembly = "NPUSHB[ ]	/* 27 values pushed */
0 0 1 1 0 89 0 0 0 1 97 2 1 1 0 1 81 0 0 0 11 0 10 36 3 8 23
CALL[ ]	/* CallFunction */";
};
width = 358;
}
);
note = bullet;
unicode = 8226;
},
{
glyphname = asterisk;
kernLeft = asterisk;
kernRight = asterisk;
layers = (
{
layerId = m01;
shapes = (
{
closed = 1;
nodes = (
(270,356,l),
(270,493,l),
(390,425,l),
(419,476,l),
(300,545,l),
(419,613,l),
(390,664,l),
(270,596,l),
(270,733,l),
(211,733,l),
(211,596,l),
(93,664,l),
(63,613,l),
(181,545,l),
(63,476,l),
(93,425,l),
(211,493,l),
(211,356,l)
);
}
);
userData = {
assembly = "NPUSHB[ ]	/* 40 values pushed */
15 14 13 12 11 10 9 6 5 4 3 2 1 0 14 1 0 1 76 0 0 1 1 0 87 0 0 0 1 95 0 1 0 1 79 24 23 2 8 24
CALL[ ]	/* CallFunction */";
};
width = 478;
}
);
note = asterisk;
unicode = 42;
},
{
glyphname = numbersign;
layers = (
{
layerId = m01;
shapes = (
{
closed = 1;
nodes = (
(225,0,l),
(267,197,l),
(482,197,l),
(439,0,l),
(519,0,l),
(562,197,l),
(723,197,l),
(723,272,l),
(578,272,l),
(612,435,l),
(767,435,l),
(767,509,l),
(628,509,l),
(670,706,l),
(591,706,l),
(549,509,l),
(334,509,l),
(376,706,l),
(296,706,l),
(254,509,l),
(88,509,l),
(88,435,l),
(238,435,l),
(204,272,l),
(46,272,l),
(46,197,l),
(188,197,l),
(145,0,l)
);
},
{
closed = 1;
nodes = (
(318,435,l),
(533,435,l),
(498,272,l),
(283,272,l)
);
}
);
userData = {
assembly = "MPPEM[ ]	/* MeasurePixelPerEm */
PUSHB[ ]	/* 1 value pushed */
39
LT[ ]	/* LessThan */
IF[ ]	/* If */
NPUSHB[ ]	/* 40 values pushed */
16 15 9 3 1 12 10 2 0 11 1 0 103 6 1 4 4 33 77 14 8 2 2 2 3 95 7 5 2 3 3 36 77 13 1 11 11 34 11 78
ELSE[ ]	/* Else */
NPUSHB[ ]	/* 38 values pushed */
7 5 2 3 14 8 2 2 1 3 2 104 16 15 9 3 1 12 10 2 0 11 1 0 103 6 1 4 4 33 77 13 1 11 11 34 11 78
EIF[ ]	/* EndIf */
NPUSHB[ ]	/* 30 values pushed */
28 28 28 31 28 31 30 29 27 26 25 24 23 22 21 20 19 18 17 17 17 17 17 17 17 17 16 17 8 31
CALL[ ]	/* CallFunction */";
};
width = 814;
}
);
note = numbersign;
unicode = 35;
},
{
glyphname = slash;
kernLeft = slash;
kernRight = slash;
layers = (
{
layerId = m01;
shapes = (
{
closed = 1;
nodes = (
(111,-95,l),
(362,764,l),
(279,764,l),
(28,-95,l)
);
}
);
userData = {
assembly = "NPUSHB[ ]	/* 14 values pushed */
0 0 1 0 133 0 1 1 118 17 16 2 8 24
CALL[ ]	/* CallFunction */";
};
width = 391;
}
);
note = slash;
unicode = 47;
},
{
glyphname = backslash;
kernLeft = backslash;
kernRight = backslash;
layers = (
{
layerId = m01;
shapes = (
{
closed = 1;
nodes = (
(362,-95,l),
(112,764,l),
(28,764,l),
(280,-95,l)
);
}
);
userData = {
assembly = "NPUSHB[ ]	/* 14 values pushed */
0 0 1 0 133 0 1 1 118 17 16 2 8 24
CALL[ ]	/* CallFunction */";
};
width = 391;
}
);
note = backslash;
unicode = 92;
},
{
glyphname = periodcentered.loclCAT;
layers = (
{
layerId = m01;
shapes = (
{
closed = 1;
nodes = (
(82,285,o),
(115,318,o),
(115,342,qs),
(115,367,o),
(82,399,o),
(58,399,qs),
(33,399,o),
(0,367,o),
(0,342,qs),
(0,318,o),
(33,285,o),
(58,285,qs)
);
}
);
userData = {
assembly = "NPUSHB[ ]	/* 27 values pushed */
0 0 1 1 0 89 0 0 0 1 97 2 1 1 0 1 81 0 0 0 11 0 10 36 3 8 23
CALL[ ]	/* CallFunction */";
};
width = 115;
}
);
note = periodcentered.loclCAT;
},
{
glyphname = periodcentered.loclCAT.case;
layers = (
{
layerId = m01;
shapes = (
{
closed = 1;
nodes = (
(-118,293,o),
(-85,326,o),
(-85,350,qs),
(-85,375,o),
(-118,407,o),
(-142,407,qs),
(-167,407,o),
(-200,375,o),
(-200,350,qs),
(-200,326,o),
(-167,293,o),
(-142,293,qs)
);
}
);
userData = {
assembly = "NPUSHB[ ]	/* 27 values pushed */
0 0 1 1 0 89 0 0 0 1 97 2 1 1 0 1 81 0 0 0 11 0 10 36 3 8 23
CALL[ ]	/* CallFunction */";
};
width = 0;
}
);
note = periodcentered.loclCAT.case;
},
{
glyphname = hyphen;
kernLeft = hyphen;
kernRight = hyphen;
layers = (
{
layerId = m01;
shapes = (
{
closed = 1;
nodes = (
(455,255,l),
(455,326,l),
(59,326,l),
(59,255,l)
);
}
);
userData = {
assembly = "NPUSHB[ ]	/* 21 values pushed */
0 0 1 1 0 87 0 0 0 1 95 0 1 0 1 79 17 16 2 8 24
CALL[ ]	/* CallFunction */";
};
width = 513;
}
);
note = hyphen;
unicode = 45;
},
{
glyphname = endash;
kernLeft = hyphen;
kernRight = hyphen;
layers = (
{
layerId = m01;
shapes = (
{
closed = 1;
nodes = (
(583,255,l),
(583,326,l),
(59,326,l),
(59,255,l)
);
}
);
userData = {
assembly = "NPUSHB[ ]	/* 21 values pushed */
0 0 1 1 0 87 0 0 0 1 95 0 1 0 1 79 17 16 2 8 24
CALL[ ]	/* CallFunction */";
};
width = 641;
}
);
note = endash;
unicode = 8211;
},
{
glyphname = emdash;
kernLeft = hyphen;
kernRight = hyphen;
layers = (
{
layerId = m01;
shapes = (
{
closed = 1;
nodes = (
(787,255,l),
(787,326,l),
(59,326,l),
(59,255,l)
);
}
);
userData = {
assembly = "NPUSHB[ ]	/* 21 values pushed */
0 0 1 1 0 87 0 0 0 1 95 0 1 0 1 79 17 16 2 8 24
CALL[ ]	/* CallFunction */";
};
width = 846;
}
);
note = emdash;
unicode = 8212;
},
{
glyphname = underscore;
kernLeft = underscore;
kernRight = underscore;
layers = (
{
layerId = m01;
shapes = (
{
closed = 1;
nodes = (
(583,-115,l),
(583,-36,l),
(59,-36,l),
(59,-115,l)
);
}
);
userData = {
assembly = "PUSHB[ ]	/* 2 values pushed */
6 100
WCVTP[ ]	/* WriteCVTInPixels */
NPUSHB[ ]	/* 21 values pushed */
0 0 1 1 0 87 0 0 0 1 95 0 1 0 1 79 17 16 2 8 24
CALL[ ]	/* CallFunction */
PUSHB[ ]	/* 2 values pushed */
6 0
WCVTP[ ]	/* WriteCVTInPixels */";
};
width = 642;
}
);
note = underscore;
unicode = 95;
},
{
glyphname = parenleft;
kernRight = parenleft;
layers = (
{
layerId = m01;
shapes = (
{
closed = 1;
nodes = (
(334,-145,l),
(334,-137,l),
(240,-43,o),
(131,199,o),
(131,333,qs),
(131,468,o),
(239,710,o),
(334,803,q),
(334,811,l),
(248,811,l),
(195,760,o),
(148,688,qs),
(100,613,o),
(47,434,o),
(47,333,qs),
(47,227,o),
(75,140,qs),
(101,54,o),
(191,-90,o),
(248,-145,q)
);
}
);
userData = {
assembly = "NPUSHB[ ]	/* 13 values pushed */
19 17 2 0 73 0 0 0 118 25 1 8 23
CALL[ ]	/* CallFunction */";
};
width = 372;
}
);
note = parenleft;
unicode = 40;
},
{
glyphname = parenright;
kernLeft = parenright;
layers = (
{
layerId = m01;
shapes = (
{
closed = 1;
nodes = (
(38,-145,l),
(124,-145,l),
(181,-90,o),
(271,54,o),
(298,140,qs),
(325,229,o),
(325,333,qs),
(325,434,o),
(272,613,o),
(224,688,qs),
(177,760,o),
(124,811,q),
(38,811,l),
(38,803,l),
(133,710,o),
(241,468,o),
(241,333,qs),
(241,199,o),
(132,-43,o),
(38,-137,q)
);
}
);
userData = {
assembly = "NPUSHB[ ]	/* 13 values pushed */
5 1 0 74 0 0 0 118 18 17 1 8 22
CALL[ ]	/* CallFunction */";
};
width = 372;
}
);
note = parenright;
unicode = 41;
},
{
glyphname = braceleft;
kernLeft = braceleft;
kernRight = braceleft;
layers = (
{
layerId = m01;
shapes = (
{
closed = 1;
nodes = (
(373,-152,l),
(373,-80,l),
(335,-80,ls),
(292,-80,o),
(250,-39,o),
(250,5,qs),
(250,30,o),
(257,77,o),
(261,98,qs),
(271,150,o),
(271,186,qs),
(271,241,o),
(216,315,o),
(160,329,q),
(160,331,l),
(216,343,o),
(271,418,o),
(271,473,qs),
(271,510,o),
(261,564,qs),
(250,615,o),
(250,654,qs),
(250,699,o),
(292,739,o),
(335,739,qs),
(373,739,l),
(373,811,l),
(320,811,ls),
(250,811,o),
(168,735,o),
(168,661,qs),
(168,635,o),
(175,588,o),
(179,568,qs),
(190,520,o),
(190,476,qs),
(190,386,o),
(87,364,q),
(87,296,l),
(190,274,o),
(190,184,qs),
(190,140,o),
(179,92,qs),
(175,72,o),
(168,25,o),
(168,-2,qs),
(168,-75,o),
(250,-152,o),
(320,-152,qs)
);
}
);
userData = {
assembly = "NPUSHB[ ]	/* 48 values pushed */
33 10 9 3 2 1 1 76 0 0 0 1 2 0 1 105 0 2 3 3 2 89 0 2 2 3 97 4 1 3 2 3 81 0 0 0 48 0 47 46 44 24 22 21 19 5 8 22
CALL[ ]	/* CallFunction */";
};
width = 425;
}
);
note = braceleft;
unicode = 123;
},
{
glyphname = braceright;
kernLeft = braceright;
kernRight = braceright;
layers = (
{
layerId = m01;
shapes = (
{
closed = 1;
nodes = (
(105,-152,ls),
(175,-152,o),
(257,-75,o),
(257,-2,qs),
(257,25,o),
(250,72,o),
(246,92,qs),
(235,140,o),
(235,184,qs),
(235,274,o),
(338,296,q),
(338,364,l),
(235,386,o),
(235,476,qs),
(235,520,o),
(246,568,qs),
(250,588,o),
(257,635,o),
(257,661,qs),
(257,735,o),
(175,811,o),
(105,811,qs),
(52,811,l),
(52,739,l),
(90,739,ls),
(133,739,o),
(175,699,o),
(175,654,qs),
(175,633,o),
(169,590,o),
(166,571,qs),
(160,542,o),
(154,500,o),
(154,473,qs),
(154,418,o),
(209,343,o),
(265,331,q),
(265,329,l),
(209,315,o),
(154,241,o),
(154,186,qs),
(154,155,o),
(161,114,o),
(169,73,qs),
(175,33,o),
(175,5,qs),
(175,-39,o),
(133,-80,o),
(90,-80,qs),
(52,-80,l),
(52,-152,l)
);
}
);
userData = {
assembly = "NPUSHB[ ]	/* 42 values pushed */
39 38 12 3 0 1 1 76 0 2 0 1 0 2 1 105 0 0 3 3 0 89 0 0 0 3 97 0 3 0 3 81 50 48 29 27 26 24 32 4 8 23
CALL[ ]	/* CallFunction */";
};
width = 425;
}
);
note = braceright;
unicode = 125;
},
{
glyphname = bracketleft;
layers = (
{
layerId = m01;
shapes = (
{
closed = 1;
nodes = (
(248,-151,l),
(248,-81,l),
(153,-81,l),
(153,742,l),
(248,742,l),
(248,811,l),
(74,811,l),
(74,-151,l)
);
}
);
userData = {
assembly = "NPUSHB[ ]	/* 31 values pushed */
0 0 0 1 2 0 1 103 0 2 3 3 2 87 0 2 2 3 95 0 3 2 3 79 17 17 17 16 4 8 26
CALL[ ]	/* CallFunction */";
};
width = 307;
}
);
note = bracketleft;
unicode = 91;
},
{
glyphname = bracketright;
layers = (
{
layerId = m01;
shapes = (
{
closed = 1;
nodes = (
(233,-151,l),
(233,811,l),
(59,811,l),
(59,742,l),
(154,742,l),
(154,-81,l),
(59,-81,l),
(59,-151,l)
);
}
);
userData = {
assembly = "NPUSHB[ ]	/* 31 values pushed */
0 2 0 1 0 2 1 103 0 0 3 3 0 87 0 0 0 3 95 0 3 0 3 79 17 17 17 16 4 8 26
CALL[ ]	/* CallFunction */";
};
width = 307;
}
);
note = bracketright;
unicode = 93;
},
{
glyphname = quotesinglbase;
layers = (
{
layerId = m01;
shapes = (
{
closed = 1;
nodes = (
(62,-121,l),
(153,102,l),
(59,102,l),
(2,-121,l)
);
}
);
userData = {
assembly = "NPUSHB[ ]	/* 21 values pushed */
0 0 1 1 0 87 0 0 0 1 95 0 1 0 1 79 17 16 2 8 24
CALL[ ]	/* CallFunction */";
};
width = 184;
}
);
note = quotesinglbase;
unicode = 8218;
},
{
glyphname = quotedblbase;
layers = (
{
layerId = m01;
shapes = (
{
closed = 1;
nodes = (
(62,-121,l),
(153,102,l),
(59,102,l),
(2,-121,l)
);
},
{
closed = 1;
nodes = (
(221,-121,l),
(311,102,l),
(217,102,l),
(161,-121,l)
);
}
);
userData = {
assembly = "NPUSHB[ ]	/* 26 values pushed */
2 1 0 1 1 0 87 2 1 0 0 1 95 3 1 1 0 1 79 17 17 17 16 4 8 26
CALL[ ]	/* CallFunction */";
};
width = 342;
}
);
note = quotedblbase;
unicode = 8222;
},
{
glyphname = quotedblleft;
layers = (
{
layerId = m01;
shapes = (
{
closed = 1;
nodes = (
(279,477,l),
(336,700,l),
(276,700,l),
(185,477,l)
);
},
{
closed = 1;
nodes = (
(123,477,l),
(179,700,l),
(119,700,l),
(29,477,l)
);
}
);
userData = {
assembly = "NPUSHB[ ]	/* 20 values pushed */
3 1 1 1 0 95 2 1 0 0 33 1 78 17 17 17 16 4 8 26
CALL[ ]	/* CallFunction */";
};
width = 370;
}
);
note = quotedblleft;
unicode = 8220;
},
{
glyphname = quotedblright;
kernRight = quotedblright;
layers = (
{
layerId = m01;
shapes = (
{
closed = 1;
nodes = (
(250,477,l),
(341,700,l),
(247,700,l),
(190,477,l)
);
},
{
closed = 1;
nodes = (
(93,477,l),
(185,700,l),
(91,700,l),
(33,477,l)
);
}
);
userData = {
assembly = "NPUSHB[ ]	/* 20 values pushed */
3 1 1 1 0 95 2 1 0 0 33 1 78 17 17 17 16 4 8 26
CALL[ ]	/* CallFunction */";
};
width = 370;
}
);
note = quotedblright;
unicode = 8221;
},
{
glyphname = quoteleft;
layers = (
{
layerId = m01;
shapes = (
{
closed = 1;
nodes = (
(123,477,l),
(179,700,l),
(119,700,l),
(29,477,l)
);
}
);
userData = {
assembly = "NPUSHB[ ]	/* 16 values pushed */
0 1 1 0 95 0 0 0 33 1 78 17 16 2 8 24
CALL[ ]	/* CallFunction */";
};
width = 212;
}
);
note = quoteleft;
unicode = 8216;
},
{
glyphname = quoteright;
kernRight = quotedblright;
layers = (
{
layerId = m01;
shapes = (
{
closed = 1;
nodes = (
(93,477,l),
(185,700,l),
(91,700,l),
(33,477,l)
);
}
);
userData = {
assembly = "NPUSHB[ ]	/* 16 values pushed */
0 1 0 1 134 0 0 0 33 0 78 17 16 2 8 24
CALL[ ]	/* CallFunction */";
};
width = 213;
}
);
note = quoteright;
unicode = 8217;
},
{
glyphname = guillemotleft;
kernLeft = guillemotleft;
layers = (
{
layerId = m01;
shapes = (
{
closed = 1;
nodes = (
(402,120,l),
(302,295,l),
(402,470,l),
(319,470,l),
(222,295,l),
(319,120,l)
);
},
{
closed = 1;
nodes = (
(224,120,l),
(124,295,l),
(224,470,l),
(141,470,l),
(44,295,l),
(141,120,l)
);
}
);
userData = {
assembly = "NPUSHB[ ]	/* 33 values pushed */
9 3 2 1 0 1 76 2 1 0 1 1 0 87 2 1 0 0 1 95 3 1 1 0 1 79 18 18 18 17 4 8 26
CALL[ ]	/* CallFunction */";
};
width = 452;
}
);
note = guillemotleft;
unicode = 171;
},
{
glyphname = guillemotright;
layers = (
{
layerId = m01;
shapes = (
{
closed = 1;
nodes = (
(311,120,l),
(408,295,l),
(311,470,l),
(228,470,l),
(328,295,l),
(228,120,l)
);
},
{
closed = 1;
nodes = (
(133,120,l),
(230,295,l),
(133,470,l),
(50,470,l),
(150,295,l),
(50,120,l)
);
}
);
userData = {
assembly = "NPUSHB[ ]	/* 33 values pushed */
9 3 2 1 0 1 76 2 1 0 1 1 0 87 2 1 0 0 1 95 3 1 1 0 1 79 18 18 18 17 4 8 26
CALL[ ]	/* CallFunction */";
};
width = 452;
}
);
note = guillemotright;
unicode = 187;
},
{
glyphname = guilsinglleft;
kernLeft = guillemotleft;
layers = (
{
layerId = m01;
shapes = (
{
closed = 1;
nodes = (
(224,120,l),
(124,295,l),
(224,470,l),
(141,470,l),
(44,295,l),
(141,120,l)
);
}
);
userData = {
assembly = "NPUSHB[ ]	/* 27 values pushed */
3 1 1 0 1 76 0 0 1 1 0 87 0 0 0 1 95 0 1 0 1 79 18 17 2 8 24
CALL[ ]	/* CallFunction */";
};
width = 274;
}
);
note = guilsinglleft;
unicode = 8249;
},
{
glyphname = guilsinglright;
layers = (
{
layerId = m01;
shapes = (
{
closed = 1;
nodes = (
(133,120,l),
(230,295,l),
(133,470,l),
(50,470,l),
(150,295,l),
(50,120,l)
);
}
);
userData = {
assembly = "NPUSHB[ ]	/* 27 values pushed */
3 1 1 0 1 76 0 0 1 1 0 87 0 0 0 1 95 0 1 0 1 79 18 17 2 8 24
CALL[ ]	/* CallFunction */";
};
width = 274;
}
);
note = guilsinglright;
unicode = 8250;
},
{
glyphname = quotedbl;
kernRight = quotedblright;
layers = (
{
layerId = m01;
shapes = (
{
closed = 1;
nodes = (
(250,477,l),
(341,700,l),
(247,700,l),
(190,477,l)
);
},
{
closed = 1;
nodes = (
(93,477,l),
(185,700,l),
(91,700,l),
(33,477,l)
);
}
);
userData = {
assembly = "NPUSHB[ ]	/* 20 values pushed */
3 1 1 1 0 95 2 1 0 0 33 1 78 17 17 17 16 4 8 26
CALL[ ]	/* CallFunction */";
};
width = 370;
}
);
note = quotedbl;
unicode = 34;
},
{
glyphname = quotesingle;
kernRight = quotedblright;
layers = (
{
layerId = m01;
shapes = (
{
closed = 1;
nodes = (
(93,477,l),
(185,700,l),
(91,700,l),
(33,477,l)
);
}
);
userData = {
assembly = "NPUSHB[ ]	/* 16 values pushed */
0 1 0 1 134 0 0 0 33 0 78 17 16 2 8 24
CALL[ ]	/* CallFunction */";
};
width = 213;
}
);
note = quotesingle;
unicode = 39;
},
{
glyphname = florin;
layers = (
{
layerId = m01;
shapes = (
{
closed = 1;
nodes = (
(-19,-191,ls),
(51,-191,o),
(125,-126,o),
(133,-54,qs),
(189,478,l),
(311,478,l),
(317,548,l),
(197,548,l),
(202,596,ls),
(207,649,o),
(266,695,o),
(326,695,q),
(332,766,l),
(232,766,o),
(127,684,o),
(118,596,qs),
(113,548,l),
(39,548,l),
(33,478,l),
(105,478,l),
(49,-54,ls),
(44,-92,o),
(15,-121,o),
(-16,-121,qs),
(-38,-121,l),
(-44,-191,l)
);
}
);
userData = {
assembly = "NPUSHB[ ]	/* 45 values pushed */
0 3 0 4 2 3 4 105 5 1 2 6 1 1 0 2 1 103 0 0 7 7 0 89 0 0 0 7 97 0 7 0 7 81 35 17 19 17 19 17 19 32 8 8 30
CALL[ ]	/* CallFunction */";
};
width = 333;
}
);
note = florin;
unicode = 402;
},
